<svg width="86" height="40" viewBox="0 0 86 40" fill="none" xmlns="http://www.w3.org/2000/svg">
<path d="M0 4C0 1.79086 1.79086 0 4 0H82C84.2091 0 86 1.79086 86 4V36C86 38.2091 84.2091 40 82 40H4C1.79086 40 0 38.2091 0 36V4Z" fill="#005DE0"/>
<path d="M20.392 17.968H26.36V19.088H20.392V17.968ZM11.976 14.24H19.048V15.248H11.976V14.24ZM11.8 20.576H19.112V21.632H11.8V20.576ZM11.752 17.888H19.24V18.912H11.752V17.888ZM23.384 18.416H24.536V27.2H23.384V18.416ZM14.952 12.624H16.12V14.752H14.952V12.624ZM14.952 18.736H16.12V27.248H14.952V18.736ZM19.816 13.872L21.288 14.32C21.2773 14.4373 21.1707 14.512 20.968 14.544V19.488C20.968 20.0853 20.936 20.7253 20.872 21.408C20.8187 22.0907 20.7067 22.784 20.536 23.488C20.3653 24.1813 20.1093 24.8587 19.768 25.52C19.4267 26.1813 18.9787 26.7893 18.424 27.344C18.3707 27.2587 18.2907 27.1627 18.184 27.056C18.088 26.9493 17.9813 26.8427 17.864 26.736C17.7573 26.64 17.656 26.5707 17.56 26.528C18.072 26.0267 18.4773 25.4827 18.776 24.896C19.0853 24.3093 19.3093 23.7067 19.448 23.088C19.5973 22.4693 19.6933 21.856 19.736 21.248C19.7893 20.6293 19.816 20.0373 19.816 19.472V13.872ZM25.176 12.736L26.152 13.616C25.6507 13.84 25.08 14.0533 24.44 14.256C23.8 14.448 23.1387 14.624 22.456 14.784C21.784 14.9333 21.128 15.0667 20.488 15.184C20.456 15.056 20.4027 14.9013 20.328 14.72C20.2533 14.528 20.1787 14.3733 20.104 14.256C20.7013 14.128 21.3147 13.984 21.944 13.824C22.584 13.664 23.1867 13.4933 23.752 13.312C24.3173 13.12 24.792 12.928 25.176 12.736ZM15.992 21.92C16.12 22.0053 16.3067 22.1493 16.552 22.352C16.808 22.544 17.08 22.7573 17.368 22.992C17.656 23.2267 17.9173 23.4453 18.152 23.648C18.3867 23.84 18.5573 23.9787 18.664 24.064L17.944 24.96C17.816 24.8107 17.64 24.624 17.416 24.4C17.192 24.176 16.9467 23.9413 16.68 23.696C16.424 23.44 16.1733 23.2053 15.928 22.992C15.6933 22.768 15.5013 22.5973 15.352 22.48L15.992 21.92ZM12.936 15.552L13.896 15.328C14.056 15.68 14.2 16.0693 14.328 16.496C14.456 16.9227 14.5413 17.2907 14.584 17.6L13.56 17.872C13.5387 17.552 13.4693 17.1787 13.352 16.752C13.2347 16.3147 13.096 15.9147 12.936 15.552ZM17.048 15.296L18.136 15.536C17.9867 15.9413 17.832 16.352 17.672 16.768C17.512 17.184 17.3573 17.5413 17.208 17.84L16.232 17.6C16.328 17.3867 16.424 17.1467 16.52 16.88C16.6267 16.6133 16.728 16.3413 16.824 16.064C16.92 15.776 16.9947 15.52 17.048 15.296ZM14.952 21.12L15.816 21.456C15.5493 22.032 15.2187 22.6187 14.824 23.216C14.4293 23.8027 14.008 24.352 13.56 24.864C13.1227 25.3653 12.6907 25.7813 12.264 26.112C12.168 25.9733 12.04 25.824 11.88 25.664C11.7307 25.4933 11.5867 25.3547 11.448 25.248C11.8853 24.9707 12.3227 24.608 12.76 24.16C13.208 23.712 13.624 23.2213 14.008 22.688C14.392 22.1547 14.7067 21.632 14.952 21.12ZM28.04 15.216H33.736V16.304H28.04V15.216ZM27.704 18.928H34.04V20.032H27.704V18.928ZM30.344 12.72H31.48V18.256C31.48 18.96 31.448 19.712 31.384 20.512C31.3307 21.3013 31.2027 22.096 31 22.896C30.808 23.6853 30.504 24.4427 30.088 25.168C29.6827 25.8827 29.128 26.528 28.424 27.104C28.3707 27.008 28.296 26.9067 28.2 26.8C28.104 26.6933 28.0027 26.5867 27.896 26.48C27.8 26.3733 27.704 26.288 27.608 26.224C28.2587 25.7333 28.7707 25.1627 29.144 24.512C29.5173 23.8507 29.784 23.1573 29.944 22.432C30.1147 21.7067 30.2213 20.9867 30.264 20.272C30.3173 19.5573 30.344 18.8853 30.344 18.256V12.72ZM31.224 20.832C31.3307 20.928 31.48 21.0827 31.672 21.296C31.8747 21.5093 32.0933 21.7493 32.328 22.016C32.5733 22.272 32.8133 22.5333 33.048 22.8C33.2933 23.0667 33.5067 23.3067 33.688 23.52C33.88 23.7333 34.0133 23.888 34.088 23.984L33.272 24.88C33.1333 24.6773 32.9413 24.416 32.696 24.096C32.4507 23.776 32.1893 23.4453 31.912 23.104C31.6347 22.752 31.368 22.4267 31.112 22.128C30.856 21.8293 30.648 21.5947 30.488 21.424L31.224 20.832ZM35.752 16.848V18.416H40.344V16.848H35.752ZM35.752 19.408V21.024H40.344V19.408H35.752ZM35.752 14.272V15.84H40.344V14.272H35.752ZM34.632 13.184H41.496V22.096H34.632V13.184ZM38.456 21.632H39.592V25.504C39.592 25.6853 39.6133 25.8027 39.656 25.856C39.6987 25.9093 39.8053 25.936 39.976 25.936C40.0293 25.936 40.1253 25.936 40.264 25.936C40.4027 25.936 40.5413 25.936 40.68 25.936C40.8293 25.936 40.936 25.936 41 25.936C41.1173 25.936 41.2027 25.888 41.256 25.792C41.32 25.696 41.3627 25.4987 41.384 25.2C41.416 24.9013 41.4373 24.4373 41.448 23.808C41.5333 23.872 41.6347 23.936 41.752 24C41.8693 24.064 41.992 24.1173 42.12 24.16C42.2587 24.2027 42.376 24.24 42.472 24.272C42.44 24.9973 42.376 25.5573 42.28 25.952C42.1947 26.3467 42.0613 26.6187 41.88 26.768C41.6987 26.9173 41.448 26.992 41.128 26.992C41.0747 26.992 40.984 26.992 40.856 26.992C40.7387 26.992 40.6107 26.992 40.472 26.992C40.3333 26.992 40.2 26.992 40.072 26.992C39.9547 26.992 39.8693 26.992 39.816 26.992C39.4533 26.992 39.1707 26.9493 38.968 26.864C38.776 26.7787 38.6427 26.624 38.568 26.4C38.4933 26.1867 38.456 25.888 38.456 25.504V21.632ZM35.944 21.84H37.096C37.0213 22.48 36.904 23.0773 36.744 23.632C36.5947 24.176 36.376 24.6773 36.088 25.136C35.8107 25.584 35.4373 25.984 34.968 26.336C34.4987 26.6987 33.912 27.008 33.208 27.264C33.1547 27.1253 33.0533 26.9653 32.904 26.784C32.7653 26.6133 32.6373 26.4747 32.52 26.368C33.3733 26.0907 34.0347 25.7333 34.504 25.296C34.9733 24.8587 35.3093 24.352 35.512 23.776C35.7253 23.1893 35.8693 22.544 35.944 21.84ZM47.192 18.88V24.544H46.024V20H43.784V18.88H47.192ZM47.192 24.016C47.576 24.6027 48.1093 25.04 48.792 25.328C49.4747 25.616 50.28 25.776 51.208 25.808C51.6453 25.8293 52.1733 25.8453 52.792 25.856C53.4213 25.856 54.0773 25.8507 54.76 25.84C55.4533 25.8293 56.12 25.8133 56.76 25.792C57.4 25.7707 57.96 25.744 58.44 25.712C58.3867 25.7973 58.3333 25.9147 58.28 26.064C58.2267 26.2133 58.1787 26.3627 58.136 26.512C58.0933 26.672 58.0613 26.8107 58.04 26.928C57.6027 26.9493 57.0853 26.9653 56.488 26.976C55.8907 26.9867 55.272 26.992 54.632 26.992C53.992 27.0027 53.368 27.0027 52.76 26.992C52.1627 26.992 51.6453 26.9867 51.208 26.976C50.1627 26.9333 49.2667 26.7627 48.52 26.464C47.784 26.1653 47.16 25.696 46.648 25.056C46.264 25.3973 45.8693 25.7387 45.464 26.08C45.0587 26.432 44.6373 26.7893 44.2 27.152L43.576 25.92C43.96 25.664 44.3707 25.3707 44.808 25.04C45.256 24.6987 45.688 24.3573 46.104 24.016H47.192ZM43.96 13.664L44.84 12.944C45.192 13.168 45.5493 13.4293 45.912 13.728C46.2747 14.016 46.6053 14.3093 46.904 14.608C47.2133 14.9067 47.464 15.184 47.656 15.44L46.696 16.24C46.536 15.984 46.3013 15.7013 45.992 15.392C45.6933 15.0827 45.3627 14.7787 45 14.48C44.648 14.1707 44.3013 13.8987 43.96 13.664ZM49.56 14.224H56.648V18.432H49.56V17.408H55.48V15.248H49.56V14.224ZM52.168 12.512L53.544 12.736C53.384 13.12 53.2187 13.504 53.048 13.888C52.888 14.272 52.744 14.6027 52.616 14.88L51.496 14.64C51.624 14.3307 51.752 13.9787 51.88 13.584C52.008 13.1787 52.104 12.8213 52.168 12.512ZM48.968 14.224H50.152V24.496H48.968V14.224ZM49.608 19.952H57.288V24.496H49.608V23.472H56.12V20.976H49.608V19.952ZM68.68 24.704H73.032V25.856H68.68V24.704ZM59.848 15.584H66.008V16.768H59.848V15.584ZM68.152 14.544H73.608V26.912H72.408V15.712H69.304V27.04H68.152V14.544ZM65.688 15.584H66.84C66.84 15.584 66.84 15.6267 66.84 15.712C66.84 15.7867 66.84 15.8773 66.84 15.984C66.84 16.08 66.84 16.1547 66.84 16.208C66.808 17.9893 66.776 19.488 66.744 20.704C66.712 21.92 66.6693 22.9173 66.616 23.696C66.5627 24.464 66.4933 25.056 66.408 25.472C66.3333 25.888 66.232 26.1813 66.104 26.352C65.9547 26.5547 65.8 26.6987 65.64 26.784C65.48 26.88 65.2827 26.944 65.048 26.976C64.824 27.008 64.536 27.0187 64.184 27.008C63.8427 27.008 63.496 26.9973 63.144 26.976C63.1333 26.7947 63.096 26.592 63.032 26.368C62.9787 26.144 62.8987 25.9467 62.792 25.776C63.1653 25.808 63.512 25.8293 63.832 25.84C64.152 25.84 64.3813 25.84 64.52 25.84C64.6373 25.8507 64.7387 25.84 64.824 25.808C64.9093 25.7653 64.9893 25.6907 65.064 25.584C65.1493 25.4667 65.224 25.216 65.288 24.832C65.352 24.4373 65.4107 23.8667 65.464 23.12C65.5173 22.3733 65.56 21.408 65.592 20.224C65.624 19.0293 65.656 17.5787 65.688 15.872V15.584ZM62.12 12.768H63.304C63.2933 14.2507 63.2667 15.696 63.224 17.104C63.1813 18.512 63.0693 19.8453 62.888 21.104C62.7173 22.3627 62.4293 23.52 62.024 24.576C61.6293 25.6213 61.08 26.528 60.376 27.296C60.312 27.2 60.2267 27.0987 60.12 26.992C60.0133 26.896 59.9013 26.8 59.784 26.704C59.6667 26.608 59.5547 26.528 59.448 26.464C59.9813 25.9093 60.4133 25.2587 60.744 24.512C61.0853 23.7653 61.352 22.9493 61.544 22.064C61.736 21.168 61.8693 20.2187 61.944 19.216C62.0293 18.2027 62.0773 17.1573 62.088 16.08C62.1093 14.992 62.12 13.888 62.12 12.768Z" fill="#F5F5F5"/>
</svg>
