<svg width="326" height="316" viewBox="0 0 326 316" fill="none" xmlns="http://www.w3.org/2000/svg">
<g filter="url(#filter0_d_4326_1464)">
<mask id="path-1-inside-1_4326_1464" fill="white">
<path d="M4 16C4 7.16345 11.1634 0 20 0H306C314.837 0 322 7.16344 322 16V292C322 300.837 314.837 308 306 308H20C11.1635 308 4 300.837 4 292V16Z"/>
</mask>
<path d="M4 16C4 7.16345 11.1634 0 20 0H306C314.837 0 322 7.16344 322 16V292C322 300.837 314.837 308 306 308H20C11.1635 308 4 300.837 4 292V16Z" fill="#F0F0F0" shape-rendering="crispEdges"/>
<path d="M20 0V1H306V0V-1H20V0ZM322 16H321V292H322H323V16H322ZM306 308V307H20V308V309H306V308ZM4 292H5V16H4H3V292H4ZM20 308V307C11.7157 307 5 300.284 5 292H4H3C3 301.389 10.6112 309 20 309V308ZM322 292H321C321 300.284 314.284 307 306 307V308V309C315.389 309 323 301.389 323 292H322ZM306 0V1C314.284 1 321 7.71573 321 16H322H323C323 6.61116 315.389 -1 306 -1V0ZM20 0V-1C10.6112 -1 3 6.61117 3 16H4H5C5 7.71573 11.7157 1 20 1V0Z" fill="#D9D9D9" mask="url(#path-1-inside-1_4326_1464)"/>
<path d="M40.5 39L35.5 34L40.5 29" stroke="#1E1E1E" stroke-width="2" stroke-linecap="round" stroke-linejoin="round"/>
<path d="M167 28C167 23.5817 170.582 20 175 20H246C250.418 20 254 23.5817 254 28V40C254 44.4183 250.418 48 246 48H175C170.582 48 167 44.4183 167 40V28Z" fill="white"/>
<path d="M175 20V20.5H246V20V19.5H175V20ZM254 28H253.5V40H254H254.5V28H254ZM246 48V47.5H175V48V48.5H246V48ZM167 40H167.5V28H167H166.5V40H167ZM175 48V47.5C170.858 47.5 167.5 44.1421 167.5 40H167H166.5C166.5 44.6944 170.306 48.5 175 48.5V48ZM254 40H253.5C253.5 44.1421 250.142 47.5 246 47.5V48V48.5C250.694 48.5 254.5 44.6944 254.5 40H254ZM246 20V20.5C250.142 20.5 253.5 23.8579 253.5 28H254H254.5C254.5 23.3056 250.694 19.5 246 19.5V20ZM175 20V19.5C170.306 19.5 166.5 23.3056 166.5 28H167H167.5C167.5 23.8579 170.858 20.5 175 20.5V20Z" fill="#D9D9D9"/>
<path d="M174.205 40V38.9773L178.045 34.7727C178.496 34.2803 178.867 33.8523 179.159 33.4886C179.451 33.1212 179.667 32.7765 179.807 32.4545C179.951 32.1288 180.023 31.7879 180.023 31.4318C180.023 31.0227 179.924 30.6686 179.727 30.3693C179.534 30.0701 179.269 29.839 178.932 29.6761C178.595 29.5133 178.216 29.4318 177.795 29.4318C177.348 29.4318 176.958 29.5246 176.625 29.7102C176.295 29.892 176.04 30.1477 175.858 30.4773C175.68 30.8068 175.591 31.1932 175.591 31.6364H174.25C174.25 30.9545 174.407 30.3561 174.722 29.8409C175.036 29.3258 175.464 28.9242 176.006 28.6364C176.551 28.3485 177.163 28.2045 177.841 28.2045C178.523 28.2045 179.127 28.3485 179.653 28.6364C180.18 28.9242 180.593 29.3125 180.892 29.8011C181.191 30.2898 181.341 30.8333 181.341 31.4318C181.341 31.8598 181.263 32.2784 181.108 32.6875C180.956 33.0928 180.691 33.5455 180.312 34.0455C179.938 34.5417 179.417 35.1477 178.75 35.8636L176.136 38.6591V38.75H181.545V40H174.205ZM187.688 40.1591C186.831 40.1591 186.102 39.9261 185.5 39.4602C184.898 38.9905 184.438 38.3106 184.119 37.4205C183.801 36.5265 183.642 35.447 183.642 34.1818C183.642 32.9242 183.801 31.8504 184.119 30.9602C184.441 30.0663 184.903 29.3845 185.506 28.9148C186.112 28.4413 186.839 28.2045 187.688 28.2045C188.536 28.2045 189.261 28.4413 189.864 28.9148C190.47 29.3845 190.932 30.0663 191.25 30.9602C191.572 31.8504 191.733 32.9242 191.733 34.1818C191.733 35.447 191.574 36.5265 191.256 37.4205C190.938 38.3106 190.477 38.9905 189.875 39.4602C189.273 39.9261 188.544 40.1591 187.688 40.1591ZM187.688 38.9091C188.536 38.9091 189.195 38.5 189.665 37.6818C190.134 36.8636 190.369 35.697 190.369 34.1818C190.369 33.1742 190.261 32.3163 190.045 31.608C189.833 30.8996 189.527 30.3598 189.125 29.9886C188.727 29.6174 188.248 29.4318 187.688 29.4318C186.847 29.4318 186.189 29.8466 185.716 30.6761C185.242 31.5019 185.006 32.6705 185.006 34.1818C185.006 35.1894 185.112 36.0455 185.324 36.75C185.536 37.4545 185.841 37.9905 186.239 38.358C186.64 38.7254 187.123 38.9091 187.688 38.9091ZM193.892 40V38.9773L197.733 34.7727C198.184 34.2803 198.555 33.8523 198.847 33.4886C199.138 33.1212 199.354 32.7765 199.494 32.4545C199.638 32.1288 199.71 31.7879 199.71 31.4318C199.71 31.0227 199.612 30.6686 199.415 30.3693C199.222 30.0701 198.956 29.839 198.619 29.6761C198.282 29.5133 197.903 29.4318 197.483 29.4318C197.036 29.4318 196.646 29.5246 196.312 29.7102C195.983 29.892 195.727 30.1477 195.545 30.4773C195.367 30.8068 195.278 31.1932 195.278 31.6364H193.938C193.938 30.9545 194.095 30.3561 194.409 29.8409C194.723 29.3258 195.152 28.9242 195.693 28.6364C196.239 28.3485 196.85 28.2045 197.528 28.2045C198.21 28.2045 198.814 28.3485 199.341 28.6364C199.867 28.9242 200.28 29.3125 200.58 29.8011C200.879 30.2898 201.028 30.8333 201.028 31.4318C201.028 31.8598 200.951 32.2784 200.795 32.6875C200.644 33.0928 200.379 33.5455 200 34.0455C199.625 34.5417 199.104 35.1477 198.438 35.8636L195.824 38.6591V38.75H201.233V40H193.892ZM207.216 40.1591C206.549 40.1591 205.949 40.0265 205.415 39.7614C204.881 39.4962 204.453 39.1326 204.131 38.6705C203.809 38.2083 203.633 37.6818 203.602 37.0909H204.966C205.019 37.6174 205.258 38.053 205.682 38.3977C206.11 38.7386 206.621 38.9091 207.216 38.9091C207.693 38.9091 208.117 38.7973 208.489 38.5739C208.864 38.3504 209.157 38.0436 209.369 37.6534C209.585 37.2595 209.693 36.8144 209.693 36.3182C209.693 35.8106 209.581 35.358 209.358 34.9602C209.138 34.5587 208.835 34.2424 208.449 34.0114C208.063 33.7803 207.621 33.6629 207.125 33.6591C206.769 33.6553 206.403 33.7102 206.028 33.8239C205.653 33.9337 205.345 34.0758 205.102 34.25L203.784 34.0909L204.489 28.3636H210.534V29.6136H205.67L205.261 33.0455H205.33C205.568 32.8561 205.867 32.6989 206.227 32.5739C206.587 32.4489 206.962 32.3864 207.352 32.3864C208.064 32.3864 208.699 32.5568 209.256 32.8977C209.816 33.2348 210.256 33.697 210.574 34.2841C210.896 34.8712 211.057 35.5417 211.057 36.2955C211.057 37.0379 210.89 37.7008 210.557 38.2841C210.227 38.8636 209.773 39.322 209.193 39.6591C208.614 39.9924 207.955 40.1591 207.216 40.1591Z" fill="#1E1E1E"/>
<path d="M236 32L240 36L244 32" stroke="#1E1E1E" stroke-width="1.6" stroke-linecap="round" stroke-linejoin="round"/>
<path d="M72 28C72 23.5817 75.5817 20 80 20H151C155.418 20 159 23.5817 159 28V40C159 44.4183 155.418 48 151 48H80C75.5817 48 72 44.4183 72 40V28Z" fill="white"/>
<path d="M80 20V20.5H151V20V19.5H80V20ZM159 28H158.5V40H159H159.5V28H159ZM151 48V47.5H80V48V48.5H151V48ZM72 40H72.5V28H72H71.5V40H72ZM80 48V47.5C75.8579 47.5 72.5 44.1421 72.5 40H72H71.5C71.5 44.6944 75.3056 48.5 80 48.5V48ZM159 40H158.5C158.5 44.1421 155.142 47.5 151 47.5V48V48.5C155.694 48.5 159.5 44.6944 159.5 40H159ZM151 20V20.5C155.142 20.5 158.5 23.8579 158.5 28H159H159.5C159.5 23.3056 155.694 19.5 151 19.5V20ZM80 20V19.5C75.3056 19.5 71.5 23.3056 71.5 28H72H72.5C72.5 23.8579 75.8579 20.5 80 20.5V20Z" fill="#D9D9D9"/>
<path d="M85.7727 31.2727C85.7045 30.697 85.428 30.25 84.9432 29.9318C84.4583 29.6136 83.8636 29.4545 83.1591 29.4545C82.6439 29.4545 82.1932 29.5379 81.8068 29.7045C81.4242 29.8712 81.125 30.1004 80.9091 30.392C80.697 30.6837 80.5909 31.0152 80.5909 31.3864C80.5909 31.697 80.6648 31.964 80.8125 32.1875C80.964 32.4072 81.1572 32.5909 81.392 32.7386C81.6269 32.8826 81.8731 33.0019 82.1307 33.0966C82.3883 33.1875 82.625 33.2614 82.8409 33.3182L84.0227 33.6364C84.3258 33.7159 84.6629 33.8258 85.0341 33.9659C85.4091 34.1061 85.767 34.2973 86.108 34.5398C86.4527 34.7784 86.7367 35.0852 86.9602 35.4602C87.1837 35.8352 87.2955 36.2955 87.2955 36.8409C87.2955 37.4697 87.1307 38.0379 86.8011 38.5455C86.4754 39.053 85.9981 39.4564 85.3693 39.7557C84.7443 40.0549 83.9848 40.2045 83.0909 40.2045C82.2576 40.2045 81.536 40.0701 80.9261 39.8011C80.3201 39.5322 79.8428 39.1572 79.4943 38.6761C79.1496 38.1951 78.9545 37.6364 78.9091 37H80.3636C80.4015 37.4394 80.5492 37.803 80.8068 38.0909C81.0682 38.375 81.3977 38.5871 81.7955 38.7273C82.197 38.8636 82.6288 38.9318 83.0909 38.9318C83.6288 38.9318 84.1117 38.8447 84.5398 38.6705C84.9678 38.4924 85.3068 38.2462 85.5568 37.9318C85.8068 37.6136 85.9318 37.2424 85.9318 36.8182C85.9318 36.4318 85.8239 36.1174 85.608 35.875C85.392 35.6326 85.108 35.4356 84.7557 35.2841C84.4034 35.1326 84.0227 35 83.6136 34.8864L82.1818 34.4773C81.2727 34.2159 80.553 33.8428 80.0227 33.358C79.4924 32.8731 79.2273 32.2386 79.2273 31.4545C79.2273 30.803 79.4034 30.2348 79.7557 29.75C80.1117 29.2614 80.589 28.8826 81.1875 28.6136C81.7898 28.3409 82.4621 28.2045 83.2045 28.2045C83.9545 28.2045 84.6212 28.339 85.2045 28.608C85.7879 28.8731 86.25 29.2367 86.5909 29.6989C86.9356 30.161 87.1174 30.6856 87.1364 31.2727H85.7727ZM93.0895 40.1818C92.2486 40.1818 91.5232 39.9962 90.9134 39.625C90.3073 39.25 89.8395 38.7273 89.5099 38.0568C89.1842 37.3826 89.0213 36.5985 89.0213 35.7045C89.0213 34.8106 89.1842 34.0227 89.5099 33.3409C89.8395 32.6553 90.2978 32.1212 90.8849 31.7386C91.4759 31.3523 92.1652 31.1591 92.9531 31.1591C93.4077 31.1591 93.8565 31.2348 94.2997 31.3864C94.7429 31.5379 95.1463 31.7841 95.5099 32.125C95.8736 32.4621 96.1634 32.9091 96.3793 33.4659C96.5952 34.0227 96.7031 34.7083 96.7031 35.5227V36.0909H89.9759V34.9318H95.3395C95.3395 34.4394 95.241 34 95.044 33.6136C94.8509 33.2273 94.5743 32.9223 94.2145 32.6989C93.8584 32.4754 93.438 32.3636 92.9531 32.3636C92.419 32.3636 91.9569 32.4962 91.5668 32.7614C91.1804 33.0227 90.883 33.3636 90.6747 33.7841C90.4664 34.2045 90.3622 34.6553 90.3622 35.1364V35.9091C90.3622 36.5682 90.4759 37.1269 90.7031 37.5852C90.9342 38.0398 91.2543 38.3864 91.6634 38.625C92.0724 38.8598 92.5478 38.9773 93.0895 38.9773C93.4418 38.9773 93.7599 38.928 94.044 38.8295C94.3319 38.7273 94.58 38.5758 94.7884 38.375C94.9967 38.1705 95.1577 37.9167 95.2713 37.6136L96.5668 37.9773C96.4304 38.4167 96.2012 38.803 95.8793 39.1364C95.5573 39.4659 95.1596 39.7235 94.6861 39.9091C94.2126 40.0909 93.6804 40.1818 93.0895 40.1818ZM98.7429 43.2727V31.2727H100.038V32.6591H100.197C100.296 32.5076 100.432 32.3144 100.607 32.0795C100.785 31.8409 101.038 31.6288 101.368 31.4432C101.701 31.2538 102.152 31.1591 102.72 31.1591C103.455 31.1591 104.103 31.3428 104.663 31.7102C105.224 32.0777 105.661 32.5985 105.976 33.2727C106.29 33.947 106.447 34.7424 106.447 35.6591C106.447 36.5833 106.29 37.3845 105.976 38.0625C105.661 38.7367 105.226 39.2595 104.669 39.6307C104.112 39.9981 103.47 40.1818 102.743 40.1818C102.182 40.1818 101.733 40.089 101.396 39.9034C101.059 39.714 100.8 39.5 100.618 39.2614C100.436 39.0189 100.296 38.8182 100.197 38.6591H100.084V43.2727H98.7429ZM100.061 35.6364C100.061 36.2955 100.158 36.8769 100.351 37.3807C100.544 37.8807 100.826 38.2727 101.197 38.5568C101.569 38.8371 102.023 38.9773 102.561 38.9773C103.122 38.9773 103.589 38.8295 103.964 38.5341C104.343 38.2348 104.627 37.8333 104.817 37.3295C105.01 36.822 105.107 36.2576 105.107 35.6364C105.107 35.0227 105.012 34.4697 104.822 33.9773C104.637 33.4811 104.355 33.089 103.976 32.8011C103.601 32.5095 103.129 32.3636 102.561 32.3636C102.016 32.3636 101.557 32.5019 101.186 32.7784C100.815 33.0511 100.535 33.4337 100.345 33.9261C100.156 34.4148 100.061 34.9848 100.061 35.6364Z" fill="#1E1E1E"/>
<path d="M141 32L145 36L149 32" stroke="#1E1E1E" stroke-width="1.6" stroke-linecap="round" stroke-linejoin="round"/>
<path d="M285.5 39L290.5 34L285.5 29" stroke="#1E1E1E" stroke-width="2" stroke-linecap="round" stroke-linejoin="round"/>
<path d="M36.7429 82.192C36.0869 82.192 35.5149 82.068 35.0269 81.82C34.5389 81.572 34.1509 81.232 33.8629 80.8C33.5829 80.36 33.4189 79.852 33.3709 79.276L34.4509 79.204C34.5069 79.628 34.6309 79.988 34.8229 80.284C35.0149 80.58 35.2709 80.804 35.5909 80.956C35.9189 81.108 36.3109 81.184 36.7669 81.184C37.1669 81.184 37.5069 81.132 37.7869 81.028C38.0669 80.924 38.2789 80.772 38.4229 80.572C38.5749 80.372 38.6509 80.128 38.6509 79.84C38.6509 79.576 38.5869 79.344 38.4589 79.144C38.3389 78.936 38.1029 78.748 37.7509 78.58C37.4069 78.404 36.8949 78.232 36.2149 78.064C35.5589 77.896 35.0349 77.712 34.6429 77.512C34.2589 77.312 33.9789 77.068 33.8029 76.78C33.6349 76.492 33.5509 76.136 33.5509 75.712C33.5509 75.232 33.6629 74.812 33.8869 74.452C34.1189 74.084 34.4469 73.8 34.8709 73.6C35.2949 73.392 35.7989 73.288 36.3829 73.288C37.0069 73.288 37.5429 73.408 37.9909 73.648C38.4389 73.88 38.7949 74.2 39.0589 74.608C39.3229 75.016 39.4869 75.48 39.5509 76L38.4709 76.072C38.4229 75.728 38.3109 75.424 38.1349 75.16C37.9669 74.888 37.7349 74.676 37.4389 74.524C37.1429 74.372 36.7829 74.296 36.3589 74.296C35.8309 74.296 35.4109 74.424 35.0989 74.68C34.7869 74.928 34.6309 75.256 34.6309 75.664C34.6309 75.928 34.6909 76.148 34.8109 76.324C34.9389 76.492 35.1629 76.644 35.4829 76.78C35.8029 76.908 36.2629 77.048 36.8629 77.2C37.5749 77.376 38.1389 77.588 38.5549 77.836C38.9789 78.076 39.2789 78.356 39.4549 78.676C39.6389 78.996 39.7309 79.36 39.7309 79.768C39.7309 80.264 39.6029 80.696 39.3469 81.064C39.0909 81.424 38.7389 81.704 38.2909 81.904C37.8429 82.096 37.3269 82.192 36.7429 82.192ZM43.4347 82.144C42.8027 82.144 42.2947 81.932 41.9107 81.508C41.5347 81.076 41.3467 80.484 41.3467 79.732V75.64H42.3547V79.456C42.3547 80.072 42.4627 80.528 42.6787 80.824C42.9027 81.112 43.2427 81.256 43.6987 81.256C44.2027 81.256 44.5987 81.096 44.8867 80.776C45.1747 80.448 45.3187 80 45.3187 79.432V75.64H46.3267V82H45.3667V80.428L45.5227 80.512C45.3947 81.032 45.1507 81.436 44.7907 81.724C44.4307 82.004 43.9787 82.144 43.4347 82.144Z" fill="#757575"/>
<path d="M73.4614 82V73.48H74.9014L77.6254 80.872L80.3374 73.48H81.7774V82H80.7454V75.4L78.3094 82H76.9294L74.4934 75.4V82H73.4614ZM86.2077 82.144C85.6237 82.144 85.1117 82.008 84.6717 81.736C84.2317 81.464 83.8917 81.08 83.6517 80.584C83.4117 80.08 83.2917 79.492 83.2917 78.82C83.2917 78.14 83.4117 77.552 83.6517 77.056C83.8917 76.56 84.2317 76.176 84.6717 75.904C85.1117 75.632 85.6237 75.496 86.2077 75.496C86.7917 75.496 87.2997 75.632 87.7317 75.904C88.1717 76.176 88.5117 76.56 88.7517 77.056C88.9917 77.552 89.1117 78.14 89.1117 78.82C89.1117 79.492 88.9917 80.08 88.7517 80.584C88.5117 81.08 88.1717 81.464 87.7317 81.736C87.2997 82.008 86.7917 82.144 86.2077 82.144ZM86.2077 81.184C86.7917 81.184 87.2437 80.976 87.5637 80.56C87.8917 80.136 88.0557 79.556 88.0557 78.82C88.0557 78.084 87.8917 77.508 87.5637 77.092C87.2437 76.668 86.7917 76.456 86.2077 76.456C85.6237 76.456 85.1677 76.668 84.8397 77.092C84.5117 77.508 84.3477 78.084 84.3477 78.82C84.3477 79.556 84.5117 80.136 84.8397 80.56C85.1677 80.976 85.6237 81.184 86.2077 81.184Z" fill="#757575"/>
<path d="M118.456 82V74.488H115.804V73.48H122.14V74.488H119.488V82H118.456ZM124.486 82.144C123.854 82.144 123.346 81.932 122.962 81.508C122.586 81.076 122.398 80.484 122.398 79.732V75.64H123.406V79.456C123.406 80.072 123.514 80.528 123.73 80.824C123.954 81.112 124.294 81.256 124.75 81.256C125.254 81.256 125.65 81.096 125.938 80.776C126.226 80.448 126.37 80 126.37 79.432V75.64H127.378V82H126.418V80.428L126.574 80.512C126.446 81.032 126.202 81.436 125.842 81.724C125.482 82.004 125.03 82.144 124.486 82.144Z" fill="#757575"/>
<path d="M156.905 82L154.661 73.48H155.789L157.541 80.584L159.281 73.48H160.457L162.209 80.584L163.949 73.48H165.089L162.845 82H161.549L159.869 75.4L158.189 82H156.905ZM168.512 82.144C167.912 82.144 167.392 82.008 166.952 81.736C166.52 81.464 166.184 81.08 165.944 80.584C165.712 80.08 165.596 79.492 165.596 78.82C165.596 78.148 165.712 77.564 165.944 77.068C166.184 76.572 166.516 76.188 166.94 75.916C167.372 75.636 167.88 75.496 168.464 75.496C169.016 75.496 169.504 75.628 169.928 75.892C170.352 76.148 170.68 76.524 170.912 77.02C171.152 77.516 171.272 78.12 171.272 78.832V79.132H166.652C166.692 79.812 166.872 80.324 167.192 80.668C167.52 81.012 167.96 81.184 168.512 81.184C168.928 81.184 169.268 81.088 169.532 80.896C169.804 80.696 169.992 80.436 170.096 80.116L171.176 80.2C171.008 80.768 170.688 81.236 170.216 81.604C169.752 81.964 169.184 82.144 168.512 82.144ZM166.652 78.244H170.168C170.12 77.628 169.94 77.176 169.628 76.888C169.324 76.6 168.936 76.456 168.464 76.456C167.976 76.456 167.572 76.608 167.252 76.912C166.94 77.208 166.74 77.652 166.652 78.244Z" fill="#757575"/>
<path d="M200.181 82V74.488H197.529V73.48H203.865V74.488H201.213V82H200.181ZM204.603 82V73.48H205.611V77.044L205.491 77.02C205.571 76.668 205.707 76.38 205.899 76.156C206.091 75.932 206.327 75.768 206.607 75.664C206.887 75.552 207.195 75.496 207.531 75.496C207.987 75.496 208.371 75.6 208.683 75.808C209.003 76.008 209.243 76.292 209.403 76.66C209.571 77.02 209.655 77.436 209.655 77.908V82H208.647V78.196C208.647 77.58 208.535 77.124 208.311 76.828C208.095 76.532 207.763 76.384 207.315 76.384C206.803 76.384 206.391 76.54 206.079 76.852C205.767 77.164 205.611 77.616 205.611 78.208V82H204.603Z" fill="#757575"/>
<path d="M240.473 82V73.48H245.825V74.488H240.989L241.505 73.96V77.872L240.989 77.344H245.609V78.328H240.989L241.505 77.8V82H240.473ZM247.044 82V75.64H247.932L247.98 77.248L247.884 77.212C247.964 76.668 248.136 76.272 248.4 76.024C248.672 75.768 249.032 75.64 249.48 75.64H250.104V76.6H249.492C249.172 76.6 248.904 76.66 248.688 76.78C248.48 76.892 248.32 77.064 248.208 77.296C248.104 77.52 248.052 77.808 248.052 78.16V82H247.044Z" fill="#757575"/>
<path d="M282.831 82.192C282.175 82.192 281.603 82.068 281.115 81.82C280.627 81.572 280.239 81.232 279.951 80.8C279.671 80.36 279.507 79.852 279.459 79.276L280.539 79.204C280.595 79.628 280.719 79.988 280.911 80.284C281.103 80.58 281.359 80.804 281.679 80.956C282.007 81.108 282.399 81.184 282.855 81.184C283.255 81.184 283.595 81.132 283.875 81.028C284.155 80.924 284.367 80.772 284.511 80.572C284.663 80.372 284.739 80.128 284.739 79.84C284.739 79.576 284.675 79.344 284.547 79.144C284.427 78.936 284.191 78.748 283.839 78.58C283.495 78.404 282.983 78.232 282.303 78.064C281.647 77.896 281.123 77.712 280.731 77.512C280.347 77.312 280.067 77.068 279.891 76.78C279.723 76.492 279.639 76.136 279.639 75.712C279.639 75.232 279.751 74.812 279.975 74.452C280.207 74.084 280.535 73.8 280.959 73.6C281.383 73.392 281.887 73.288 282.471 73.288C283.095 73.288 283.631 73.408 284.079 73.648C284.527 73.88 284.883 74.2 285.147 74.608C285.411 75.016 285.575 75.48 285.639 76L284.559 76.072C284.511 75.728 284.399 75.424 284.223 75.16C284.055 74.888 283.823 74.676 283.527 74.524C283.231 74.372 282.871 74.296 282.447 74.296C281.919 74.296 281.499 74.424 281.187 74.68C280.875 74.928 280.719 75.256 280.719 75.664C280.719 75.928 280.779 76.148 280.899 76.324C281.027 76.492 281.251 76.644 281.571 76.78C281.891 76.908 282.351 77.048 282.951 77.2C283.663 77.376 284.227 77.588 284.643 77.836C285.067 78.076 285.367 78.356 285.543 78.676C285.727 78.996 285.819 79.36 285.819 79.768C285.819 80.264 285.691 80.696 285.435 81.064C285.179 81.424 284.827 81.704 284.379 81.904C283.931 82.096 283.415 82.192 282.831 82.192ZM289.268 82.144C288.612 82.144 288.088 81.992 287.696 81.688C287.312 81.384 287.12 80.96 287.12 80.416C287.12 79.872 287.28 79.444 287.6 79.132C287.92 78.82 288.428 78.6 289.124 78.472L291.38 78.052C291.38 77.516 291.252 77.116 290.996 76.852C290.748 76.588 290.372 76.456 289.868 76.456C289.428 76.456 289.08 76.556 288.824 76.756C288.568 76.948 288.392 77.228 288.296 77.596L287.228 77.512C287.348 76.912 287.636 76.428 288.092 76.06C288.556 75.684 289.148 75.496 289.868 75.496C290.684 75.496 291.308 75.728 291.74 76.192C292.172 76.648 292.388 77.28 292.388 78.088V80.716C292.388 80.86 292.412 80.964 292.46 81.028C292.516 81.084 292.604 81.112 292.724 81.112H292.976V82C292.944 82.008 292.892 82.012 292.82 82.012C292.748 82.02 292.672 82.024 292.592 82.024C292.304 82.024 292.068 81.98 291.884 81.892C291.708 81.796 291.58 81.652 291.5 81.46C291.42 81.26 291.38 81 291.38 80.68L291.5 80.704C291.444 80.976 291.308 81.224 291.092 81.448C290.876 81.664 290.608 81.836 290.288 81.964C289.968 82.084 289.628 82.144 289.268 82.144ZM289.364 81.256C289.788 81.256 290.148 81.176 290.444 81.016C290.748 80.848 290.98 80.624 291.14 80.344C291.3 80.056 291.38 79.736 291.38 79.384V78.928L289.316 79.312C288.884 79.392 288.584 79.516 288.416 79.684C288.256 79.844 288.176 80.056 288.176 80.32C288.176 80.616 288.28 80.848 288.488 81.016C288.704 81.176 288.996 81.256 289.364 81.256Z" fill="#757575"/>
<path d="M31.4311 278V276.977L35.272 272.773C35.7228 272.28 36.094 271.852 36.3857 271.489C36.6773 271.121 36.8932 270.777 37.0334 270.455C37.1773 270.129 37.2493 269.788 37.2493 269.432C37.2493 269.023 37.1508 268.669 36.9538 268.369C36.7607 268.07 36.4955 267.839 36.1584 267.676C35.8213 267.513 35.4425 267.432 35.022 267.432C34.575 267.432 34.1849 267.525 33.8516 267.71C33.522 267.892 33.2663 268.148 33.0845 268.477C32.9065 268.807 32.8175 269.193 32.8175 269.636H31.4766C31.4766 268.955 31.6338 268.356 31.9482 267.841C32.2625 267.326 32.6906 266.924 33.2322 266.636C33.7777 266.348 34.3894 266.205 35.0675 266.205C35.7493 266.205 36.3535 266.348 36.88 266.636C37.4065 266.924 37.8194 267.312 38.1186 267.801C38.4179 268.29 38.5675 268.833 38.5675 269.432C38.5675 269.86 38.4898 270.278 38.3345 270.688C38.183 271.093 37.9179 271.545 37.5391 272.045C37.1641 272.542 36.6432 273.148 35.9766 273.864L33.3629 276.659V276.75H38.772V278H31.4311ZM44.8459 278.159C44.0656 278.159 43.3762 278.021 42.7777 277.744C42.183 277.464 41.719 277.08 41.3857 276.591C41.0523 276.098 40.8875 275.538 40.8913 274.909C40.8875 274.417 40.9841 273.962 41.1811 273.545C41.3781 273.125 41.647 272.775 41.9879 272.494C42.3326 272.21 42.7171 272.03 43.1413 271.955V271.886C42.5845 271.742 42.1413 271.43 41.8118 270.949C41.4822 270.464 41.3194 269.913 41.3232 269.295C41.3194 268.705 41.469 268.176 41.772 267.71C42.075 267.244 42.4917 266.877 43.022 266.608C43.5561 266.339 44.1641 266.205 44.8459 266.205C45.5201 266.205 46.1224 266.339 46.6527 266.608C47.183 266.877 47.5997 267.244 47.9027 267.71C48.2095 268.176 48.3648 268.705 48.3686 269.295C48.3648 269.913 48.1963 270.464 47.8629 270.949C47.5334 271.43 47.0959 271.742 46.5504 271.886V271.955C46.9709 272.03 47.3497 272.21 47.6868 272.494C48.0239 272.775 48.2929 273.125 48.4936 273.545C48.6944 273.962 48.7966 274.417 48.8004 274.909C48.7966 275.538 48.6262 276.098 48.2891 276.591C47.9557 277.08 47.4917 277.464 46.897 277.744C46.3061 278.021 45.6224 278.159 44.8459 278.159ZM44.8459 276.909C45.3724 276.909 45.8269 276.824 46.2095 276.653C46.5921 276.483 46.8875 276.242 47.0959 275.932C47.3042 275.621 47.4103 275.258 47.4141 274.841C47.4103 274.402 47.2966 274.013 47.0732 273.676C46.8497 273.339 46.5447 273.074 46.1584 272.881C45.7758 272.687 45.3383 272.591 44.8459 272.591C44.3497 272.591 43.9065 272.687 43.5163 272.881C43.13 273.074 42.825 273.339 42.6016 273.676C42.3819 274.013 42.2739 274.402 42.2777 274.841C42.2739 275.258 42.3743 275.621 42.5788 275.932C42.7872 276.242 43.0845 276.483 43.4709 276.653C43.8572 276.824 44.3156 276.909 44.8459 276.909ZM44.8459 271.386C45.2625 271.386 45.6319 271.303 45.9538 271.136C46.2796 270.97 46.5353 270.737 46.7209 270.438C46.9065 270.138 47.0012 269.788 47.005 269.386C47.0012 268.992 46.9084 268.65 46.7266 268.358C46.5447 268.062 46.2929 267.835 45.9709 267.676C45.6489 267.513 45.2739 267.432 44.8459 267.432C44.4103 267.432 44.0296 267.513 43.7038 267.676C43.3781 267.835 43.1262 268.062 42.9482 268.358C42.7701 268.65 42.683 268.992 42.6868 269.386C42.683 269.788 42.772 270.138 42.9538 270.438C43.1394 270.737 43.3951 270.97 43.7209 271.136C44.0466 271.303 44.4216 271.386 44.8459 271.386Z" fill="#1E1E1E"/>
<path d="M72.3686 278V276.977L76.2095 272.773C76.6603 272.28 77.0315 271.852 77.3232 271.489C77.6148 271.121 77.8307 270.777 77.9709 270.455C78.1148 270.129 78.1868 269.788 78.1868 269.432C78.1868 269.023 78.0883 268.669 77.8913 268.369C77.6982 268.07 77.433 267.839 77.0959 267.676C76.7588 267.513 76.38 267.432 75.9595 267.432C75.5125 267.432 75.1224 267.525 74.7891 267.71C74.4595 267.892 74.2038 268.148 74.022 268.477C73.844 268.807 73.755 269.193 73.755 269.636H72.4141C72.4141 268.955 72.5713 268.356 72.8857 267.841C73.2 267.326 73.6281 266.924 74.1697 266.636C74.7152 266.348 75.3269 266.205 76.005 266.205C76.6868 266.205 77.291 266.348 77.8175 266.636C78.344 266.924 78.7569 267.312 79.0561 267.801C79.3554 268.29 79.505 268.833 79.505 269.432C79.505 269.86 79.4273 270.278 79.272 270.688C79.1205 271.093 78.8554 271.545 78.4766 272.045C78.1016 272.542 77.5807 273.148 76.9141 273.864L74.3004 276.659V276.75H79.7095V278H72.3686ZM85.7607 266.205C86.2379 266.208 86.7152 266.299 87.1925 266.477C87.6697 266.655 88.1054 266.951 88.4993 267.364C88.8932 267.773 89.2095 268.331 89.4482 269.04C89.6868 269.748 89.8061 270.636 89.8061 271.705C89.8061 272.739 89.7076 273.657 89.5107 274.46C89.3175 275.259 89.0372 275.934 88.6697 276.483C88.3061 277.032 87.8629 277.449 87.3402 277.733C86.8213 278.017 86.2341 278.159 85.5788 278.159C84.9273 278.159 84.3459 278.03 83.8345 277.773C83.3269 277.511 82.9103 277.15 82.5845 276.688C82.2625 276.222 82.0561 275.682 81.9652 275.068H83.3516C83.4766 275.602 83.7247 276.044 84.0959 276.392C84.4709 276.737 84.9652 276.909 85.5788 276.909C86.4766 276.909 87.1849 276.517 87.7038 275.733C88.2266 274.949 88.4879 273.841 88.4879 272.409H88.397C88.1849 272.727 87.933 273.002 87.6413 273.233C87.3497 273.464 87.0258 273.642 86.6697 273.767C86.3137 273.892 85.9349 273.955 85.5334 273.955C84.8667 273.955 84.255 273.79 83.6982 273.46C83.1451 273.127 82.7019 272.67 82.3686 272.091C82.0391 271.508 81.8743 270.841 81.8743 270.091C81.8743 269.379 82.0334 268.727 82.3516 268.136C82.6735 267.542 83.1243 267.068 83.7038 266.716C84.2872 266.364 84.9728 266.193 85.7607 266.205ZM85.7607 267.455C85.2834 267.455 84.8535 267.574 84.4709 267.812C84.0921 268.047 83.791 268.366 83.5675 268.767C83.3478 269.165 83.2379 269.606 83.2379 270.091C83.2379 270.576 83.344 271.017 83.5561 271.415C83.772 271.809 84.0656 272.123 84.4368 272.358C84.8118 272.589 85.2379 272.705 85.7152 272.705C86.075 272.705 86.4103 272.634 86.7209 272.494C87.0315 272.35 87.3023 272.155 87.5334 271.909C87.7682 271.659 87.9519 271.377 88.0845 271.062C88.2171 270.744 88.2834 270.413 88.2834 270.068C88.2834 269.614 88.1735 269.187 87.9538 268.79C87.7379 268.392 87.4387 268.07 87.0561 267.824C86.6773 267.578 86.2455 267.455 85.7607 267.455Z" fill="#1E1E1E"/>
<path d="M117.043 278.159C116.293 278.159 115.624 278.03 115.037 277.773C114.454 277.515 113.99 277.157 113.645 276.699C113.304 276.237 113.118 275.701 113.088 275.091H114.52C114.55 275.466 114.679 275.79 114.906 276.062C115.134 276.331 115.431 276.54 115.798 276.688C116.166 276.835 116.573 276.909 117.02 276.909C117.52 276.909 117.963 276.822 118.349 276.648C118.736 276.473 119.039 276.231 119.259 275.92C119.478 275.61 119.588 275.25 119.588 274.841C119.588 274.413 119.482 274.036 119.27 273.71C119.058 273.381 118.747 273.123 118.338 272.938C117.929 272.752 117.429 272.659 116.838 272.659H115.906V271.409H116.838C117.3 271.409 117.705 271.326 118.054 271.159C118.406 270.992 118.681 270.758 118.878 270.455C119.079 270.152 119.179 269.795 119.179 269.386C119.179 268.992 119.092 268.65 118.918 268.358C118.743 268.066 118.497 267.839 118.179 267.676C117.865 267.513 117.493 267.432 117.065 267.432C116.664 267.432 116.285 267.506 115.929 267.653C115.577 267.797 115.289 268.008 115.065 268.284C114.842 268.557 114.721 268.886 114.702 269.273H113.338C113.361 268.663 113.545 268.129 113.889 267.67C114.234 267.208 114.685 266.848 115.241 266.591C115.802 266.333 116.418 266.205 117.088 266.205C117.808 266.205 118.425 266.35 118.94 266.642C119.455 266.93 119.851 267.311 120.128 267.784C120.404 268.258 120.543 268.769 120.543 269.318C120.543 269.973 120.37 270.532 120.026 270.994C119.685 271.456 119.221 271.777 118.634 271.955V272.045C119.368 272.167 119.942 272.479 120.355 272.983C120.768 273.483 120.974 274.102 120.974 274.841C120.974 275.473 120.802 276.042 120.457 276.545C120.116 277.045 119.651 277.439 119.06 277.727C118.469 278.015 117.796 278.159 117.043 278.159ZM127.094 278.159C126.238 278.159 125.509 277.926 124.906 277.46C124.304 276.991 123.844 276.311 123.526 275.42C123.207 274.527 123.048 273.447 123.048 272.182C123.048 270.924 123.207 269.85 123.526 268.96C123.848 268.066 124.31 267.384 124.912 266.915C125.518 266.441 126.245 266.205 127.094 266.205C127.942 266.205 128.668 266.441 129.27 266.915C129.876 267.384 130.338 268.066 130.656 268.96C130.978 269.85 131.139 270.924 131.139 272.182C131.139 273.447 130.98 274.527 130.662 275.42C130.344 276.311 129.884 276.991 129.281 277.46C128.679 277.926 127.95 278.159 127.094 278.159ZM127.094 276.909C127.942 276.909 128.601 276.5 129.071 275.682C129.541 274.864 129.776 273.697 129.776 272.182C129.776 271.174 129.668 270.316 129.452 269.608C129.24 268.9 128.933 268.36 128.531 267.989C128.134 267.617 127.654 267.432 127.094 267.432C126.253 267.432 125.596 267.847 125.122 268.676C124.649 269.502 124.412 270.67 124.412 272.182C124.412 273.189 124.518 274.045 124.73 274.75C124.942 275.455 125.247 275.991 125.645 276.358C126.046 276.725 126.529 276.909 127.094 276.909Z" fill="#1E1E1E"/>
<path d="M164.577 266.364V278H163.168V267.841H163.099L160.259 269.727V268.295L163.168 266.364H164.577Z" fill="#B3B3B3"/>
<path d="M200.361 278V276.977L204.202 272.773C204.652 272.28 205.024 271.852 205.315 271.489C205.607 271.121 205.823 270.777 205.963 270.455C206.107 270.129 206.179 269.788 206.179 269.432C206.179 269.023 206.08 268.669 205.884 268.369C205.69 268.07 205.425 267.839 205.088 267.676C204.751 267.513 204.372 267.432 203.952 267.432C203.505 267.432 203.115 267.525 202.781 267.71C202.452 267.892 202.196 268.148 202.014 268.477C201.836 268.807 201.747 269.193 201.747 269.636H200.406C200.406 268.955 200.563 268.356 200.878 267.841C201.192 267.326 201.62 266.924 202.162 266.636C202.707 266.348 203.319 266.205 203.997 266.205C204.679 266.205 205.283 266.348 205.81 266.636C206.336 266.924 206.749 267.312 207.048 267.801C207.348 268.29 207.497 268.833 207.497 269.432C207.497 269.86 207.42 270.278 207.264 270.688C207.113 271.093 206.848 271.545 206.469 272.045C206.094 272.542 205.573 273.148 204.906 273.864L202.293 276.659V276.75H207.702V278H200.361Z" fill="#B3B3B3"/>
<path d="M245.043 278.159C244.293 278.159 243.624 278.03 243.037 277.773C242.454 277.515 241.99 277.157 241.645 276.699C241.304 276.237 241.118 275.701 241.088 275.091H242.52C242.55 275.466 242.679 275.79 242.906 276.062C243.134 276.331 243.431 276.54 243.798 276.688C244.166 276.835 244.573 276.909 245.02 276.909C245.52 276.909 245.963 276.822 246.349 276.648C246.736 276.473 247.039 276.231 247.259 275.92C247.478 275.61 247.588 275.25 247.588 274.841C247.588 274.413 247.482 274.036 247.27 273.71C247.058 273.381 246.747 273.123 246.338 272.938C245.929 272.752 245.429 272.659 244.838 272.659H243.906V271.409H244.838C245.3 271.409 245.705 271.326 246.054 271.159C246.406 270.992 246.681 270.758 246.878 270.455C247.079 270.152 247.179 269.795 247.179 269.386C247.179 268.992 247.092 268.65 246.918 268.358C246.743 268.066 246.497 267.839 246.179 267.676C245.865 267.513 245.493 267.432 245.065 267.432C244.664 267.432 244.285 267.506 243.929 267.653C243.577 267.797 243.289 268.008 243.065 268.284C242.842 268.557 242.721 268.886 242.702 269.273H241.338C241.361 268.663 241.545 268.129 241.889 267.67C242.234 267.208 242.685 266.848 243.241 266.591C243.802 266.333 244.418 266.205 245.088 266.205C245.808 266.205 246.425 266.35 246.94 266.642C247.455 266.93 247.851 267.311 248.128 267.784C248.404 268.258 248.543 268.769 248.543 269.318C248.543 269.973 248.37 270.532 248.026 270.994C247.685 271.456 247.221 271.777 246.634 271.955V272.045C247.368 272.167 247.942 272.479 248.355 272.983C248.768 273.483 248.974 274.102 248.974 274.841C248.974 275.473 248.802 276.042 248.457 276.545C248.116 277.045 247.651 277.439 247.06 277.727C246.469 278.015 245.796 278.159 245.043 278.159Z" fill="#B3B3B3"/>
<path d="M281.799 275.614V274.455L286.913 266.364H287.754V268.159H287.185L283.322 274.273V274.364H290.208V275.614H281.799ZM287.276 278V275.261V274.722V266.364H288.617V278H287.276Z" fill="#B3B3B3"/>
<path d="M32.642 237V235.977L36.483 231.773C36.9337 231.28 37.3049 230.852 37.5966 230.489C37.8883 230.121 38.1042 229.777 38.2443 229.455C38.3883 229.129 38.4602 228.788 38.4602 228.432C38.4602 228.023 38.3617 227.669 38.1648 227.369C37.9716 227.07 37.7064 226.839 37.3693 226.676C37.0322 226.513 36.6534 226.432 36.233 226.432C35.786 226.432 35.3958 226.525 35.0625 226.71C34.733 226.892 34.4773 227.148 34.2955 227.477C34.1174 227.807 34.0284 228.193 34.0284 228.636H32.6875C32.6875 227.955 32.8447 227.356 33.1591 226.841C33.4735 226.326 33.9015 225.924 34.4432 225.636C34.9886 225.348 35.6004 225.205 36.2784 225.205C36.9602 225.205 37.5644 225.348 38.0909 225.636C38.6174 225.924 39.0303 226.312 39.3295 226.801C39.6288 227.29 39.7784 227.833 39.7784 228.432C39.7784 228.86 39.7008 229.278 39.5455 229.688C39.3939 230.093 39.1288 230.545 38.75 231.045C38.375 231.542 37.8542 232.148 37.1875 232.864L34.5739 235.659V235.75H39.983V237H32.642ZM46.4205 225.364V237H45.0114V226.841H44.9432L42.1023 228.727V227.295L45.0114 225.364H46.4205Z" fill="#1E1E1E"/>
<path d="M72.517 237V235.977L76.358 231.773C76.8087 231.28 77.1799 230.852 77.4716 230.489C77.7633 230.121 77.9792 229.777 78.1193 229.455C78.2633 229.129 78.3352 228.788 78.3352 228.432C78.3352 228.023 78.2367 227.669 78.0398 227.369C77.8466 227.07 77.5814 226.839 77.2443 226.676C76.9072 226.513 76.5284 226.432 76.108 226.432C75.661 226.432 75.2708 226.525 74.9375 226.71C74.608 226.892 74.3523 227.148 74.1705 227.477C73.9924 227.807 73.9034 228.193 73.9034 228.636H72.5625C72.5625 227.955 72.7197 227.356 73.0341 226.841C73.3485 226.326 73.7765 225.924 74.3182 225.636C74.8636 225.348 75.4754 225.205 76.1534 225.205C76.8352 225.205 77.4394 225.348 77.9659 225.636C78.4924 225.924 78.9053 226.312 79.2045 226.801C79.5038 227.29 79.6534 227.833 79.6534 228.432C79.6534 228.86 79.5758 229.278 79.4205 229.688C79.2689 230.093 79.0038 230.545 78.625 231.045C78.25 231.542 77.7292 232.148 77.0625 232.864L74.4489 235.659V235.75H79.858V237H72.517ZM82.2045 237V235.977L86.0455 231.773C86.4962 231.28 86.8674 230.852 87.1591 230.489C87.4508 230.121 87.6667 229.777 87.8068 229.455C87.9508 229.129 88.0227 228.788 88.0227 228.432C88.0227 228.023 87.9242 227.669 87.7273 227.369C87.5341 227.07 87.2689 226.839 86.9318 226.676C86.5947 226.513 86.2159 226.432 85.7955 226.432C85.3485 226.432 84.9583 226.525 84.625 226.71C84.2955 226.892 84.0398 227.148 83.858 227.477C83.6799 227.807 83.5909 228.193 83.5909 228.636H82.25C82.25 227.955 82.4072 227.356 82.7216 226.841C83.036 226.326 83.464 225.924 84.0057 225.636C84.5511 225.348 85.1629 225.205 85.8409 225.205C86.5227 225.205 87.1269 225.348 87.6534 225.636C88.1799 225.924 88.5928 226.312 88.892 226.801C89.1913 227.29 89.3409 227.833 89.3409 228.432C89.3409 228.86 89.2633 229.278 89.108 229.688C88.9564 230.093 88.6913 230.545 88.3125 231.045C87.9375 231.542 87.4167 232.148 86.75 232.864L84.1364 235.659V235.75H89.5455V237H82.2045Z" fill="#1E1E1E"/>
<path d="M113.267 237V235.977L117.108 231.773C117.559 231.28 117.93 230.852 118.222 230.489C118.513 230.121 118.729 229.777 118.869 229.455C119.013 229.129 119.085 228.788 119.085 228.432C119.085 228.023 118.987 227.669 118.79 227.369C118.597 227.07 118.331 226.839 117.994 226.676C117.657 226.513 117.278 226.432 116.858 226.432C116.411 226.432 116.021 226.525 115.688 226.71C115.358 226.892 115.102 227.148 114.92 227.477C114.742 227.807 114.653 228.193 114.653 228.636H113.312C113.312 227.955 113.47 227.356 113.784 226.841C114.098 226.326 114.527 225.924 115.068 225.636C115.614 225.348 116.225 225.205 116.903 225.205C117.585 225.205 118.189 225.348 118.716 225.636C119.242 225.924 119.655 226.312 119.955 226.801C120.254 227.29 120.403 227.833 120.403 228.432C120.403 228.86 120.326 229.278 120.17 229.688C120.019 230.093 119.754 230.545 119.375 231.045C119 231.542 118.479 232.148 117.812 232.864L115.199 235.659V235.75H120.608V237H113.267ZM126.886 237.159C126.136 237.159 125.468 237.03 124.881 236.773C124.297 236.515 123.833 236.157 123.489 235.699C123.148 235.237 122.962 234.701 122.932 234.091H124.364C124.394 234.466 124.523 234.79 124.75 235.062C124.977 235.331 125.275 235.54 125.642 235.688C126.009 235.835 126.417 235.909 126.864 235.909C127.364 235.909 127.807 235.822 128.193 235.648C128.58 235.473 128.883 235.231 129.102 234.92C129.322 234.61 129.432 234.25 129.432 233.841C129.432 233.413 129.326 233.036 129.114 232.71C128.902 232.381 128.591 232.123 128.182 231.938C127.773 231.752 127.273 231.659 126.682 231.659H125.75V230.409H126.682C127.144 230.409 127.549 230.326 127.898 230.159C128.25 229.992 128.525 229.758 128.722 229.455C128.922 229.152 129.023 228.795 129.023 228.386C129.023 227.992 128.936 227.65 128.761 227.358C128.587 227.066 128.341 226.839 128.023 226.676C127.708 226.513 127.337 226.432 126.909 226.432C126.508 226.432 126.129 226.506 125.773 226.653C125.42 226.797 125.133 227.008 124.909 227.284C124.686 227.557 124.564 227.886 124.545 228.273H123.182C123.205 227.663 123.388 227.129 123.733 226.67C124.078 226.208 124.528 225.848 125.085 225.591C125.646 225.333 126.261 225.205 126.932 225.205C127.652 225.205 128.269 225.35 128.784 225.642C129.299 225.93 129.695 226.311 129.972 226.784C130.248 227.258 130.386 227.769 130.386 228.318C130.386 228.973 130.214 229.532 129.869 229.994C129.528 230.456 129.064 230.777 128.477 230.955V231.045C129.212 231.167 129.786 231.479 130.199 231.983C130.612 232.483 130.818 233.102 130.818 233.841C130.818 234.473 130.646 235.042 130.301 235.545C129.96 236.045 129.494 236.439 128.903 236.727C128.313 237.015 127.64 237.159 126.886 237.159Z" fill="#1E1E1E"/>
<path d="M154.353 237V235.977L158.194 231.773C158.645 231.28 159.016 230.852 159.308 230.489C159.599 230.121 159.815 229.777 159.955 229.455C160.099 229.129 160.171 228.788 160.171 228.432C160.171 228.023 160.073 227.669 159.876 227.369C159.683 227.07 159.417 226.839 159.08 226.676C158.743 226.513 158.364 226.432 157.944 226.432C157.497 226.432 157.107 226.525 156.773 226.71C156.444 226.892 156.188 227.148 156.006 227.477C155.828 227.807 155.739 228.193 155.739 228.636H154.398C154.398 227.955 154.556 227.356 154.87 226.841C155.184 226.326 155.612 225.924 156.154 225.636C156.7 225.348 157.311 225.205 157.989 225.205C158.671 225.205 159.275 225.348 159.802 225.636C160.328 225.924 160.741 226.312 161.04 226.801C161.34 227.29 161.489 227.833 161.489 228.432C161.489 228.86 161.412 229.278 161.256 229.688C161.105 230.093 160.84 230.545 160.461 231.045C160.086 231.542 159.565 232.148 158.898 232.864L156.285 235.659V235.75H161.694V237H154.353ZM163.518 234.614V233.455L168.631 225.364H169.472V227.159H168.904L165.04 233.273V233.364H171.927V234.614H163.518ZM168.995 237V234.261V233.722V225.364H170.336V237H168.995Z" fill="#1E1E1E"/>
<path d="M195.494 237V235.977L199.335 231.773C199.785 231.28 200.156 230.852 200.448 230.489C200.74 230.121 200.956 229.777 201.096 229.455C201.24 229.129 201.312 228.788 201.312 228.432C201.312 228.023 201.213 227.669 201.016 227.369C200.823 227.07 200.558 226.839 200.221 226.676C199.884 226.513 199.505 226.432 199.085 226.432C198.638 226.432 198.247 226.525 197.914 226.71C197.585 226.892 197.329 227.148 197.147 227.477C196.969 227.807 196.88 228.193 196.88 228.636H195.539C195.539 227.955 195.696 227.356 196.011 226.841C196.325 226.326 196.753 225.924 197.295 225.636C197.84 225.348 198.452 225.205 199.13 225.205C199.812 225.205 200.416 225.348 200.942 225.636C201.469 225.924 201.882 226.312 202.181 226.801C202.48 227.29 202.63 227.833 202.63 228.432C202.63 228.86 202.552 229.278 202.397 229.688C202.246 230.093 201.98 230.545 201.602 231.045C201.227 231.542 200.706 232.148 200.039 232.864L197.425 235.659V235.75H202.835V237H195.494ZM208.817 237.159C208.151 237.159 207.55 237.027 207.016 236.761C206.482 236.496 206.054 236.133 205.732 235.67C205.41 235.208 205.234 234.682 205.204 234.091H206.567C206.621 234.617 206.859 235.053 207.283 235.398C207.711 235.739 208.223 235.909 208.817 235.909C209.295 235.909 209.719 235.797 210.09 235.574C210.465 235.35 210.759 235.044 210.971 234.653C211.187 234.259 211.295 233.814 211.295 233.318C211.295 232.811 211.183 232.358 210.96 231.96C210.74 231.559 210.437 231.242 210.05 231.011C209.664 230.78 209.223 230.663 208.727 230.659C208.371 230.655 208.005 230.71 207.63 230.824C207.255 230.934 206.946 231.076 206.704 231.25L205.386 231.091L206.09 225.364H212.136V226.614H207.272L206.863 230.045H206.931C207.17 229.856 207.469 229.699 207.829 229.574C208.189 229.449 208.564 229.386 208.954 229.386C209.666 229.386 210.3 229.557 210.857 229.898C211.418 230.235 211.857 230.697 212.175 231.284C212.497 231.871 212.658 232.542 212.658 233.295C212.658 234.038 212.492 234.701 212.158 235.284C211.829 235.864 211.374 236.322 210.795 236.659C210.215 236.992 209.556 237.159 208.817 237.159Z" fill="#1E1E1E"/>
<path d="M236.369 237V235.977L240.21 231.773C240.66 231.28 241.031 230.852 241.323 230.489C241.615 230.121 241.831 229.777 241.971 229.455C242.115 229.129 242.187 228.788 242.187 228.432C242.187 228.023 242.088 227.669 241.891 227.369C241.698 227.07 241.433 226.839 241.096 226.676C240.759 226.513 240.38 226.432 239.96 226.432C239.513 226.432 239.122 226.525 238.789 226.71C238.46 226.892 238.204 227.148 238.022 227.477C237.844 227.807 237.755 228.193 237.755 228.636H236.414C236.414 227.955 236.571 227.356 236.886 226.841C237.2 226.326 237.628 225.924 238.17 225.636C238.715 225.348 239.327 225.205 240.005 225.205C240.687 225.205 241.291 225.348 241.817 225.636C242.344 225.924 242.757 226.312 243.056 226.801C243.355 227.29 243.505 227.833 243.505 228.432C243.505 228.86 243.427 229.278 243.272 229.688C243.121 230.093 242.855 230.545 242.477 231.045C242.102 231.542 241.581 232.148 240.914 232.864L238.3 235.659V235.75H243.71V237H236.369ZM249.92 237.159C249.442 237.152 248.965 237.061 248.488 236.886C248.011 236.712 247.575 236.419 247.181 236.006C246.787 235.589 246.471 235.027 246.232 234.318C245.994 233.606 245.874 232.712 245.874 231.636C245.874 230.606 245.971 229.693 246.164 228.898C246.357 228.098 246.638 227.426 247.005 226.881C247.372 226.331 247.816 225.915 248.335 225.631C248.857 225.347 249.446 225.205 250.102 225.205C250.753 225.205 251.333 225.335 251.84 225.597C252.352 225.854 252.768 226.214 253.09 226.676C253.412 227.138 253.621 227.67 253.715 228.273H252.329C252.2 227.75 251.95 227.316 251.579 226.972C251.208 226.627 250.715 226.455 250.102 226.455C249.2 226.455 248.49 226.847 247.971 227.631C247.456 228.415 247.196 229.515 247.192 230.932H247.283C247.496 230.61 247.747 230.335 248.039 230.108C248.335 229.877 248.66 229.699 249.016 229.574C249.372 229.449 249.749 229.386 250.147 229.386C250.814 229.386 251.424 229.553 251.977 229.886C252.53 230.216 252.973 230.672 253.306 231.256C253.639 231.835 253.806 232.5 253.806 233.25C253.806 233.97 253.645 234.629 253.323 235.227C253.001 235.822 252.549 236.295 251.965 236.648C251.386 236.996 250.704 237.167 249.92 237.159ZM249.92 235.909C250.397 235.909 250.825 235.79 251.204 235.551C251.586 235.312 251.888 234.992 252.107 234.591C252.331 234.189 252.442 233.742 252.442 233.25C252.442 232.769 252.335 232.331 252.119 231.938C251.906 231.54 251.613 231.223 251.238 230.989C250.867 230.754 250.442 230.636 249.965 230.636C249.605 230.636 249.27 230.708 248.96 230.852C248.649 230.992 248.376 231.186 248.141 231.432C247.91 231.678 247.728 231.96 247.596 232.278C247.463 232.593 247.397 232.924 247.397 233.273C247.397 233.735 247.505 234.167 247.721 234.568C247.941 234.97 248.24 235.294 248.619 235.54C249.001 235.786 249.435 235.909 249.92 235.909Z" fill="#1E1E1E"/>
<path d="M277.79 237V235.977L281.631 231.773C282.082 231.28 282.453 230.852 282.745 230.489C283.037 230.121 283.253 229.777 283.393 229.455C283.537 229.129 283.609 228.788 283.609 228.432C283.609 228.023 283.51 227.669 283.313 227.369C283.12 227.07 282.855 226.839 282.518 226.676C282.181 226.513 281.802 226.432 281.381 226.432C280.934 226.432 280.544 226.525 280.211 226.71C279.881 226.892 279.626 227.148 279.444 227.477C279.266 227.807 279.177 228.193 279.177 228.636H277.836C277.836 227.955 277.993 227.356 278.308 226.841C278.622 226.326 279.05 225.924 279.592 225.636C280.137 225.348 280.749 225.205 281.427 225.205C282.109 225.205 282.713 225.348 283.239 225.636C283.766 225.924 284.179 226.312 284.478 226.801C284.777 227.29 284.927 227.833 284.927 228.432C284.927 228.86 284.849 229.278 284.694 229.688C284.542 230.093 284.277 230.545 283.898 231.045C283.523 231.542 283.003 232.148 282.336 232.864L279.722 235.659V235.75H285.131V237H277.79ZM287.842 237L293.046 226.705V226.614H287.046V225.364H294.501V226.682L289.319 237H287.842Z" fill="#1E1E1E"/>
<path d="M36.4439 184.364V196H35.0348V185.841H34.9666L32.1257 187.727V186.295L35.0348 184.364H36.4439ZM39.5178 193.614V192.455L44.6314 184.364H45.4723V186.159H44.9041L41.0405 192.273V192.364H47.9268V193.614H39.5178ZM44.995 196V193.261V192.722V184.364H46.3359V196H44.995Z" fill="#1E1E1E"/>
<path d="M77.7095 184.364V196H76.3004V185.841H76.2322L73.3913 187.727V186.295L76.3004 184.364H77.7095ZM84.6925 196.159C84.0258 196.159 83.4254 196.027 82.8913 195.761C82.3572 195.496 81.9292 195.133 81.6072 194.67C81.2853 194.208 81.1091 193.682 81.0788 193.091H82.4425C82.4955 193.617 82.7341 194.053 83.1584 194.398C83.5864 194.739 84.0978 194.909 84.6925 194.909C85.1697 194.909 85.594 194.797 85.9652 194.574C86.3402 194.35 86.6338 194.044 86.8459 193.653C87.0618 193.259 87.1697 192.814 87.1697 192.318C87.1697 191.811 87.058 191.358 86.8345 190.96C86.6148 190.559 86.3118 190.242 85.9254 190.011C85.5391 189.78 85.0978 189.663 84.6016 189.659C84.2455 189.655 83.88 189.71 83.505 189.824C83.13 189.934 82.8213 190.076 82.5788 190.25L81.2607 190.091L81.9652 184.364H88.0107V185.614H83.147L82.7379 189.045H82.8061C83.0447 188.856 83.344 188.699 83.7038 188.574C84.0637 188.449 84.4387 188.386 84.8288 188.386C85.541 188.386 86.1754 188.557 86.7322 188.898C87.2929 189.235 87.7322 189.697 88.0504 190.284C88.3724 190.871 88.5334 191.542 88.5334 192.295C88.5334 193.038 88.3667 193.701 88.0334 194.284C87.7038 194.864 87.2493 195.322 86.6697 195.659C86.0902 195.992 85.4311 196.159 84.6925 196.159Z" fill="#1E1E1E"/>
<path d="M118.585 184.364V196H117.175V185.841H117.107L114.266 187.727V186.295L117.175 184.364H118.585ZM125.795 196.159C125.317 196.152 124.84 196.061 124.363 195.886C123.886 195.712 123.45 195.419 123.056 195.006C122.662 194.589 122.346 194.027 122.107 193.318C121.869 192.606 121.749 191.712 121.749 190.636C121.749 189.606 121.846 188.693 122.039 187.898C122.232 187.098 122.513 186.426 122.88 185.881C123.247 185.331 123.691 184.915 124.21 184.631C124.732 184.347 125.321 184.205 125.977 184.205C126.628 184.205 127.208 184.335 127.715 184.597C128.227 184.854 128.643 185.214 128.965 185.676C129.287 186.138 129.496 186.67 129.59 187.273H128.204C128.075 186.75 127.825 186.316 127.454 185.972C127.083 185.627 126.59 185.455 125.977 185.455C125.075 185.455 124.365 185.847 123.846 186.631C123.331 187.415 123.071 188.515 123.067 189.932H123.158C123.371 189.61 123.622 189.335 123.914 189.108C124.21 188.877 124.535 188.699 124.891 188.574C125.247 188.449 125.624 188.386 126.022 188.386C126.689 188.386 127.299 188.553 127.852 188.886C128.405 189.216 128.848 189.672 129.181 190.256C129.514 190.835 129.681 191.5 129.681 192.25C129.681 192.97 129.52 193.629 129.198 194.227C128.876 194.822 128.424 195.295 127.84 195.648C127.261 195.996 126.579 196.167 125.795 196.159ZM125.795 194.909C126.272 194.909 126.7 194.79 127.079 194.551C127.461 194.312 127.763 193.992 127.982 193.591C128.206 193.189 128.317 192.742 128.317 192.25C128.317 191.769 128.21 191.331 127.994 190.938C127.781 190.54 127.488 190.223 127.113 189.989C126.742 189.754 126.317 189.636 125.84 189.636C125.48 189.636 125.145 189.708 124.835 189.852C124.524 189.992 124.251 190.186 124.016 190.432C123.785 190.678 123.603 190.96 123.471 191.278C123.338 191.593 123.272 191.924 123.272 192.273C123.272 192.735 123.38 193.167 123.596 193.568C123.816 193.97 124.115 194.294 124.494 194.54C124.876 194.786 125.31 194.909 125.795 194.909Z" fill="#1E1E1E"/>
<path d="M160.006 184.364V196H158.597V185.841H158.529L155.688 187.727V186.295L158.597 184.364H160.006ZM163.717 196L168.921 185.705V185.614H162.921V184.364H170.376V185.682L165.194 196H163.717Z" fill="#1E1E1E"/>
<path d="M200.647 184.364V196H199.238V185.841H199.17L196.329 187.727V186.295L199.238 184.364H200.647ZM207.721 196.159C206.941 196.159 206.251 196.021 205.653 195.744C205.058 195.464 204.594 195.08 204.261 194.591C203.927 194.098 203.763 193.538 203.766 192.909C203.763 192.417 203.859 191.962 204.056 191.545C204.253 191.125 204.522 190.775 204.863 190.494C205.208 190.21 205.592 190.03 206.016 189.955V189.886C205.46 189.742 205.016 189.43 204.687 188.949C204.357 188.464 204.194 187.913 204.198 187.295C204.194 186.705 204.344 186.176 204.647 185.71C204.95 185.244 205.367 184.877 205.897 184.608C206.431 184.339 207.039 184.205 207.721 184.205C208.395 184.205 208.997 184.339 209.528 184.608C210.058 184.877 210.475 185.244 210.778 185.71C211.085 186.176 211.24 186.705 211.244 187.295C211.24 187.913 211.071 188.464 210.738 188.949C210.408 189.43 209.971 189.742 209.425 189.886V189.955C209.846 190.03 210.225 190.21 210.562 190.494C210.899 190.775 211.168 191.125 211.369 191.545C211.569 191.962 211.672 192.417 211.675 192.909C211.672 193.538 211.501 194.098 211.164 194.591C210.831 195.08 210.367 195.464 209.772 195.744C209.181 196.021 208.497 196.159 207.721 196.159ZM207.721 194.909C208.247 194.909 208.702 194.824 209.085 194.653C209.467 194.483 209.763 194.242 209.971 193.932C210.179 193.621 210.285 193.258 210.289 192.841C210.285 192.402 210.172 192.013 209.948 191.676C209.725 191.339 209.42 191.074 209.033 190.881C208.651 190.687 208.213 190.591 207.721 190.591C207.225 190.591 206.781 190.687 206.391 190.881C206.005 191.074 205.7 191.339 205.477 191.676C205.257 192.013 205.149 192.402 205.153 192.841C205.149 193.258 205.249 193.621 205.454 193.932C205.662 194.242 205.96 194.483 206.346 194.653C206.732 194.824 207.191 194.909 207.721 194.909ZM207.721 189.386C208.138 189.386 208.507 189.303 208.829 189.136C209.155 188.97 209.41 188.737 209.596 188.438C209.781 188.138 209.876 187.788 209.88 187.386C209.876 186.992 209.783 186.65 209.602 186.358C209.42 186.062 209.168 185.835 208.846 185.676C208.524 185.513 208.149 185.432 207.721 185.432C207.285 185.432 206.905 185.513 206.579 185.676C206.253 185.835 206.001 186.062 205.823 186.358C205.645 186.65 205.558 186.992 205.562 187.386C205.558 187.788 205.647 188.138 205.829 188.438C206.014 188.737 206.27 188.97 206.596 189.136C206.922 189.303 207.297 189.386 207.721 189.386Z" fill="#1E1E1E"/>
<path d="M241.585 184.364V196H240.175V185.841H240.107L237.266 187.727V186.295L240.175 184.364H241.585ZM248.636 184.205C249.113 184.208 249.59 184.299 250.067 184.477C250.545 184.655 250.98 184.951 251.374 185.364C251.768 185.773 252.085 186.331 252.323 187.04C252.562 187.748 252.681 188.636 252.681 189.705C252.681 190.739 252.583 191.657 252.386 192.46C252.192 193.259 251.912 193.934 251.545 194.483C251.181 195.032 250.738 195.449 250.215 195.733C249.696 196.017 249.109 196.159 248.454 196.159C247.802 196.159 247.221 196.03 246.71 195.773C246.202 195.511 245.785 195.15 245.46 194.688C245.138 194.222 244.931 193.682 244.84 193.068H246.227C246.352 193.602 246.6 194.044 246.971 194.392C247.346 194.737 247.84 194.909 248.454 194.909C249.352 194.909 250.06 194.517 250.579 193.733C251.102 192.949 251.363 191.841 251.363 190.409H251.272C251.06 190.727 250.808 191.002 250.516 191.233C250.225 191.464 249.901 191.642 249.545 191.767C249.189 191.892 248.81 191.955 248.408 191.955C247.742 191.955 247.13 191.79 246.573 191.46C246.02 191.127 245.577 190.67 245.244 190.091C244.914 189.508 244.749 188.841 244.749 188.091C244.749 187.379 244.908 186.727 245.227 186.136C245.549 185.542 245.999 185.068 246.579 184.716C247.162 184.364 247.848 184.193 248.636 184.205ZM248.636 185.455C248.158 185.455 247.728 185.574 247.346 185.812C246.967 186.047 246.666 186.366 246.442 186.767C246.223 187.165 246.113 187.606 246.113 188.091C246.113 188.576 246.219 189.017 246.431 189.415C246.647 189.809 246.941 190.123 247.312 190.358C247.687 190.589 248.113 190.705 248.59 190.705C248.95 190.705 249.285 190.634 249.596 190.494C249.906 190.35 250.177 190.155 250.408 189.909C250.643 189.659 250.827 189.377 250.96 189.062C251.092 188.744 251.158 188.413 251.158 188.068C251.158 187.614 251.049 187.187 250.829 186.79C250.613 186.392 250.314 186.07 249.931 185.824C249.552 185.578 249.121 185.455 248.636 185.455Z" fill="#1E1E1E"/>
<path d="M277.361 196V194.977L281.202 190.773C281.652 190.28 282.024 189.852 282.315 189.489C282.607 189.121 282.823 188.777 282.963 188.455C283.107 188.129 283.179 187.788 283.179 187.432C283.179 187.023 283.08 186.669 282.884 186.369C282.69 186.07 282.425 185.839 282.088 185.676C281.751 185.513 281.372 185.432 280.952 185.432C280.505 185.432 280.115 185.525 279.781 185.71C279.452 185.892 279.196 186.148 279.014 186.477C278.836 186.807 278.747 187.193 278.747 187.636H277.406C277.406 186.955 277.563 186.356 277.878 185.841C278.192 185.326 278.62 184.924 279.162 184.636C279.707 184.348 280.319 184.205 280.997 184.205C281.679 184.205 282.283 184.348 282.81 184.636C283.336 184.924 283.749 185.312 284.048 185.801C284.348 186.29 284.497 186.833 284.497 187.432C284.497 187.86 284.42 188.278 284.264 188.688C284.113 189.093 283.848 189.545 283.469 190.045C283.094 190.542 282.573 191.148 281.906 191.864L279.293 194.659V194.75H284.702V196H277.361ZM290.844 196.159C289.988 196.159 289.259 195.926 288.656 195.46C288.054 194.991 287.594 194.311 287.276 193.42C286.957 192.527 286.798 191.447 286.798 190.182C286.798 188.924 286.957 187.85 287.276 186.96C287.598 186.066 288.06 185.384 288.662 184.915C289.268 184.441 289.995 184.205 290.844 184.205C291.692 184.205 292.418 184.441 293.02 184.915C293.626 185.384 294.088 186.066 294.406 186.96C294.728 187.85 294.889 188.924 294.889 190.182C294.889 191.447 294.73 192.527 294.412 193.42C294.094 194.311 293.634 194.991 293.031 195.46C292.429 195.926 291.7 196.159 290.844 196.159ZM290.844 194.909C291.692 194.909 292.351 194.5 292.821 193.682C293.291 192.864 293.526 191.697 293.526 190.182C293.526 189.174 293.418 188.316 293.202 187.608C292.99 186.9 292.683 186.36 292.281 185.989C291.884 185.617 291.404 185.432 290.844 185.432C290.003 185.432 289.346 185.847 288.872 186.676C288.399 187.502 288.162 188.67 288.162 190.182C288.162 191.189 288.268 192.045 288.48 192.75C288.692 193.455 288.997 193.991 289.395 194.358C289.796 194.725 290.279 194.909 290.844 194.909Z" fill="#1E1E1E"/>
<path d="M36.9979 155L42.2024 144.705V144.614H36.2024V143.364H43.657V144.682L38.4751 155H36.9979Z" fill="#1E1E1E"/>
<path d="M81.0021 155.159C80.2218 155.159 79.5324 155.021 78.9339 154.744C78.3393 154.464 77.8752 154.08 77.5419 153.591C77.2086 153.098 77.0438 152.538 77.0476 151.909C77.0438 151.417 77.1404 150.962 77.3374 150.545C77.5343 150.125 77.8033 149.775 78.1442 149.494C78.4889 149.21 78.8733 149.03 79.2976 148.955V148.886C78.7408 148.742 78.2976 148.43 77.968 147.949C77.6385 147.464 77.4756 146.913 77.4794 146.295C77.4756 145.705 77.6252 145.176 77.9283 144.71C78.2313 144.244 78.648 143.877 79.1783 143.608C79.7124 143.339 80.3203 143.205 81.0021 143.205C81.6764 143.205 82.2786 143.339 82.8089 143.608C83.3393 143.877 83.7559 144.244 84.0589 144.71C84.3658 145.176 84.5211 145.705 84.5249 146.295C84.5211 146.913 84.3525 147.464 84.0192 147.949C83.6896 148.43 83.2521 148.742 82.7067 148.886V148.955C83.1271 149.03 83.5059 149.21 83.843 149.494C84.1802 149.775 84.4491 150.125 84.6499 150.545C84.8506 150.962 84.9529 151.417 84.9567 151.909C84.9529 152.538 84.7824 153.098 84.4453 153.591C84.112 154.08 83.648 154.464 83.0533 154.744C82.4624 155.021 81.7786 155.159 81.0021 155.159ZM81.0021 153.909C81.5286 153.909 81.9832 153.824 82.3658 153.653C82.7483 153.483 83.0438 153.242 83.2521 152.932C83.4605 152.621 83.5665 152.258 83.5703 151.841C83.5665 151.402 83.4529 151.013 83.2294 150.676C83.0059 150.339 82.701 150.074 82.3146 149.881C81.9321 149.687 81.4946 149.591 81.0021 149.591C80.5059 149.591 80.0627 149.687 79.6726 149.881C79.2862 150.074 78.9813 150.339 78.7578 150.676C78.5381 151.013 78.4302 151.402 78.4339 151.841C78.4302 152.258 78.5305 152.621 78.7351 152.932C78.9434 153.242 79.2408 153.483 79.6271 153.653C80.0135 153.824 80.4718 153.909 81.0021 153.909ZM81.0021 148.386C81.4188 148.386 81.7881 148.303 82.1101 148.136C82.4358 147.97 82.6915 147.737 82.8771 147.438C83.0627 147.138 83.1574 146.788 83.1612 146.386C83.1574 145.992 83.0646 145.65 82.8828 145.358C82.701 145.062 82.4491 144.835 82.1271 144.676C81.8052 144.513 81.4302 144.432 81.0021 144.432C80.5665 144.432 80.1858 144.513 79.8601 144.676C79.5343 144.835 79.2824 145.062 79.1044 145.358C78.9264 145.65 78.8393 145.992 78.843 146.386C78.8393 146.788 78.9283 147.138 79.1101 147.438C79.2957 147.737 79.5514 147.97 79.8771 148.136C80.2029 148.303 80.5779 148.386 81.0021 148.386Z" fill="#1E1E1E"/>
<path d="M102 137C102 132.582 105.582 129 110 129H134C138.418 129 142 132.582 142 137V161C142 165.418 138.418 169 134 169H110C105.582 169 102 165.418 102 161V137Z" fill="#2C2C2C"/>
<path d="M121.917 143.205C122.394 143.208 122.871 143.299 123.349 143.477C123.826 143.655 124.262 143.951 124.656 144.364C125.049 144.773 125.366 145.331 125.604 146.04C125.843 146.748 125.962 147.636 125.962 148.705C125.962 149.739 125.864 150.657 125.667 151.46C125.474 152.259 125.193 152.934 124.826 153.483C124.462 154.032 124.019 154.449 123.496 154.733C122.978 155.017 122.39 155.159 121.735 155.159C121.084 155.159 120.502 155.03 119.991 154.773C119.483 154.511 119.067 154.15 118.741 153.688C118.419 153.222 118.212 152.682 118.121 152.068H119.508C119.633 152.602 119.881 153.044 120.252 153.392C120.627 153.737 121.121 153.909 121.735 153.909C122.633 153.909 123.341 153.517 123.86 152.733C124.383 151.949 124.644 150.841 124.644 149.409H124.553C124.341 149.727 124.089 150.002 123.798 150.233C123.506 150.464 123.182 150.642 122.826 150.767C122.47 150.892 122.091 150.955 121.69 150.955C121.023 150.955 120.411 150.79 119.854 150.46C119.301 150.127 118.858 149.67 118.525 149.091C118.195 148.508 118.031 147.841 118.031 147.091C118.031 146.379 118.19 145.727 118.508 145.136C118.83 144.542 119.281 144.068 119.86 143.716C120.443 143.364 121.129 143.193 121.917 143.205ZM121.917 144.455C121.44 144.455 121.01 144.574 120.627 144.812C120.248 145.047 119.947 145.366 119.724 145.767C119.504 146.165 119.394 146.606 119.394 147.091C119.394 147.576 119.5 148.017 119.712 148.415C119.928 148.809 120.222 149.123 120.593 149.358C120.968 149.589 121.394 149.705 121.871 149.705C122.231 149.705 122.567 149.634 122.877 149.494C123.188 149.35 123.459 149.155 123.69 148.909C123.924 148.659 124.108 148.377 124.241 148.062C124.373 147.744 124.44 147.413 124.44 147.068C124.44 146.614 124.33 146.187 124.11 145.79C123.894 145.392 123.595 145.07 123.212 144.824C122.834 144.578 122.402 144.455 121.917 144.455Z" fill="#F5F5F5"/>
<path d="M159.577 143.364V155H158.168V144.841H158.099L155.259 146.727V145.295L158.168 143.364H159.577ZM166.719 155.159C165.863 155.159 165.134 154.926 164.531 154.46C163.929 153.991 163.469 153.311 163.151 152.42C162.832 151.527 162.673 150.447 162.673 149.182C162.673 147.924 162.832 146.85 163.151 145.96C163.473 145.066 163.935 144.384 164.537 143.915C165.143 143.441 165.87 143.205 166.719 143.205C167.567 143.205 168.293 143.441 168.895 143.915C169.501 144.384 169.963 145.066 170.281 145.96C170.603 146.85 170.764 147.924 170.764 149.182C170.764 150.447 170.605 151.527 170.287 152.42C169.969 153.311 169.509 153.991 168.906 154.46C168.304 154.926 167.575 155.159 166.719 155.159ZM166.719 153.909C167.567 153.909 168.226 153.5 168.696 152.682C169.166 151.864 169.401 150.697 169.401 149.182C169.401 148.174 169.293 147.316 169.077 146.608C168.865 145.9 168.558 145.36 168.156 144.989C167.759 144.617 167.279 144.432 166.719 144.432C165.878 144.432 165.221 144.847 164.747 145.676C164.274 146.502 164.037 147.67 164.037 149.182C164.037 150.189 164.143 151.045 164.355 151.75C164.567 152.455 164.872 152.991 165.27 153.358C165.671 153.725 166.154 153.909 166.719 153.909Z" fill="#1E1E1E"/>
<path d="M201.858 143.364V155H200.449V144.841H200.381L197.54 146.727V145.295L200.449 143.364H201.858ZM209.295 143.364V155H207.886V144.841H207.818L204.977 146.727V145.295L207.886 143.364H209.295Z" fill="#1E1E1E"/>
<path d="M241.733 143.364V155H240.324V144.841H240.256L237.415 146.727V145.295L240.324 143.364H241.733ZM245.08 155V153.977L248.92 149.773C249.371 149.28 249.742 148.852 250.034 148.489C250.326 148.121 250.542 147.777 250.682 147.455C250.826 147.129 250.898 146.788 250.898 146.432C250.898 146.023 250.799 145.669 250.602 145.369C250.409 145.07 250.144 144.839 249.807 144.676C249.47 144.513 249.091 144.432 248.67 144.432C248.223 144.432 247.833 144.525 247.5 144.71C247.17 144.892 246.915 145.148 246.733 145.477C246.555 145.807 246.466 146.193 246.466 146.636H245.125C245.125 145.955 245.282 145.356 245.597 144.841C245.911 144.326 246.339 143.924 246.881 143.636C247.426 143.348 248.038 143.205 248.716 143.205C249.398 143.205 250.002 143.348 250.528 143.636C251.055 143.924 251.468 144.312 251.767 144.801C252.066 145.29 252.216 145.833 252.216 146.432C252.216 146.86 252.138 147.278 251.983 147.688C251.831 148.093 251.566 148.545 251.188 149.045C250.812 149.542 250.292 150.148 249.625 150.864L247.011 153.659V153.75H252.42V155H245.08Z" fill="#1E1E1E"/>
<path d="M282.483 143.364V155H281.074V144.841H281.006L278.165 146.727V145.295L281.074 143.364H282.483ZM289.761 155.159C289.011 155.159 288.343 155.03 287.756 154.773C287.172 154.515 286.708 154.157 286.364 153.699C286.023 153.237 285.837 152.701 285.807 152.091H287.239C287.269 152.466 287.398 152.79 287.625 153.062C287.852 153.331 288.15 153.54 288.517 153.688C288.884 153.835 289.292 153.909 289.739 153.909C290.239 153.909 290.682 153.822 291.068 153.648C291.455 153.473 291.758 153.231 291.977 152.92C292.197 152.61 292.307 152.25 292.307 151.841C292.307 151.413 292.201 151.036 291.989 150.71C291.777 150.381 291.466 150.123 291.057 149.938C290.648 149.752 290.148 149.659 289.557 149.659H288.625V148.409H289.557C290.019 148.409 290.424 148.326 290.773 148.159C291.125 147.992 291.4 147.758 291.597 147.455C291.797 147.152 291.898 146.795 291.898 146.386C291.898 145.992 291.811 145.65 291.636 145.358C291.462 145.066 291.216 144.839 290.898 144.676C290.583 144.513 290.212 144.432 289.784 144.432C289.383 144.432 289.004 144.506 288.648 144.653C288.295 144.797 288.008 145.008 287.784 145.284C287.561 145.557 287.439 145.886 287.42 146.273H286.057C286.08 145.663 286.263 145.129 286.608 144.67C286.953 144.208 287.403 143.848 287.96 143.591C288.521 143.333 289.136 143.205 289.807 143.205C290.527 143.205 291.144 143.35 291.659 143.642C292.174 143.93 292.57 144.311 292.847 144.784C293.123 145.258 293.261 145.769 293.261 146.318C293.261 146.973 293.089 147.532 292.744 147.994C292.403 148.456 291.939 148.777 291.352 148.955V149.045C292.087 149.167 292.661 149.479 293.074 149.983C293.487 150.483 293.693 151.102 293.693 151.841C293.693 152.473 293.521 153.042 293.176 153.545C292.835 154.045 292.369 154.439 291.778 154.727C291.188 155.015 290.515 155.159 289.761 155.159Z" fill="#1E1E1E"/>
<path d="M82.5767 102.364V114H81.1676V103.841H81.0994L78.2585 105.727V104.295L81.1676 102.364H82.5767Z" fill="#1E1E1E"/>
<path d="M118.361 114V112.977L122.202 108.773C122.652 108.28 123.024 107.852 123.315 107.489C123.607 107.121 123.823 106.777 123.963 106.455C124.107 106.129 124.179 105.788 124.179 105.432C124.179 105.023 124.08 104.669 123.884 104.369C123.69 104.07 123.425 103.839 123.088 103.676C122.751 103.513 122.372 103.432 121.952 103.432C121.505 103.432 121.115 103.525 120.781 103.71C120.452 103.892 120.196 104.148 120.014 104.477C119.836 104.807 119.747 105.193 119.747 105.636H118.406C118.406 104.955 118.563 104.356 118.878 103.841C119.192 103.326 119.62 102.924 120.162 102.636C120.707 102.348 121.319 102.205 121.997 102.205C122.679 102.205 123.283 102.348 123.81 102.636C124.336 102.924 124.749 103.312 125.048 103.801C125.348 104.29 125.497 104.833 125.497 105.432C125.497 105.86 125.42 106.278 125.264 106.688C125.113 107.093 124.848 107.545 124.469 108.045C124.094 108.542 123.573 109.148 122.906 109.864L120.293 112.659V112.75H125.702V114H118.361Z" fill="#1E1E1E"/>
<path d="M163.043 114.159C162.293 114.159 161.624 114.03 161.037 113.773C160.454 113.515 159.99 113.157 159.645 112.699C159.304 112.237 159.118 111.701 159.088 111.091H160.52C160.55 111.466 160.679 111.79 160.906 112.062C161.134 112.331 161.431 112.54 161.798 112.688C162.166 112.835 162.573 112.909 163.02 112.909C163.52 112.909 163.963 112.822 164.349 112.648C164.736 112.473 165.039 112.231 165.259 111.92C165.478 111.61 165.588 111.25 165.588 110.841C165.588 110.413 165.482 110.036 165.27 109.71C165.058 109.381 164.747 109.123 164.338 108.938C163.929 108.752 163.429 108.659 162.838 108.659H161.906V107.409H162.838C163.3 107.409 163.705 107.326 164.054 107.159C164.406 106.992 164.681 106.758 164.878 106.455C165.079 106.152 165.179 105.795 165.179 105.386C165.179 104.992 165.092 104.65 164.918 104.358C164.743 104.066 164.497 103.839 164.179 103.676C163.865 103.513 163.493 103.432 163.065 103.432C162.664 103.432 162.285 103.506 161.929 103.653C161.577 103.797 161.289 104.008 161.065 104.284C160.842 104.557 160.721 104.886 160.702 105.273H159.338C159.361 104.663 159.545 104.129 159.889 103.67C160.234 103.208 160.685 102.848 161.241 102.591C161.802 102.333 162.418 102.205 163.088 102.205C163.808 102.205 164.425 102.35 164.94 102.642C165.455 102.93 165.851 103.311 166.128 103.784C166.404 104.258 166.543 104.769 166.543 105.318C166.543 105.973 166.37 106.532 166.026 106.994C165.685 107.456 165.221 107.777 164.634 107.955V108.045C165.368 108.167 165.942 108.479 166.355 108.983C166.768 109.483 166.974 110.102 166.974 110.841C166.974 111.473 166.802 112.042 166.457 112.545C166.116 113.045 165.651 113.439 165.06 113.727C164.469 114.015 163.796 114.159 163.043 114.159Z" fill="#1E1E1E"/>
<path d="M199.799 111.614V110.455L204.913 102.364H205.754V104.159H205.185L201.322 110.273V110.364H208.208V111.614H199.799ZM205.276 114V111.261V110.722V102.364H206.617V114H205.276Z" fill="#1E1E1E"/>
<path d="M244.974 114.159C244.307 114.159 243.707 114.027 243.173 113.761C242.638 113.496 242.21 113.133 241.888 112.67C241.567 112.208 241.39 111.682 241.36 111.091H242.724C242.777 111.617 243.015 112.053 243.44 112.398C243.868 112.739 244.379 112.909 244.974 112.909C245.451 112.909 245.875 112.797 246.246 112.574C246.621 112.35 246.915 112.044 247.127 111.653C247.343 111.259 247.451 110.814 247.451 110.318C247.451 109.811 247.339 109.358 247.116 108.96C246.896 108.559 246.593 108.242 246.207 108.011C245.82 107.78 245.379 107.663 244.883 107.659C244.527 107.655 244.161 107.71 243.786 107.824C243.411 107.934 243.103 108.076 242.86 108.25L241.542 108.091L242.246 102.364H248.292V103.614H243.428L243.019 107.045H243.087C243.326 106.856 243.625 106.699 243.985 106.574C244.345 106.449 244.72 106.386 245.11 106.386C245.822 106.386 246.457 106.557 247.013 106.898C247.574 107.235 248.013 107.697 248.332 108.284C248.654 108.871 248.815 109.542 248.815 110.295C248.815 111.038 248.648 111.701 248.315 112.284C247.985 112.864 247.531 113.322 246.951 113.659C246.371 113.992 245.712 114.159 244.974 114.159Z" fill="#1E1E1E"/>
<path d="M286.076 114.159C285.599 114.152 285.121 114.061 284.644 113.886C284.167 113.712 283.731 113.419 283.337 113.006C282.943 112.589 282.627 112.027 282.388 111.318C282.15 110.606 282.031 109.712 282.031 108.636C282.031 107.606 282.127 106.693 282.32 105.898C282.513 105.098 282.794 104.426 283.161 103.881C283.529 103.331 283.972 102.915 284.491 102.631C285.013 102.347 285.603 102.205 286.258 102.205C286.909 102.205 287.489 102.335 287.996 102.597C288.508 102.854 288.924 103.214 289.246 103.676C289.568 104.138 289.777 104.67 289.871 105.273H288.485C288.356 104.75 288.106 104.316 287.735 103.972C287.364 103.627 286.871 103.455 286.258 103.455C285.356 103.455 284.646 103.847 284.127 104.631C283.612 105.415 283.353 106.515 283.349 107.932H283.44C283.652 107.61 283.904 107.335 284.195 107.108C284.491 106.877 284.817 106.699 285.173 106.574C285.529 106.449 285.906 106.386 286.303 106.386C286.97 106.386 287.58 106.553 288.133 106.886C288.686 107.216 289.129 107.672 289.462 108.256C289.796 108.835 289.962 109.5 289.962 110.25C289.962 110.97 289.801 111.629 289.479 112.227C289.157 112.822 288.705 113.295 288.121 113.648C287.542 113.996 286.86 114.167 286.076 114.159ZM286.076 112.909C286.553 112.909 286.981 112.79 287.36 112.551C287.743 112.312 288.044 111.992 288.263 111.591C288.487 111.189 288.599 110.742 288.599 110.25C288.599 109.769 288.491 109.331 288.275 108.938C288.063 108.54 287.769 108.223 287.394 107.989C287.023 107.754 286.599 107.636 286.121 107.636C285.762 107.636 285.426 107.708 285.116 107.852C284.805 107.992 284.532 108.186 284.298 108.432C284.067 108.678 283.885 108.96 283.752 109.278C283.62 109.593 283.553 109.924 283.553 110.273C283.553 110.735 283.661 111.167 283.877 111.568C284.097 111.97 284.396 112.294 284.775 112.54C285.157 112.786 285.591 112.909 286.076 112.909Z" fill="#1E1E1E"/>
</g>
<defs>
<filter id="filter0_d_4326_1464" x="0" y="0" width="326" height="316" filterUnits="userSpaceOnUse" color-interpolation-filters="sRGB">
<feFlood flood-opacity="0" result="BackgroundImageFix"/>
<feColorMatrix in="SourceAlpha" type="matrix" values="0 0 0 0 0 0 0 0 0 0 0 0 0 0 0 0 0 0 127 0" result="hardAlpha"/>
<feOffset dy="4"/>
<feGaussianBlur stdDeviation="2"/>
<feComposite in2="hardAlpha" operator="out"/>
<feColorMatrix type="matrix" values="0 0 0 0 0 0 0 0 0 0 0 0 0 0 0 0 0 0 0.25 0"/>
<feBlend mode="normal" in2="BackgroundImageFix" result="effect1_dropShadow_4326_1464"/>
<feBlend mode="normal" in="SourceGraphic" in2="effect1_dropShadow_4326_1464" result="shape"/>
</filter>
</defs>
</svg>
