<svg width="187" height="118" viewBox="0 0 187 118" fill="none" xmlns="http://www.w3.org/2000/svg">
<g filter="url(#filter0_d_4322_6862)">
<rect x="4" width="179" height="110" rx="16" fill="#00C4FF"/>
<path d="M29.18 22.84H30.54V31.16H29.18V22.84ZM36.84 22.84H38.22V30.9H36.84V22.84ZM32.92 17.22H34.34V32.82C34.34 33.1133 34.36 33.36 34.4 33.56C34.44 33.7467 34.5133 33.8667 34.62 33.92C34.7267 33.96 34.8333 33.9867 34.94 34C35.0467 34.0267 35.1733 34.04 35.32 34.04C35.4533 34.04 35.6467 34.04 35.9 34.04C36.1667 34.04 36.3933 34.04 36.58 34.04C36.74 34.04 36.8933 34.0333 37.04 34.02C37.1867 34.0067 37.3067 33.9867 37.4 33.96C37.48 33.9333 37.56 33.8867 37.64 33.82C37.72 33.7533 37.7733 33.6533 37.8 33.52C37.84 33.3733 37.8733 33.1467 37.9 32.84C37.9267 32.5333 37.9467 32.1667 37.96 31.74C38.12 31.8867 38.32 32.02 38.56 32.14C38.8133 32.26 39.06 32.3533 39.3 32.42C39.2867 32.7933 39.2533 33.1867 39.2 33.6C39.1467 34 39.08 34.2867 39 34.46C38.92 34.66 38.8067 34.82 38.66 34.94C38.5267 35.06 38.36 35.1533 38.16 35.22C37.9733 35.2867 37.7467 35.3267 37.48 35.34C37.2267 35.3667 36.98 35.38 36.74 35.38C36.62 35.38 36.4467 35.38 36.22 35.38C35.9933 35.38 35.7667 35.38 35.54 35.38C35.3267 35.38 35.16 35.38 35.04 35.38C34.8 35.38 34.54 35.3533 34.26 35.3C33.9933 35.2467 33.76 35.1533 33.56 35.02C33.4133 34.9267 33.2867 34.8 33.18 34.64C33.0867 34.4933 33.02 34.2667 32.98 33.96C32.94 33.6533 32.92 33.2133 32.92 32.64V17.22ZM37.58 18.66L38.64 19.8C38 20.0267 37.2733 20.24 36.46 20.44C35.6467 20.6267 34.78 20.7933 33.86 20.94C32.9533 21.0733 32.04 21.1933 31.12 21.3C30.2 21.3933 29.3067 21.4733 28.44 21.54C28.4133 21.3667 28.36 21.16 28.28 20.92C28.2 20.68 28.12 20.48 28.04 20.32C28.88 20.24 29.74 20.1533 30.62 20.06C31.5133 19.9533 32.3867 19.8333 33.24 19.7C34.1067 19.5533 34.9133 19.3933 35.66 19.22C36.4067 19.0467 37.0467 18.86 37.58 18.66ZM29.86 28.5H37.5V29.88H29.86V28.5ZM23.9 17.2L25.22 17.74C24.9667 18.2067 24.7 18.7067 24.42 19.24C24.14 19.7733 23.8533 20.2867 23.56 20.78C23.28 21.2733 23.0067 21.7 22.74 22.06L21.72 21.6C21.9733 21.2133 22.2333 20.7667 22.5 20.26C22.7667 19.74 23.0267 19.2133 23.28 18.68C23.5333 18.1333 23.74 17.64 23.9 17.2ZM26.16 19.48L27.42 20.06C26.9667 20.82 26.46 21.6267 25.9 22.48C25.3533 23.3333 24.8 24.1533 24.24 24.94C23.68 25.7267 23.1467 26.42 22.64 27.02L21.72 26.5C22.0933 26.0467 22.48 25.5333 22.88 24.96C23.2933 24.3733 23.6933 23.7667 24.08 23.14C24.48 22.5 24.8533 21.8667 25.2 21.24C25.56 20.6 25.88 20.0133 26.16 19.48ZM20.76 21.42L21.52 20.42C21.8933 20.7267 22.2667 21.0733 22.64 21.46C23.0267 21.8333 23.38 22.2067 23.7 22.58C24.02 22.94 24.2667 23.2667 24.44 23.56L23.62 24.7C23.4467 24.3933 23.2 24.0467 22.88 23.66C22.5733 23.26 22.2333 22.8667 21.86 22.48C21.4867 22.0933 21.12 21.74 20.76 21.42ZM25.44 24.14L26.5 23.7C26.78 24.1267 27.0467 24.5933 27.3 25.1C27.5533 25.5933 27.7733 26.08 27.96 26.56C28.16 27.0267 28.3067 27.4467 28.4 27.82L27.26 28.32C27.18 27.9467 27.04 27.52 26.84 27.04C26.6533 26.56 26.44 26.0667 26.2 25.56C25.96 25.04 25.7067 24.5667 25.44 24.14ZM20.68 26.16C21.56 26.1333 22.5933 26.0933 23.78 26.04C24.9667 25.9867 26.1933 25.9333 27.46 25.88L27.44 27.1C26.2533 27.18 25.08 27.26 23.92 27.34C22.76 27.4067 21.7267 27.4733 20.82 27.54L20.68 26.16ZM25.96 28.84L27.06 28.5C27.3267 29.06 27.58 29.6867 27.82 30.38C28.0733 31.06 28.2467 31.6467 28.34 32.14L27.2 32.54C27.1067 32.0333 26.94 31.44 26.7 30.76C26.4733 30.0667 26.2267 29.4267 25.96 28.84ZM21.82 28.64L23.1 28.86C22.9667 29.8067 22.78 30.74 22.54 31.66C22.3 32.5667 22.02 33.34 21.7 33.98C21.6067 33.9133 21.4867 33.8467 21.34 33.78C21.2067 33.7133 21.06 33.6467 20.9 33.58C20.7533 33.5 20.62 33.44 20.5 33.4C20.8467 32.7867 21.12 32.06 21.32 31.22C21.5333 30.3667 21.7 29.5067 21.82 28.64ZM23.96 26.72H25.3V35.64H23.96V26.72ZM49.96 19.02V21.1H55.98V19.02H49.96ZM48.58 17.9H57.44V22.2H48.58V17.9ZM53.96 33.02L55.08 32.2C55.56 32.4533 56.04 32.74 56.52 33.06C57 33.3667 57.4533 33.6733 57.88 33.98C58.3067 34.2867 58.6733 34.5733 58.98 34.84L57.5 35.62C57.2333 35.3533 56.9067 35.0667 56.52 34.76C56.1333 34.4667 55.72 34.1667 55.28 33.86C54.84 33.5533 54.4 33.2733 53.96 33.02ZM50.3 32.14L51.66 32.98C51.2733 33.3133 50.8133 33.6467 50.28 33.98C49.76 34.3 49.2133 34.6 48.64 34.88C48.0667 35.1733 47.5067 35.42 46.96 35.62C46.8533 35.4733 46.7 35.2933 46.5 35.08C46.3 34.8667 46.12 34.6867 45.96 34.54C46.48 34.3667 47.0133 34.1467 47.56 33.88C48.12 33.6 48.64 33.3133 49.12 33.02C49.6133 32.7133 50.0067 32.42 50.3 32.14ZM49.46 26.96V28.46H56.46V26.96H49.46ZM49.46 29.54V31.04H56.46V29.54H49.46ZM49.46 24.42V25.88H56.46V24.42H49.46ZM48.04 23.28H57.94V32.16H48.04V23.28ZM40.16 27.8C40.76 27.6533 41.44 27.4733 42.2 27.26C42.96 27.0467 43.76 26.82 44.6 26.58C45.4533 26.3267 46.3067 26.0733 47.16 25.82L47.34 27.22C46.1667 27.58 44.9867 27.94 43.8 28.3C42.6133 28.66 41.5467 28.98 40.6 29.26L40.16 27.8ZM40.48 21.24H47.12V22.66H40.48V21.24ZM43.34 17.2H44.8V33.82C44.8 34.2467 44.7467 34.5733 44.64 34.8C44.5467 35.0267 44.3667 35.2 44.1 35.32C43.8333 35.4267 43.4867 35.5 43.06 35.54C42.6333 35.58 42.0867 35.5933 41.42 35.58C41.3933 35.3933 41.3333 35.1667 41.24 34.9C41.1467 34.6333 41.0533 34.4 40.96 34.2C41.4133 34.2133 41.8267 34.22 42.2 34.22C42.5733 34.22 42.8267 34.22 42.96 34.22C43.0933 34.2067 43.1867 34.1733 43.24 34.12C43.3067 34.0667 43.34 33.9733 43.34 33.84V17.2ZM60.1 33.64H78.32V35H60.1V33.64ZM60.62 21.4H77.82V22.76H60.62V21.4ZM62.9 27.96H75.62V34.34H74.2V29.26H71.8V34.34H70.4V29.26H68.02V34.34H66.62V29.26H64.26V34.34H62.9V27.96ZM63.48 17.86L64.74 17.28C65.06 17.6667 65.3667 18.08 65.66 18.52C65.9667 18.9467 66.24 19.3733 66.48 19.8C66.7333 20.2133 66.9333 20.5933 67.08 20.94L65.74 21.62C65.6067 21.2733 65.42 20.88 65.18 20.44C64.94 20 64.6667 19.5533 64.36 19.1C64.0667 18.6467 63.7733 18.2333 63.48 17.86ZM73.7 17.16L75.24 17.66C74.8267 18.3267 74.3733 19.0067 73.88 19.7C73.3867 20.3933 72.9333 20.9867 72.52 21.48L71.22 21.02C71.5133 20.6733 71.8133 20.28 72.12 19.84C72.4267 19.3867 72.72 18.9267 73 18.46C73.28 17.98 73.5133 17.5467 73.7 17.16ZM66.14 21.8L67.62 22.24C67.1133 23.3067 66.5067 24.3067 65.8 25.24C65.0933 26.1733 64.32 27.0333 63.48 27.82C62.6533 28.5933 61.7933 29.2667 60.9 29.84C60.82 29.7333 60.7067 29.6133 60.56 29.48C60.4267 29.3333 60.28 29.1933 60.12 29.06C59.9733 28.9133 59.84 28.7933 59.72 28.7C61.0667 27.94 62.3 26.96 63.42 25.76C64.5533 24.56 65.46 23.24 66.14 21.8ZM72.04 21.82C72.48 22.7 73.0467 23.5667 73.74 24.42C74.4333 25.26 75.2 26.0267 76.04 26.72C76.8933 27.4 77.7533 27.9467 78.62 28.36C78.5133 28.4533 78.3933 28.5733 78.26 28.72C78.1267 28.8667 77.9933 29.02 77.86 29.18C77.74 29.3267 77.64 29.46 77.56 29.58C76.68 29.1 75.8067 28.4867 74.94 27.74C74.0867 26.98 73.2933 26.1333 72.56 25.2C71.84 24.2667 71.2267 23.3 70.72 22.3L72.04 21.82Z" fill="white"/>
<path d="M21.2 65V62.8C22.3333 62.0933 23.3 61.4333 24.1 60.82C24.9 60.2067 25.5467 59.6267 26.04 59.08C26.5467 58.5333 26.92 58.0133 27.16 57.52C27.4 57.0267 27.52 56.5467 27.52 56.08C27.52 55.5733 27.3667 55.1533 27.06 54.82C26.7667 54.4733 26.3267 54.3 25.74 54.3C25.1133 54.3 24.6267 54.5333 24.28 55C23.9333 55.4533 23.7467 56.12 23.72 57L20.78 56.1C20.8067 55.1133 21.04 54.2867 21.48 53.62C21.9333 52.9533 22.5467 52.4533 23.32 52.12C24.0933 51.7733 24.9733 51.6 25.96 51.6C26.8267 51.6 27.5733 51.7267 28.2 51.98C28.84 52.22 29.36 52.5467 29.76 52.96C30.16 53.36 30.4533 53.8133 30.64 54.32C30.84 54.8133 30.94 55.32 30.94 55.84C30.94 56.6933 30.72 57.4933 30.28 58.24C29.84 58.9733 29.2 59.6867 28.36 60.38C27.5333 61.06 26.5267 61.7467 25.34 62.44V62.46C25.5667 62.4467 25.8333 62.4333 26.14 62.42C26.4467 62.4067 26.7667 62.4 27.1 62.4C27.4333 62.3867 27.7333 62.38 28 62.38H31.1V65H21.2ZM37.9541 65.2C36.1541 65.2 34.7874 64.6267 33.8541 63.48C32.9341 62.3333 32.4741 60.64 32.4741 58.4C32.4741 56.16 32.9341 54.4667 33.8541 53.32C34.7874 52.1733 36.1541 51.6 37.9541 51.6C39.7541 51.6 41.1141 52.1733 42.0341 53.32C42.9674 54.4667 43.4341 56.16 43.4341 58.4C43.4341 60.64 42.9674 62.3333 42.0341 63.48C41.1141 64.6267 39.7541 65.2 37.9541 65.2ZM37.9541 62.52C38.4474 62.52 38.8474 62.3867 39.1541 62.12C39.4607 61.84 39.6807 61.4 39.8141 60.8C39.9607 60.1867 40.0341 59.3867 40.0341 58.4C40.0341 57.4133 39.9607 56.62 39.8141 56.02C39.6807 55.4067 39.4607 54.9667 39.1541 54.7C38.8474 54.42 38.4474 54.28 37.9541 54.28C37.4741 54.28 37.0741 54.42 36.7541 54.7C36.4474 54.9667 36.2207 55.4067 36.0741 56.02C35.9407 56.62 35.8741 57.4133 35.8741 58.4C35.8741 59.3867 35.9407 60.1867 36.0741 60.8C36.2207 61.4 36.4474 61.84 36.7541 62.12C37.0741 62.3867 37.4741 62.52 37.9541 62.52ZM50.4252 65.2C48.6252 65.2 47.2585 64.6267 46.3252 63.48C45.4052 62.3333 44.9452 60.64 44.9452 58.4C44.9452 56.16 45.4052 54.4667 46.3252 53.32C47.2585 52.1733 48.6252 51.6 50.4252 51.6C52.2252 51.6 53.5852 52.1733 54.5052 53.32C55.4385 54.4667 55.9052 56.16 55.9052 58.4C55.9052 60.64 55.4385 62.3333 54.5052 63.48C53.5852 64.6267 52.2252 65.2 50.4252 65.2ZM50.4252 62.52C50.9185 62.52 51.3185 62.3867 51.6252 62.12C51.9318 61.84 52.1518 61.4 52.2852 60.8C52.4318 60.1867 52.5052 59.3867 52.5052 58.4C52.5052 57.4133 52.4318 56.62 52.2852 56.02C52.1518 55.4067 51.9318 54.9667 51.6252 54.7C51.3185 54.42 50.9185 54.28 50.4252 54.28C49.9452 54.28 49.5452 54.42 49.2252 54.7C48.9185 54.9667 48.6918 55.4067 48.5452 56.02C48.4118 56.62 48.3452 57.4133 48.3452 58.4C48.3452 59.3867 48.4118 60.1867 48.5452 60.8C48.6918 61.4 48.9185 61.84 49.2252 62.12C49.5452 62.3867 49.9452 62.52 50.4252 62.52ZM62.8962 65.2C61.0962 65.2 59.7296 64.6267 58.7962 63.48C57.8762 62.3333 57.4162 60.64 57.4162 58.4C57.4162 56.16 57.8762 54.4667 58.7962 53.32C59.7296 52.1733 61.0962 51.6 62.8962 51.6C64.6962 51.6 66.0562 52.1733 66.9762 53.32C67.9096 54.4667 68.3762 56.16 68.3762 58.4C68.3762 60.64 67.9096 62.3333 66.9762 63.48C66.0562 64.6267 64.6962 65.2 62.8962 65.2ZM62.8962 62.52C63.3896 62.52 63.7896 62.3867 64.0962 62.12C64.4029 61.84 64.6229 61.4 64.7562 60.8C64.9029 60.1867 64.9762 59.3867 64.9762 58.4C64.9762 57.4133 64.9029 56.62 64.7562 56.02C64.6229 55.4067 64.4029 54.9667 64.0962 54.7C63.7896 54.42 63.3896 54.28 62.8962 54.28C62.4162 54.28 62.0162 54.42 61.6962 54.7C61.3896 54.9667 61.1629 55.4067 61.0162 56.02C60.8829 56.62 60.8162 57.4133 60.8162 58.4C60.8162 59.3867 60.8829 60.1867 61.0162 60.8C61.1629 61.4 61.3896 61.84 61.6962 62.12C62.0162 62.3867 62.4162 62.52 62.8962 62.52ZM75.3673 65.2C73.5673 65.2 72.2007 64.6267 71.2673 63.48C70.3473 62.3333 69.8873 60.64 69.8873 58.4C69.8873 56.16 70.3473 54.4667 71.2673 53.32C72.2007 52.1733 73.5673 51.6 75.3673 51.6C77.1673 51.6 78.5273 52.1733 79.4473 53.32C80.3807 54.4667 80.8473 56.16 80.8473 58.4C80.8473 60.64 80.3807 62.3333 79.4473 63.48C78.5273 64.6267 77.1673 65.2 75.3673 65.2ZM75.3673 62.52C75.8607 62.52 76.2607 62.3867 76.5673 62.12C76.874 61.84 77.094 61.4 77.2273 60.8C77.374 60.1867 77.4473 59.3867 77.4473 58.4C77.4473 57.4133 77.374 56.62 77.2273 56.02C77.094 55.4067 76.874 54.9667 76.5673 54.7C76.2607 54.42 75.8607 54.28 75.3673 54.28C74.8873 54.28 74.4873 54.42 74.1673 54.7C73.8607 54.9667 73.634 55.4067 73.4873 56.02C73.354 56.62 73.2873 57.4133 73.2873 58.4C73.2873 59.3867 73.354 60.1867 73.4873 60.8C73.634 61.4 73.8607 61.84 74.1673 62.12C74.4873 62.3867 74.8873 62.52 75.3673 62.52ZM88.3211 49.28H104.001V51.66H90.7211V66.78H88.3211V49.28ZM102.861 49.28H105.281V63.98C105.281 64.62 105.201 65.12 105.041 65.48C104.881 65.8533 104.594 66.14 104.181 66.34C103.768 66.54 103.248 66.66 102.621 66.7C102.008 66.7533 101.254 66.78 100.361 66.78C100.321 66.5533 100.254 66.2933 100.161 66C100.068 65.7067 99.9611 65.4133 99.8411 65.12C99.7211 64.84 99.6011 64.5933 99.4811 64.38C99.8678 64.4067 100.254 64.4267 100.641 64.44C101.041 64.44 101.394 64.44 101.701 64.44C102.008 64.44 102.221 64.44 102.341 64.44C102.528 64.4267 102.661 64.3867 102.741 64.32C102.821 64.24 102.861 64.1133 102.861 63.94V49.28ZM89.6211 56.72H104.041V59.08H89.6211V56.72ZM95.4611 50.58H97.8611V57.9H95.4611V50.58Z" fill="white"/>
<path d="M21.036 91V90.09C21.96 89.4087 22.73 88.8113 23.346 88.298C23.9713 87.7847 24.4707 87.318 24.844 86.898C25.2173 86.478 25.4833 86.0813 25.642 85.708C25.8007 85.3253 25.88 84.9287 25.88 84.518C25.88 83.9673 25.7027 83.524 25.348 83.188C25.0027 82.8427 24.5267 82.67 23.92 82.67C23.2853 82.67 22.7767 82.88 22.394 83.3C22.0113 83.7107 21.7873 84.2613 21.722 84.952L20.742 84.364C20.826 83.8227 20.9987 83.3467 21.26 82.936C21.5307 82.5253 21.89 82.2033 22.338 81.97C22.7953 81.7367 23.3367 81.62 23.962 81.62C24.438 81.62 24.8627 81.69 25.236 81.83C25.6187 81.97 25.9453 82.1707 26.216 82.432C26.4867 82.684 26.692 82.9873 26.832 83.342C26.9813 83.6967 27.056 84.0887 27.056 84.518C27.056 85.0967 26.916 85.666 26.636 86.226C26.356 86.7767 25.894 87.3553 25.25 87.962C24.606 88.5687 23.7333 89.2407 22.632 89.978V89.992C22.7347 89.9827 22.8747 89.978 23.052 89.978C23.2387 89.9687 23.4207 89.964 23.598 89.964C23.7847 89.9547 23.9247 89.95 24.018 89.95H27.252V91H21.036ZM32.2361 91.14C31.1908 91.14 30.3554 90.734 29.7301 89.922C29.1048 89.11 28.7921 87.9293 28.7921 86.38C28.7921 84.8307 29.1048 83.65 29.7301 82.838C30.3554 82.026 31.1908 81.62 32.2361 81.62C33.2908 81.62 34.1261 82.026 34.7421 82.838C35.3674 83.65 35.6801 84.8307 35.6801 86.38C35.6801 87.9293 35.3674 89.11 34.7421 89.922C34.1261 90.734 33.2908 91.14 32.2361 91.14ZM32.2361 90.132C32.7308 90.132 33.1461 89.992 33.4821 89.712C33.8274 89.4227 34.0841 88.998 34.2521 88.438C34.4294 87.878 34.5181 87.192 34.5181 86.38C34.5181 85.568 34.4294 84.882 34.2521 84.322C34.0841 83.762 33.8274 83.342 33.4821 83.062C33.1461 82.7727 32.7308 82.628 32.2361 82.628C31.7414 82.628 31.3214 82.7727 30.9761 83.062C30.6401 83.342 30.3834 83.762 30.2061 84.322C30.0381 84.882 29.9541 85.568 29.9541 86.38C29.9541 87.192 30.0381 87.878 30.2061 88.438C30.3834 88.998 30.6401 89.4227 30.9761 89.712C31.3214 89.992 31.7414 90.132 32.2361 90.132ZM37.3471 91V90.09C38.2711 89.4087 39.0411 88.8113 39.6571 88.298C40.2824 87.7847 40.7818 87.318 41.1551 86.898C41.5284 86.478 41.7944 86.0813 41.9531 85.708C42.1118 85.3253 42.1911 84.9287 42.1911 84.518C42.1911 83.9673 42.0138 83.524 41.6591 83.188C41.3138 82.8427 40.8378 82.67 40.2311 82.67C39.5964 82.67 39.0878 82.88 38.7051 83.3C38.3224 83.7107 38.0984 84.2613 38.0331 84.952L37.0531 84.364C37.1371 83.8227 37.3098 83.3467 37.5711 82.936C37.8418 82.5253 38.2011 82.2033 38.6491 81.97C39.1064 81.7367 39.6478 81.62 40.2731 81.62C40.7491 81.62 41.1738 81.69 41.5471 81.83C41.9298 81.97 42.2564 82.1707 42.5271 82.432C42.7978 82.684 43.0031 82.9873 43.1431 83.342C43.2924 83.6967 43.3671 84.0887 43.3671 84.518C43.3671 85.0967 43.2271 85.666 42.9471 86.226C42.6671 86.7767 42.2051 87.3553 41.5611 87.962C40.9171 88.5687 40.0444 89.2407 38.9431 89.978V89.992C39.0458 89.9827 39.1858 89.978 39.3631 89.978C39.5498 89.9687 39.7318 89.964 39.9091 89.964C40.0958 89.9547 40.2358 89.95 40.3291 89.95H43.5631V91H37.3471ZM48.7152 81.62C49.2099 81.62 49.6392 81.69 50.0032 81.83C50.3765 81.9607 50.6985 82.1707 50.9692 82.46C51.2399 82.74 51.4685 83.1087 51.6552 83.566L50.6192 84.056C50.4792 83.6267 50.2505 83.2907 49.9332 83.048C49.6252 82.796 49.1959 82.67 48.6452 82.67C48.2439 82.67 47.8892 82.7727 47.5812 82.978C47.2732 83.174 47.0119 83.4493 46.7972 83.804C46.5825 84.1587 46.4192 84.574 46.3072 85.05C46.2045 85.526 46.1532 86.0393 46.1532 86.59C46.1532 86.6087 46.1532 86.6367 46.1532 86.674C46.1532 86.7113 46.1532 86.7673 46.1532 86.842H46.2092C46.3119 86.4407 46.4985 86.1187 46.7692 85.876C47.0492 85.624 47.3619 85.442 47.7072 85.33C48.0619 85.2087 48.4072 85.148 48.7432 85.148C49.3685 85.148 49.9145 85.2693 50.3812 85.512C50.8479 85.7547 51.2072 86.1 51.4592 86.548C51.7205 86.996 51.8512 87.528 51.8512 88.144C51.8512 88.7507 51.7205 89.2827 51.4592 89.74C51.1979 90.188 50.8292 90.5333 50.3532 90.776C49.8865 91.0187 49.3265 91.14 48.6732 91.14C47.8985 91.14 47.2452 90.9347 46.7132 90.524C46.1812 90.1133 45.7799 89.5533 45.5092 88.844C45.2385 88.1253 45.1032 87.304 45.1032 86.38C45.1032 85.344 45.2619 84.476 45.5792 83.776C45.8965 83.0667 46.3259 82.53 46.8672 82.166C47.4179 81.802 48.0339 81.62 48.7152 81.62ZM48.6592 86.226C48.2579 86.226 47.9032 86.31 47.5952 86.478C47.2965 86.6367 47.0632 86.8607 46.8952 87.15C46.7272 87.43 46.6432 87.7567 46.6432 88.13C46.6432 88.4847 46.7319 88.8113 46.9092 89.11C47.0865 89.3993 47.3245 89.6327 47.6232 89.81C47.9312 89.978 48.2765 90.062 48.6592 90.062C49.2939 90.062 49.7885 89.894 50.1432 89.558C50.4979 89.2127 50.6752 88.7367 50.6752 88.13C50.6752 87.738 50.5959 87.402 50.4372 87.122C50.2785 86.8327 50.0499 86.6133 49.7512 86.464C49.4525 86.3053 49.0885 86.226 48.6592 86.226ZM58.1568 80.78L53.8728 91.98H52.8228L57.1068 80.78H58.1568ZM62.3221 91.14C61.5008 91.14 60.7728 90.9487 60.1381 90.566C59.5128 90.174 59.0881 89.6373 58.8641 88.956L59.9841 88.382C60.0961 88.7273 60.2501 89.0307 60.4461 89.292C60.6421 89.544 60.8988 89.74 61.2161 89.88C61.5428 90.02 61.9488 90.09 62.4341 90.09C62.8448 90.09 63.1901 90.0153 63.4701 89.866C63.7501 89.7167 63.9648 89.516 64.1141 89.264C64.2634 89.0027 64.3381 88.704 64.3381 88.368C64.3381 88.032 64.2728 87.752 64.1421 87.528C64.0208 87.304 63.8248 87.1407 63.5541 87.038C63.2834 86.926 62.9288 86.87 62.4901 86.87C62.3874 86.87 62.2754 86.8747 62.1541 86.884C62.0328 86.884 61.9068 86.8933 61.7761 86.912V85.792C61.8601 85.8013 61.9394 85.806 62.0141 85.806C62.0981 85.806 62.1728 85.806 62.2381 85.806C62.9194 85.806 63.4048 85.6753 63.6941 85.414C63.9834 85.1433 64.1281 84.7233 64.1281 84.154C64.1281 83.6687 63.9788 83.3 63.6801 83.048C63.3814 82.796 62.9568 82.67 62.4061 82.67C61.8181 82.67 61.3701 82.8007 61.0621 83.062C60.7541 83.314 60.5114 83.6593 60.3341 84.098L59.2701 83.594C59.4194 83.202 59.6434 82.8567 59.9421 82.558C60.2408 82.2593 60.6001 82.026 61.0201 81.858C61.4494 81.69 61.9208 81.606 62.4341 81.606C63.0781 81.606 63.6101 81.718 64.0301 81.942C64.4501 82.1567 64.7628 82.446 64.9681 82.81C65.1828 83.174 65.2901 83.5753 65.2901 84.014C65.2901 84.35 65.2434 84.6533 65.1501 84.924C65.0568 85.1853 64.9261 85.414 64.7581 85.61C64.5994 85.806 64.4174 85.9647 64.2121 86.086C64.0068 86.198 63.7874 86.2727 63.5541 86.31V86.338C63.8621 86.3473 64.1328 86.408 64.3661 86.52C64.6088 86.632 64.8141 86.7813 64.9821 86.968C65.1501 87.1547 65.2761 87.3693 65.3601 87.612C65.4534 87.8453 65.5001 88.0927 65.5001 88.354C65.5001 88.8953 65.3648 89.376 65.0941 89.796C64.8328 90.216 64.4641 90.5473 63.9881 90.79C63.5121 91.0233 62.9568 91.14 62.3221 91.14ZM71.8702 80.78L67.5862 91.98H66.5362L70.8202 80.78H71.8702ZM73.0115 91V90.09C73.9355 89.4087 74.7055 88.8113 75.3215 88.298C75.9469 87.7847 76.4462 87.318 76.8195 86.898C77.1929 86.478 77.4589 86.0813 77.6175 85.708C77.7762 85.3253 77.8555 84.9287 77.8555 84.518C77.8555 83.9673 77.6782 83.524 77.3235 83.188C76.9782 82.8427 76.5022 82.67 75.8955 82.67C75.2609 82.67 74.7522 82.88 74.3695 83.3C73.9869 83.7107 73.7629 84.2613 73.6975 84.952L72.7175 84.364C72.8015 83.8227 72.9742 83.3467 73.2355 82.936C73.5062 82.5253 73.8655 82.2033 74.3135 81.97C74.7709 81.7367 75.3122 81.62 75.9375 81.62C76.4135 81.62 76.8382 81.69 77.2115 81.83C77.5942 81.97 77.9209 82.1707 78.1915 82.432C78.4622 82.684 78.6675 82.9873 78.8075 83.342C78.9569 83.6967 79.0315 84.0887 79.0315 84.518C79.0315 85.0967 78.8915 85.666 78.6115 86.226C78.3315 86.7767 77.8695 87.3553 77.2255 87.962C76.5815 88.5687 75.7089 89.2407 74.6075 89.978V89.992C74.7102 89.9827 74.8502 89.978 75.0275 89.978C75.2142 89.9687 75.3962 89.964 75.5735 89.964C75.7602 89.9547 75.9002 89.95 75.9935 89.95H79.2275V91H73.0115ZM84.5578 91V88.578H80.0498V87.752L84.2638 81.76H85.6778V87.612H87.3158V88.578H85.6778V91H84.5578ZM81.2398 87.612H84.5578V84.154C84.5578 83.9113 84.5625 83.664 84.5718 83.412C84.5905 83.16 84.6045 82.9127 84.6138 82.67H84.5858C84.4738 82.9033 84.3292 83.1647 84.1518 83.454C83.9745 83.7433 83.8112 83.9953 83.6618 84.21L81.2398 87.612ZM99.1619 85.624C99.1059 86.3053 98.9239 86.8233 98.6159 87.178C98.3172 87.5327 97.8926 87.71 97.3419 87.71C97.0246 87.71 96.7492 87.6587 96.5159 87.556C96.2826 87.4533 96.0726 87.332 95.8859 87.192C95.7086 87.052 95.5266 86.9307 95.3399 86.828C95.1626 86.7253 94.9619 86.674 94.7379 86.674C94.4952 86.674 94.3039 86.7673 94.1639 86.954C94.0239 87.1407 93.9259 87.3927 93.8699 87.71H92.8059C92.8619 87.0193 93.0392 86.5013 93.3379 86.156C93.6366 85.8013 94.0706 85.624 94.6399 85.624C94.9479 85.624 95.2186 85.6753 95.4519 85.778C95.6852 85.8807 95.8952 86.002 96.0819 86.142C96.2686 86.282 96.4506 86.4033 96.6279 86.506C96.8146 86.6087 97.0152 86.66 97.2299 86.66C97.4726 86.66 97.6639 86.5667 97.8039 86.38C97.9439 86.1933 98.0419 85.9413 98.0979 85.624H99.1619ZM105.012 91V90.09C105.936 89.4087 106.706 88.8113 107.322 88.298C107.947 87.7847 108.447 87.318 108.82 86.898C109.193 86.478 109.459 86.0813 109.618 85.708C109.777 85.3253 109.856 84.9287 109.856 84.518C109.856 83.9673 109.679 83.524 109.324 83.188C108.979 82.8427 108.503 82.67 107.896 82.67C107.261 82.67 106.753 82.88 106.37 83.3C105.987 83.7107 105.763 84.2613 105.698 84.952L104.718 84.364C104.802 83.8227 104.975 83.3467 105.236 82.936C105.507 82.5253 105.866 82.2033 106.314 81.97C106.771 81.7367 107.313 81.62 107.938 81.62C108.414 81.62 108.839 81.69 109.212 81.83C109.595 81.97 109.921 82.1707 110.192 82.432C110.463 82.684 110.668 82.9873 110.808 83.342C110.957 83.6967 111.032 84.0887 111.032 84.518C111.032 85.0967 110.892 85.666 110.612 86.226C110.332 86.7767 109.87 87.3553 109.226 87.962C108.582 88.5687 107.709 89.2407 106.608 89.978V89.992C106.711 89.9827 106.851 89.978 107.028 89.978C107.215 89.9687 107.397 89.964 107.574 89.964C107.761 89.9547 107.901 89.95 107.994 89.95H111.228V91H105.012ZM116.212 91.14C115.167 91.14 114.331 90.734 113.706 89.922C113.081 89.11 112.768 87.9293 112.768 86.38C112.768 84.8307 113.081 83.65 113.706 82.838C114.331 82.026 115.167 81.62 116.212 81.62C117.267 81.62 118.102 82.026 118.718 82.838C119.343 83.65 119.656 84.8307 119.656 86.38C119.656 87.9293 119.343 89.11 118.718 89.922C118.102 90.734 117.267 91.14 116.212 91.14ZM116.212 90.132C116.707 90.132 117.122 89.992 117.458 89.712C117.803 89.4227 118.06 88.998 118.228 88.438C118.405 87.878 118.494 87.192 118.494 86.38C118.494 85.568 118.405 84.882 118.228 84.322C118.06 83.762 117.803 83.342 117.458 83.062C117.122 82.7727 116.707 82.628 116.212 82.628C115.717 82.628 115.297 82.7727 114.952 83.062C114.616 83.342 114.359 83.762 114.182 84.322C114.014 84.882 113.93 85.568 113.93 86.38C113.93 87.192 114.014 87.878 114.182 88.438C114.359 88.998 114.616 89.4227 114.952 89.712C115.297 89.992 115.717 90.132 116.212 90.132ZM121.323 91V90.09C122.247 89.4087 123.017 88.8113 123.633 88.298C124.258 87.7847 124.758 87.318 125.131 86.898C125.504 86.478 125.77 86.0813 125.929 85.708C126.088 85.3253 126.167 84.9287 126.167 84.518C126.167 83.9673 125.99 83.524 125.635 83.188C125.29 82.8427 124.814 82.67 124.207 82.67C123.572 82.67 123.064 82.88 122.681 83.3C122.298 83.7107 122.074 84.2613 122.009 84.952L121.029 84.364C121.113 83.8227 121.286 83.3467 121.547 82.936C121.818 82.5253 122.177 82.2033 122.625 81.97C123.082 81.7367 123.624 81.62 124.249 81.62C124.725 81.62 125.15 81.69 125.523 81.83C125.906 81.97 126.232 82.1707 126.503 82.432C126.774 82.684 126.979 82.9873 127.119 83.342C127.268 83.6967 127.343 84.0887 127.343 84.518C127.343 85.0967 127.203 85.666 126.923 86.226C126.643 86.7767 126.181 87.3553 125.537 87.962C124.893 88.5687 124.02 89.2407 122.919 89.978V89.992C123.022 89.9827 123.162 89.978 123.339 89.978C123.526 89.9687 123.708 89.964 123.885 89.964C124.072 89.9547 124.212 89.95 124.305 89.95H127.539V91H121.323ZM132.187 91.14C131.366 91.14 130.703 90.9533 130.199 90.58C129.704 90.2067 129.322 89.6887 129.051 89.026L130.143 88.452C130.292 88.9373 130.521 89.334 130.829 89.642C131.146 89.9407 131.608 90.09 132.215 90.09C132.644 90.09 133.008 90.0107 133.307 89.852C133.615 89.6933 133.853 89.4693 134.021 89.18C134.189 88.8813 134.273 88.5267 134.273 88.116C134.273 87.6773 134.194 87.3133 134.035 87.024C133.886 86.7253 133.666 86.5013 133.377 86.352C133.088 86.2027 132.733 86.128 132.313 86.128C132.014 86.128 131.734 86.1607 131.473 86.226C131.221 86.282 130.992 86.3753 130.787 86.506C130.582 86.6367 130.404 86.8093 130.255 87.024L129.275 86.842L129.821 81.76H135.015V82.81H130.773L130.409 85.722L130.381 85.848H130.409C130.633 85.6147 130.918 85.428 131.263 85.288C131.618 85.148 132.038 85.078 132.523 85.078C133.111 85.078 133.62 85.204 134.049 85.456C134.488 85.6987 134.828 86.044 135.071 86.492C135.314 86.94 135.435 87.4627 135.435 88.06C135.435 88.536 135.356 88.9653 135.197 89.348C135.038 89.7307 134.814 90.0573 134.525 90.328C134.236 90.5893 133.89 90.79 133.489 90.93C133.097 91.07 132.663 91.14 132.187 91.14ZM141.764 80.78L137.48 91.98H136.43L140.714 80.78H141.764ZM146.419 91V88.578H141.911V87.752L146.125 81.76H147.539V87.612H149.177V88.578H147.539V91H146.419ZM143.101 87.612H146.419V84.154C146.419 83.9113 146.423 83.664 146.433 83.412C146.451 83.16 146.465 82.9127 146.475 82.67H146.447C146.335 82.9033 146.19 83.1647 146.013 83.454C145.835 83.7433 145.672 83.9953 145.523 84.21L143.101 87.612ZM155.299 80.78L151.015 91.98H149.965L154.249 80.78H155.299ZM156.441 91V90.09C157.365 89.4087 158.135 88.8113 158.751 88.298C159.376 87.7847 159.875 87.318 160.249 86.898C160.622 86.478 160.888 86.0813 161.047 85.708C161.205 85.3253 161.285 84.9287 161.285 84.518C161.285 83.9673 161.107 83.524 160.753 83.188C160.407 82.8427 159.931 82.67 159.325 82.67C158.69 82.67 158.181 82.88 157.799 83.3C157.416 83.7107 157.192 84.2613 157.127 84.952L156.147 84.364C156.231 83.8227 156.403 83.3467 156.665 82.936C156.935 82.5253 157.295 82.2033 157.743 81.97C158.2 81.7367 158.741 81.62 159.367 81.62C159.843 81.62 160.267 81.69 160.641 81.83C161.023 81.97 161.35 82.1707 161.621 82.432C161.891 82.684 162.097 82.9873 162.237 83.342C162.386 83.6967 162.461 84.0887 162.461 84.518C162.461 85.0967 162.321 85.666 162.041 86.226C161.761 86.7767 161.299 87.3553 160.655 87.962C160.011 88.5687 159.138 89.2407 158.037 89.978V89.992C158.139 89.9827 158.279 89.978 158.457 89.978C158.643 89.9687 158.825 89.964 159.003 89.964C159.189 89.9547 159.329 89.95 159.423 89.95H162.657V91H156.441ZM167.987 91V88.578H163.479V87.752L167.693 81.76H169.107V87.612H170.745V88.578H169.107V91H167.987ZM164.669 87.612H167.987V84.154C167.987 83.9113 167.992 83.664 168.001 83.412C168.02 83.16 168.034 82.9127 168.043 82.67H168.015C167.903 82.9033 167.758 83.1647 167.581 83.454C167.404 83.7433 167.24 83.9953 167.091 84.21L164.669 87.612Z" fill="white"/>
</g>
<defs>
<filter id="filter0_d_4322_6862" x="0" y="0" width="187" height="118" filterUnits="userSpaceOnUse" color-interpolation-filters="sRGB">
<feFlood flood-opacity="0" result="BackgroundImageFix"/>
<feColorMatrix in="SourceAlpha" type="matrix" values="0 0 0 0 0 0 0 0 0 0 0 0 0 0 0 0 0 0 127 0" result="hardAlpha"/>
<feOffset dy="4"/>
<feGaussianBlur stdDeviation="2"/>
<feComposite in2="hardAlpha" operator="out"/>
<feColorMatrix type="matrix" values="0 0 0 0 0 0 0 0 0 0 0 0 0 0 0 0 0 0 0.1 0"/>
<feBlend mode="normal" in2="BackgroundImageFix" result="effect1_dropShadow_4322_6862"/>
<feBlend mode="normal" in="SourceGraphic" in2="effect1_dropShadow_4322_6862" result="shape"/>
</filter>
</defs>
</svg>
