<svg width="187" height="22" viewBox="0 0 187 22" fill="none" xmlns="http://www.w3.org/2000/svg">
<mask id="path-1-inside-1_4323_6919" fill="white">
<path d="M0 0H187V22H0V0Z"/>
</mask>
<path d="M0 0H187V22H0V0Z" fill="white"/>
<path d="M187 22V21H0V22V23H187V22Z" fill="#CCCCCC" mask="url(#path-1-inside-1_4323_6919)"/>
<g clip-path="url(#clip0_4323_6919)">
<path d="M14.072 7.88H18.08V8.696H14.072V7.88ZM14.024 13.448H18.332V14.264H14.024V13.448ZM15.992 4.952C15.768 5.352 15.488 5.776 15.152 6.224C14.824 6.672 14.46 7.112 14.06 7.544C13.66 7.976 13.244 8.364 12.812 8.708C12.756 8.596 12.672 8.464 12.56 8.312C12.456 8.16 12.36 8.036 12.272 7.94C12.712 7.612 13.136 7.224 13.544 6.776C13.96 6.328 14.34 5.864 14.684 5.384C15.028 4.904 15.3 4.452 15.5 4.028H16.376C16.664 4.476 16.996 4.94 17.372 5.42C17.748 5.892 18.144 6.336 18.56 6.752C18.976 7.168 19.384 7.524 19.784 7.82C19.688 7.932 19.588 8.064 19.484 8.216C19.388 8.368 19.3 8.512 19.22 8.648C18.828 8.32 18.428 7.944 18.02 7.52C17.612 7.096 17.232 6.66 16.88 6.212C16.528 5.764 16.232 5.344 15.992 4.952ZM13.556 10.148H18.716V14.9H17.852V10.964H14.396V14.948H13.556V10.148ZM10.34 3.92L11.132 4.244C10.98 4.524 10.82 4.824 10.652 5.144C10.484 5.464 10.312 5.772 10.136 6.068C9.968 6.364 9.804 6.62 9.644 6.836L9.032 6.56C9.184 6.328 9.34 6.06 9.5 5.756C9.66 5.444 9.816 5.128 9.968 4.808C10.12 4.48 10.244 4.184 10.34 3.92ZM11.696 5.288L12.452 5.636C12.18 6.092 11.876 6.576 11.54 7.088C11.212 7.6 10.88 8.092 10.544 8.564C10.208 9.036 9.888 9.452 9.584 9.812L9.032 9.5C9.256 9.228 9.488 8.92 9.728 8.576C9.976 8.224 10.216 7.86 10.448 7.484C10.688 7.1 10.912 6.72 11.12 6.344C11.336 5.96 11.528 5.608 11.696 5.288ZM8.456 6.452L8.912 5.852C9.136 6.036 9.36 6.244 9.584 6.476C9.816 6.7 10.028 6.924 10.22 7.148C10.412 7.364 10.56 7.56 10.664 7.736L10.172 8.42C10.068 8.236 9.92 8.028 9.728 7.796C9.544 7.556 9.34 7.32 9.116 7.088C8.892 6.856 8.672 6.644 8.456 6.452ZM11.264 8.084L11.9 7.82C12.068 8.076 12.228 8.356 12.38 8.66C12.532 8.956 12.664 9.248 12.776 9.536C12.896 9.816 12.984 10.068 13.04 10.292L12.356 10.592C12.308 10.368 12.224 10.112 12.104 9.824C11.992 9.536 11.864 9.24 11.72 8.936C11.576 8.624 11.424 8.34 11.264 8.084ZM8.408 9.296C8.936 9.28 9.556 9.256 10.268 9.224C10.98 9.192 11.716 9.16 12.476 9.128L12.464 9.86C11.752 9.908 11.048 9.956 10.352 10.004C9.656 10.044 9.036 10.084 8.492 10.124L8.408 9.296ZM11.576 10.904L12.236 10.7C12.396 11.036 12.548 11.412 12.692 11.828C12.844 12.236 12.948 12.588 13.004 12.884L12.32 13.124C12.264 12.82 12.164 12.464 12.02 12.056C11.884 11.64 11.736 11.256 11.576 10.904ZM9.092 10.784L9.86 10.916C9.78 11.484 9.668 12.044 9.524 12.596C9.38 13.14 9.212 13.604 9.02 13.988C8.964 13.948 8.892 13.908 8.804 13.868C8.724 13.828 8.636 13.788 8.54 13.748C8.452 13.7 8.372 13.664 8.3 13.64C8.508 13.272 8.672 12.836 8.792 12.332C8.92 11.82 9.02 11.304 9.092 10.784ZM10.376 9.632H11.18V14.984H10.376V9.632ZM22.892 8.276H28.616V9.116H22.892V8.276ZM23.468 5.636H29.888V6.5H23.468V5.636ZM20.408 10.88H31.148V11.732H20.408V10.88ZM28.304 8.276H29.228C29.228 8.276 29.224 8.304 29.216 8.36C29.216 8.416 29.212 8.48 29.204 8.552C29.204 8.616 29.2 8.672 29.192 8.72C29.072 9.968 28.952 10.988 28.832 11.78C28.712 12.564 28.58 13.172 28.436 13.604C28.3 14.028 28.136 14.336 27.944 14.528C27.792 14.68 27.632 14.78 27.464 14.828C27.304 14.884 27.104 14.924 26.864 14.948C26.648 14.956 26.34 14.956 25.94 14.948C25.548 14.94 25.136 14.924 24.704 14.9C24.696 14.764 24.664 14.612 24.608 14.444C24.552 14.276 24.48 14.128 24.392 14C24.848 14.048 25.276 14.076 25.676 14.084C26.084 14.092 26.372 14.096 26.54 14.096C26.692 14.096 26.812 14.088 26.9 14.072C26.996 14.056 27.084 14.016 27.164 13.952C27.324 13.808 27.468 13.532 27.596 13.124C27.732 12.716 27.856 12.132 27.968 11.372C28.08 10.612 28.192 9.636 28.304 8.444V8.276ZM23.396 3.896L24.332 3.992C24.236 4.456 24.136 4.948 24.032 5.468C23.928 5.988 23.82 6.508 23.708 7.028C23.596 7.548 23.484 8.04 23.372 8.504C23.26 8.968 23.156 9.38 23.06 9.74L22.136 9.656C22.24 9.288 22.348 8.868 22.46 8.396C22.572 7.924 22.684 7.428 22.796 6.908C22.916 6.38 23.028 5.86 23.132 5.348C23.236 4.836 23.324 4.352 23.396 3.896Z" fill="black"/>
</g>
<g clip-path="url(#clip1_4323_6919)">
<path d="M125.008 15V14.22C125.8 13.636 126.46 13.124 126.988 12.684C127.524 12.244 127.952 11.844 128.272 11.484C128.592 11.124 128.82 10.784 128.956 10.464C129.092 10.136 129.16 9.796 129.16 9.444C129.16 8.972 129.008 8.592 128.704 8.304C128.408 8.008 128 7.86 127.48 7.86C126.936 7.86 126.5 8.04 126.172 8.4C125.844 8.752 125.652 9.224 125.596 9.816L124.756 9.312C124.828 8.848 124.976 8.44 125.2 8.088C125.432 7.736 125.74 7.46 126.124 7.26C126.516 7.06 126.98 6.96 127.516 6.96C127.924 6.96 128.288 7.02 128.608 7.14C128.936 7.26 129.216 7.432 129.448 7.656C129.68 7.872 129.856 8.132 129.976 8.436C130.104 8.74 130.168 9.076 130.168 9.444C130.168 9.94 130.048 10.428 129.808 10.908C129.568 11.38 129.172 11.876 128.62 12.396C128.068 12.916 127.32 13.492 126.376 14.124V14.136C126.464 14.128 126.584 14.124 126.736 14.124C126.896 14.116 127.052 14.112 127.204 14.112C127.364 14.104 127.484 14.1 127.564 14.1H130.336V15H125.008ZM134.608 15.12C133.712 15.12 132.996 14.772 132.46 14.076C131.924 13.38 131.656 12.368 131.656 11.04C131.656 9.712 131.924 8.7 132.46 8.004C132.996 7.308 133.712 6.96 134.608 6.96C135.512 6.96 136.228 7.308 136.756 8.004C137.292 8.7 137.56 9.712 137.56 11.04C137.56 12.368 137.292 13.38 136.756 14.076C136.228 14.772 135.512 15.12 134.608 15.12ZM134.608 14.256C135.032 14.256 135.388 14.136 135.676 13.896C135.972 13.648 136.192 13.284 136.336 12.804C136.488 12.324 136.564 11.736 136.564 11.04C136.564 10.344 136.488 9.756 136.336 9.276C136.192 8.796 135.972 8.436 135.676 8.196C135.388 7.948 135.032 7.824 134.608 7.824C134.184 7.824 133.824 7.948 133.528 8.196C133.24 8.436 133.02 8.796 132.868 9.276C132.724 9.756 132.652 10.344 132.652 11.04C132.652 11.736 132.724 12.324 132.868 12.804C133.02 13.284 133.24 13.648 133.528 13.896C133.824 14.136 134.184 14.256 134.608 14.256ZM141.833 15.12C140.937 15.12 140.221 14.772 139.685 14.076C139.149 13.38 138.881 12.368 138.881 11.04C138.881 9.712 139.149 8.7 139.685 8.004C140.221 7.308 140.937 6.96 141.833 6.96C142.737 6.96 143.453 7.308 143.981 8.004C144.517 8.7 144.785 9.712 144.785 11.04C144.785 12.368 144.517 13.38 143.981 14.076C143.453 14.772 142.737 15.12 141.833 15.12ZM141.833 14.256C142.257 14.256 142.613 14.136 142.901 13.896C143.197 13.648 143.417 13.284 143.561 12.804C143.713 12.324 143.789 11.736 143.789 11.04C143.789 10.344 143.713 9.756 143.561 9.276C143.417 8.796 143.197 8.436 142.901 8.196C142.613 7.948 142.257 7.824 141.833 7.824C141.409 7.824 141.049 7.948 140.753 8.196C140.465 8.436 140.245 8.796 140.093 9.276C139.949 9.756 139.877 10.344 139.877 11.04C139.877 11.736 139.949 12.324 140.093 12.804C140.245 13.284 140.465 13.648 140.753 13.896C141.049 14.136 141.409 14.256 141.833 14.256ZM149.057 15.12C148.161 15.12 147.445 14.772 146.909 14.076C146.373 13.38 146.105 12.368 146.105 11.04C146.105 9.712 146.373 8.7 146.909 8.004C147.445 7.308 148.161 6.96 149.057 6.96C149.961 6.96 150.677 7.308 151.205 8.004C151.741 8.7 152.009 9.712 152.009 11.04C152.009 12.368 151.741 13.38 151.205 14.076C150.677 14.772 149.961 15.12 149.057 15.12ZM149.057 14.256C149.481 14.256 149.837 14.136 150.125 13.896C150.421 13.648 150.641 13.284 150.785 12.804C150.937 12.324 151.013 11.736 151.013 11.04C151.013 10.344 150.937 9.756 150.785 9.276C150.641 8.796 150.421 8.436 150.125 8.196C149.837 7.948 149.481 7.824 149.057 7.824C148.633 7.824 148.273 7.948 147.977 8.196C147.689 8.436 147.469 8.796 147.317 9.276C147.173 9.756 147.101 10.344 147.101 11.04C147.101 11.736 147.173 12.324 147.317 12.804C147.469 13.284 147.689 13.648 147.977 13.896C148.273 14.136 148.633 14.256 149.057 14.256ZM156.282 15.12C155.386 15.12 154.67 14.772 154.134 14.076C153.598 13.38 153.33 12.368 153.33 11.04C153.33 9.712 153.598 8.7 154.134 8.004C154.67 7.308 155.386 6.96 156.282 6.96C157.186 6.96 157.902 7.308 158.43 8.004C158.966 8.7 159.234 9.712 159.234 11.04C159.234 12.368 158.966 13.38 158.43 14.076C157.902 14.772 157.186 15.12 156.282 15.12ZM156.282 14.256C156.706 14.256 157.062 14.136 157.35 13.896C157.646 13.648 157.866 13.284 158.01 12.804C158.162 12.324 158.238 11.736 158.238 11.04C158.238 10.344 158.162 9.756 158.01 9.276C157.866 8.796 157.646 8.436 157.35 8.196C157.062 7.948 156.706 7.824 156.282 7.824C155.858 7.824 155.498 7.948 155.202 8.196C154.914 8.436 154.694 8.796 154.542 9.276C154.398 9.756 154.326 10.344 154.326 11.04C154.326 11.736 154.398 12.324 154.542 12.804C154.694 13.284 154.914 13.648 155.202 13.896C155.498 14.136 155.858 14.256 156.282 14.256ZM163.507 15.12C162.611 15.12 161.895 14.772 161.359 14.076C160.823 13.38 160.555 12.368 160.555 11.04C160.555 9.712 160.823 8.7 161.359 8.004C161.895 7.308 162.611 6.96 163.507 6.96C164.411 6.96 165.127 7.308 165.655 8.004C166.191 8.7 166.459 9.712 166.459 11.04C166.459 12.368 166.191 13.38 165.655 14.076C165.127 14.772 164.411 15.12 163.507 15.12ZM163.507 14.256C163.931 14.256 164.287 14.136 164.575 13.896C164.871 13.648 165.091 13.284 165.235 12.804C165.387 12.324 165.463 11.736 165.463 11.04C165.463 10.344 165.387 9.756 165.235 9.276C165.091 8.796 164.871 8.436 164.575 8.196C164.287 7.948 163.931 7.824 163.507 7.824C163.083 7.824 162.723 7.948 162.427 8.196C162.139 8.436 161.919 8.796 161.767 9.276C161.623 9.756 161.551 10.344 161.551 11.04C161.551 11.736 161.623 12.324 161.767 12.804C161.919 13.284 162.139 13.648 162.427 13.896C162.723 14.136 163.083 14.256 163.507 14.256ZM168.08 5.736H177.488V6.624H168.992V15.972H168.08V5.736ZM177.08 5.736H177.992V14.76C177.992 15.048 177.952 15.268 177.872 15.42C177.792 15.58 177.648 15.704 177.44 15.792C177.24 15.864 176.964 15.908 176.612 15.924C176.268 15.94 175.824 15.948 175.28 15.948C175.272 15.868 175.248 15.772 175.208 15.66C175.168 15.548 175.124 15.436 175.076 15.324C175.036 15.22 174.992 15.128 174.944 15.048C175.216 15.056 175.476 15.06 175.724 15.06C175.98 15.06 176.2 15.06 176.384 15.06C176.568 15.06 176.7 15.06 176.78 15.06C176.892 15.052 176.968 15.028 177.008 14.988C177.056 14.94 177.08 14.864 177.08 14.76V5.736ZM168.584 10.164H177.512V11.052H168.584V10.164ZM172.52 6.18H173.42V10.608H172.52V6.18Z" fill="black"/>
</g>
<defs>
<clipPath id="clip0_4323_6919">
<rect width="96" height="12" fill="white" transform="translate(8 5)"/>
</clipPath>
<clipPath id="clip1_4323_6919">
<rect width="71" height="14" fill="white" transform="translate(108 4)"/>
</clipPath>
</defs>
</svg>
