<svg width="253" height="41" viewBox="0 0 253 41" fill="none" xmlns="http://www.w3.org/2000/svg">
<path d="M4.224 25.924C5.55733 25.38 6.68267 24.7027 7.6 23.892C8.51733 23.0707 9.27467 22.2173 9.872 21.332C10.4907 20.4147 10.944 19.5027 11.232 18.596C11.5307 17.6787 11.744 16.852 11.872 16.116C11.9147 15.9027 11.9467 15.668 11.968 15.412C12 15.156 12.0107 14.9533 12 14.804L13.6 15.028C13.536 15.2413 13.472 15.4707 13.408 15.716C13.3547 15.9507 13.312 16.1427 13.28 16.292C13.0987 17.2413 12.832 18.2067 12.48 19.188C12.1387 20.1587 11.6747 21.0973 11.088 22.004C10.4693 22.964 9.696 23.876 8.768 24.74C7.84 25.5933 6.72533 26.324 5.424 26.932L4.224 25.924ZM3.248 14.996C3.42933 15.2627 3.64267 15.5987 3.888 16.004C4.13333 16.3987 4.384 16.82 4.64 17.268C4.90667 17.716 5.152 18.1427 5.376 18.548C5.61067 18.9533 5.79733 19.284 5.936 19.54L4.656 20.26C4.48533 19.908 4.28267 19.5133 4.048 19.076C3.81333 18.6387 3.568 18.2013 3.312 17.764C3.056 17.316 2.81067 16.9107 2.576 16.548C2.352 16.1747 2.15467 15.8707 1.984 15.636L3.248 14.996ZM17.632 19.572C17.792 19.5827 17.9893 19.5987 18.224 19.62C18.4587 19.6307 18.7147 19.6413 18.992 19.652C19.28 19.652 19.568 19.652 19.856 19.652C20.0267 19.652 20.288 19.652 20.64 19.652C21.0027 19.652 21.424 19.652 21.904 19.652C22.384 19.652 22.8907 19.652 23.424 19.652C23.968 19.652 24.5067 19.652 25.04 19.652C25.584 19.652 26.096 19.652 26.576 19.652C27.0667 19.652 27.488 19.652 27.84 19.652C28.192 19.652 28.4533 19.652 28.624 19.652C29.0293 19.652 29.376 19.6413 29.664 19.62C29.952 19.5987 30.1813 19.5827 30.352 19.572V21.14C30.192 21.1293 29.952 21.1133 29.632 21.092C29.3227 21.0707 28.992 21.06 28.64 21.06C28.4693 21.06 28.2027 21.06 27.84 21.06C27.4773 21.06 27.056 21.06 26.576 21.06C26.1067 21.06 25.6 21.06 25.056 21.06C24.512 21.06 23.968 21.06 23.424 21.06C22.8907 21.06 22.384 21.06 21.904 21.06C21.4347 21.06 21.0187 21.06 20.656 21.06C20.2933 21.06 20.0267 21.06 19.856 21.06C19.4187 21.06 19.0027 21.0707 18.608 21.092C18.2133 21.1027 17.888 21.1187 17.632 21.14V19.572ZM37.392 25.092C37.392 24.9427 37.392 24.644 37.392 24.196C37.392 23.7373 37.392 23.1987 37.392 22.58C37.392 21.9507 37.392 21.2947 37.392 20.612C37.392 19.9187 37.392 19.2467 37.392 18.596C37.392 17.9453 37.392 17.3693 37.392 16.868C37.392 16.3667 37.392 16.004 37.392 15.78C37.392 15.556 37.3813 15.284 37.36 14.964C37.3387 14.644 37.3067 14.3613 37.264 14.116H38.832C38.8107 14.3507 38.784 14.628 38.752 14.948C38.7307 15.268 38.72 15.5453 38.72 15.78C38.72 16.196 38.72 16.6973 38.72 17.284C38.72 17.86 38.72 18.4787 38.72 19.14C38.72 19.7907 38.72 20.4413 38.72 21.092C38.7307 21.732 38.736 22.3347 38.736 22.9C38.736 23.4547 38.736 23.9293 38.736 24.324C38.736 24.708 38.736 24.964 38.736 25.092C38.736 25.2627 38.736 25.46 38.736 25.684C38.7467 25.908 38.7627 26.1373 38.784 26.372C38.8053 26.596 38.8213 26.7987 38.832 26.98H37.28C37.3227 26.724 37.3493 26.42 37.36 26.068C37.3813 25.716 37.392 25.3907 37.392 25.092ZM38.448 18.308C38.9707 18.468 39.5467 18.66 40.176 18.884C40.816 19.0973 41.4667 19.3267 42.128 19.572C42.7893 19.8173 43.4133 20.068 44 20.324C44.5973 20.5693 45.1147 20.804 45.552 21.028L45.008 22.388C44.5493 22.132 44.032 21.8813 43.456 21.636C42.88 21.38 42.288 21.1293 41.68 20.884C41.0827 20.6387 40.5013 20.42 39.936 20.228C39.3813 20.0253 38.8853 19.86 38.448 19.732V18.308ZM53.808 13.588H54.816V27.22H53.808V13.588ZM51.632 14.772H52.544V25.476H51.632V14.772ZM49.456 13.636H50.448V20.1C50.448 21.0707 50.4213 22.004 50.368 22.9C50.3253 23.796 50.2133 24.644 50.032 25.444C49.8613 26.244 49.5947 27.0067 49.232 27.732C49.1787 27.6573 49.104 27.572 49.008 27.476C48.912 27.3907 48.8107 27.3053 48.704 27.22C48.5973 27.1347 48.5013 27.0707 48.416 27.028C48.8853 26.0467 49.1733 24.9747 49.28 23.812C49.3973 22.6493 49.456 21.412 49.456 20.1V13.636ZM55.552 13.812H63.168V14.868H55.552V13.812ZM57.168 19.764V21.332H61.584V19.764H57.168ZM57.168 22.212V23.812H61.584V22.212H57.168ZM57.168 17.316V18.868H61.584V17.316H57.168ZM56.064 16.388H62.736V24.74H56.064V16.388ZM58.88 14.34L60.192 14.516C60.064 14.964 59.9307 15.4227 59.792 15.892C59.6533 16.3507 59.5147 16.7507 59.376 17.092L58.368 16.884C58.432 16.6493 58.496 16.3827 58.56 16.084C58.624 15.7747 58.6827 15.4653 58.736 15.156C58.8 14.8467 58.848 14.5747 58.88 14.34ZM57.76 25.076L58.784 25.684C58.5173 25.9507 58.2027 26.2173 57.84 26.484C57.488 26.74 57.12 26.98 56.736 27.204C56.352 27.4387 55.9787 27.6413 55.616 27.812C55.52 27.6947 55.3973 27.5613 55.248 27.412C55.1093 27.2627 54.976 27.1347 54.848 27.028C55.2107 26.868 55.5733 26.6813 55.936 26.468C56.3093 26.244 56.656 26.0093 56.976 25.764C57.296 25.5187 57.5573 25.2893 57.76 25.076ZM60.016 25.7L60.912 25.108C61.2107 25.3 61.5253 25.5187 61.856 25.764C62.1973 25.9987 62.5227 26.2333 62.832 26.468C63.1413 26.7027 63.392 26.9213 63.584 27.124L62.656 27.796C62.4747 27.5933 62.2347 27.3693 61.936 27.124C61.6373 26.8787 61.3173 26.6333 60.976 26.388C60.6453 26.132 60.3253 25.9027 60.016 25.7Z" fill="#1E1E1E"/>
<path d="M72 8.5C72 4.08172 75.5817 0.5 80 0.5H244C248.418 0.5 252 4.08172 252 8.5V32.5C252 36.9183 248.418 40.5 244 40.5H80C75.5817 40.5 72 36.9183 72 32.5V8.5Z" fill="white"/>
<path d="M80 0.5V1H244V0.5V0H80V0.5ZM252 8.5H251.5V32.5H252H252.5V8.5H252ZM244 40.5V40H80V40.5V41H244V40.5ZM72 32.5H72.5V8.5H72H71.5V32.5H72ZM80 40.5V40C75.8579 40 72.5 36.6421 72.5 32.5H72H71.5C71.5 37.1944 75.3056 41 80 41V40.5ZM252 32.5H251.5C251.5 36.6421 248.142 40 244 40V40.5V41C248.694 41 252.5 37.1944 252.5 32.5H252ZM244 0.5V1C248.142 1 251.5 4.35786 251.5 8.5H252H252.5C252.5 3.80558 248.694 0 244 0V0.5ZM80 0.5V0C75.3056 0 71.5 3.80558 71.5 8.5H72H72.5C72.5 4.35786 75.8579 1 80 1V0.5Z" fill="#D9D9D9"/>
<path d="M89.8864 14.8636L93.3409 24.6591H93.4773L96.9318 14.8636H98.4091L94.1364 26.5H92.6818L88.4091 14.8636H89.8864ZM101.795 26.7045C101.242 26.7045 100.741 26.6004 100.29 26.392C99.839 26.1799 99.4811 25.875 99.2159 25.4773C98.9508 25.0758 98.8182 24.5909 98.8182 24.0227C98.8182 23.5227 98.9167 23.1174 99.1136 22.8068C99.3106 22.4924 99.5739 22.2462 99.9034 22.0682C100.233 21.8902 100.597 21.7576 100.994 21.6705C101.396 21.5795 101.799 21.5076 102.205 21.4545C102.735 21.3864 103.165 21.3352 103.494 21.3011C103.828 21.2633 104.07 21.2008 104.222 21.1136C104.377 21.0265 104.455 20.875 104.455 20.6591V20.6136C104.455 20.053 104.301 19.6174 103.994 19.3068C103.691 18.9962 103.231 18.8409 102.614 18.8409C101.973 18.8409 101.472 18.9811 101.108 19.2614C100.744 19.5417 100.489 19.8409 100.341 20.1591L99.0682 19.7045C99.2955 19.1742 99.5985 18.7614 99.9773 18.4659C100.36 18.1667 100.777 17.9583 101.227 17.8409C101.682 17.7197 102.129 17.6591 102.568 17.6591C102.848 17.6591 103.17 17.6932 103.534 17.7614C103.902 17.8258 104.256 17.9602 104.597 18.1648C104.941 18.3693 105.227 18.678 105.455 19.0909C105.682 19.5038 105.795 20.0568 105.795 20.75V26.5H104.455V25.3182H104.386C104.295 25.5076 104.144 25.7102 103.932 25.9261C103.72 26.142 103.438 26.3258 103.085 26.4773C102.733 26.6288 102.303 26.7045 101.795 26.7045ZM102 25.5C102.53 25.5 102.977 25.3958 103.341 25.1875C103.708 24.9792 103.985 24.7102 104.17 24.3807C104.36 24.0511 104.455 23.7045 104.455 23.3409V22.1136C104.398 22.1818 104.273 22.2443 104.08 22.3011C103.89 22.3542 103.67 22.4015 103.42 22.4432C103.174 22.4811 102.934 22.5152 102.699 22.5455C102.468 22.572 102.28 22.5947 102.136 22.6136C101.788 22.6591 101.462 22.733 101.159 22.8352C100.86 22.9337 100.617 23.0833 100.432 23.2841C100.25 23.4811 100.159 23.75 100.159 24.0909C100.159 24.5568 100.331 24.9091 100.676 25.1477C101.025 25.3826 101.466 25.5 102 25.5ZM109.584 14.8636V26.5H108.243V14.8636H109.584ZM117.54 22.9318V17.7727H118.881V26.5H117.54V25.0227H117.449C117.244 25.4659 116.926 25.8428 116.494 26.1534C116.063 26.4602 115.517 26.6136 114.858 26.6136C114.312 26.6136 113.828 26.4943 113.403 26.2557C112.979 26.0133 112.646 25.6496 112.403 25.1648C112.161 24.6761 112.04 24.0606 112.04 23.3182V17.7727H113.381V23.2273C113.381 23.8636 113.559 24.3712 113.915 24.75C114.275 25.1288 114.733 25.3182 115.29 25.3182C115.623 25.3182 115.962 25.233 116.307 25.0625C116.655 24.892 116.947 24.6307 117.182 24.2784C117.42 23.9261 117.54 23.4773 117.54 22.9318ZM124.996 26.6818C124.155 26.6818 123.429 26.4962 122.82 26.125C122.214 25.75 121.746 25.2273 121.416 24.5568C121.09 23.8826 120.928 23.0985 120.928 22.2045C120.928 21.3106 121.09 20.5227 121.416 19.8409C121.746 19.1553 122.204 18.6212 122.791 18.2386C123.382 17.8523 124.071 17.6591 124.859 17.6591C125.314 17.6591 125.763 17.7348 126.206 17.8864C126.649 18.0379 127.053 18.2841 127.416 18.625C127.78 18.9621 128.07 19.4091 128.286 19.9659C128.501 20.5227 128.609 21.2083 128.609 22.0227V22.5909H121.882V21.4318H127.246C127.246 20.9394 127.147 20.5 126.95 20.1136C126.757 19.7273 126.481 19.4223 126.121 19.1989C125.765 18.9754 125.344 18.8636 124.859 18.8636C124.325 18.8636 123.863 18.9962 123.473 19.2614C123.087 19.5227 122.789 19.8636 122.581 20.2841C122.373 20.7045 122.268 21.1553 122.268 21.6364V22.4091C122.268 23.0682 122.382 23.6269 122.609 24.0852C122.84 24.5398 123.161 24.8864 123.57 25.125C123.979 25.3598 124.454 25.4773 124.996 25.4773C125.348 25.4773 125.666 25.428 125.95 25.3295C126.238 25.2273 126.486 25.0758 126.695 24.875C126.903 24.6705 127.064 24.4167 127.178 24.1136L128.473 24.4773C128.337 24.9167 128.107 25.303 127.786 25.6364C127.464 25.9659 127.066 26.2235 126.592 26.4091C126.119 26.5909 125.587 26.6818 124.996 26.6818Z" fill="#1E1E1E"/>
<path d="M228 18.5L232 22.5L236 18.5" stroke="#1E1E1E" stroke-width="1.6" stroke-linecap="round" stroke-linejoin="round"/>
</svg>
