<svg width="187" height="32" viewBox="0 0 187 32" fill="none" xmlns="http://www.w3.org/2000/svg">
<mask id="path-1-inside-1_4323_6920" fill="white">
<path d="M0 0H187V32H0V0Z"/>
</mask>
<path d="M0 0H187V32H0V0Z" fill="#D0D0D0"/>
<path d="M187 32V31H0V32V33H187V32Z" fill="#D0D0D0" mask="url(#path-1-inside-1_4323_6920)"/>
<path d="M8.322 17.878C8.882 17.766 9.54933 17.6213 10.324 17.444C11.0987 17.2573 11.878 17.0707 12.662 16.884L12.872 18.452C12.1627 18.6573 11.444 18.8627 10.716 19.068C9.988 19.264 9.316 19.4413 8.7 19.6L8.322 17.878ZM11.934 9.198H13.558V22.246H11.934V9.198ZM9.302 10.738H10.856V18.27H9.302V10.738ZM14.048 10.052H19.9V11.704H14.048V10.052ZM19.494 10.052H19.788L20.096 9.982L21.216 10.318C20.9827 12.334 20.5813 14.1073 20.012 15.638C19.452 17.1687 18.724 18.48 17.828 19.572C16.9413 20.6547 15.896 21.5413 14.692 22.232C14.608 22.0827 14.5007 21.9147 14.37 21.728C14.2393 21.5507 14.0993 21.3733 13.95 21.196C13.8007 21.028 13.6607 20.888 13.53 20.776C14.342 20.3747 15.0793 19.8473 15.742 19.194C16.414 18.5313 17.002 17.7567 17.506 16.87C18.01 15.9833 18.43 14.9987 18.766 13.916C19.102 12.8333 19.3447 11.6667 19.494 10.416V10.052ZM16.12 11.802C16.3813 13.146 16.75 14.406 17.226 15.582C17.702 16.7487 18.3087 17.78 19.046 18.676C19.7833 19.5627 20.684 20.2627 21.748 20.776C21.6173 20.888 21.4727 21.028 21.314 21.196C21.1647 21.3733 21.02 21.5553 20.88 21.742C20.74 21.9287 20.628 22.0967 20.544 22.246C19.4053 21.6207 18.4487 20.8133 17.674 19.824C16.8993 18.8347 16.26 17.6913 15.756 16.394C15.252 15.0967 14.8367 13.664 14.51 12.096L16.12 11.802ZM22.308 20.342H35.132V21.812H22.308V20.342ZM22.518 12.012H34.936V13.482H22.518V12.012ZM24.17 16.576H33.298V21.098H31.744V17.99H30.736V21.098H29.196V17.99H28.188V21.098H26.662V17.99H25.668V21.098H24.17V16.576ZM24.52 9.856L25.962 9.212C26.1673 9.464 26.368 9.73467 26.564 10.024C26.7693 10.3133 26.956 10.598 27.124 10.878C27.292 11.158 27.4273 11.4147 27.53 11.648L26.018 12.404C25.9247 12.1707 25.794 11.9047 25.626 11.606C25.4673 11.3073 25.29 11.004 25.094 10.696C24.9073 10.388 24.716 10.108 24.52 9.856ZM31.352 9.1L33.144 9.632C32.8547 10.108 32.5467 10.5793 32.22 11.046C31.9027 11.5033 31.6133 11.8953 31.352 12.222L29.868 11.718C30.0453 11.4847 30.2273 11.214 30.414 10.906C30.6007 10.598 30.7733 10.29 30.932 9.982C31.1 9.66467 31.24 9.37067 31.352 9.1ZM26.27 12.348L27.95 12.852C27.5953 13.5987 27.1707 14.3033 26.676 14.966C26.1907 15.6287 25.6587 16.24 25.08 16.8C24.5107 17.3507 23.9227 17.8267 23.316 18.228C23.232 18.1067 23.1107 17.9667 22.952 17.808C22.7933 17.64 22.63 17.4767 22.462 17.318C22.294 17.1593 22.1447 17.0287 22.014 16.926C22.91 16.4313 23.736 15.7827 24.492 14.98C25.248 14.1773 25.8407 13.3 26.27 12.348ZM30.89 12.362C31.1887 12.95 31.576 13.524 32.052 14.084C32.528 14.6347 33.0553 15.1433 33.634 15.61C34.222 16.0767 34.8287 16.4547 35.454 16.744C35.3327 16.8467 35.1927 16.982 35.034 17.15C34.8847 17.3087 34.7447 17.472 34.614 17.64C34.4833 17.808 34.376 17.962 34.292 18.102C33.6387 17.738 33.0087 17.29 32.402 16.758C31.7953 16.226 31.24 15.6287 30.736 14.966C30.232 14.3033 29.7933 13.6127 29.42 12.894L30.89 12.362ZM38.954 13.622H45.968V15.106H38.954V13.622ZM38.772 20.272H46.01V21.756H38.772V20.272ZM38.03 16.506H46.962V22.274H45.226V17.976H39.682V22.274H38.03V16.506ZM42.398 10.766C42.0153 11.3167 41.53 11.8767 40.942 12.446C40.3633 13.0153 39.7147 13.5613 38.996 14.084C38.2867 14.6067 37.5493 15.078 36.784 15.498C36.7093 15.3673 36.6113 15.218 36.49 15.05C36.378 14.882 36.252 14.7187 36.112 14.56C35.9813 14.392 35.8507 14.252 35.72 14.14C36.532 13.7387 37.3067 13.258 38.044 12.698C38.7907 12.138 39.458 11.5453 40.046 10.92C40.634 10.2947 41.1007 9.69733 41.446 9.128H43.196C43.5693 9.66 43.9893 10.1687 44.456 10.654C44.9227 11.1393 45.4127 11.592 45.926 12.012C46.4487 12.432 46.99 12.8053 47.55 13.132C48.11 13.4587 48.6653 13.734 49.216 13.958C49.0107 14.1727 48.8147 14.4153 48.628 14.686C48.4413 14.9473 48.2733 15.2087 48.124 15.47C47.5827 15.19 47.0367 14.868 46.486 14.504C45.9353 14.1307 45.4033 13.7387 44.89 13.328C44.386 12.908 43.9193 12.4833 43.49 12.054C43.0607 11.6153 42.6967 11.186 42.398 10.766ZM55.278 13.818H62.866V15.484H55.278V13.818ZM58.232 9.17H59.926V22.26H58.232V9.17ZM50.266 13.398H54.788V14.672H50.266V13.398ZM50.35 9.548H54.802V10.808H50.35V9.548ZM50.266 15.316H54.788V16.576H50.266V15.316ZM49.58 11.424H55.334V12.754H49.58V11.424ZM51.036 17.248H54.746V21.518H51.036V20.188H53.262V18.578H51.036V17.248ZM50.224 17.248H51.68V22.064H50.224V17.248Z" fill="black"/>
<path d="M114.131 21V19.46C114.925 18.9653 115.601 18.5033 116.161 18.074C116.721 17.6447 117.174 17.2387 117.519 16.856C117.874 16.4733 118.135 16.1093 118.303 15.764C118.471 15.4187 118.555 15.0827 118.555 14.756C118.555 14.4013 118.448 14.1073 118.233 13.874C118.028 13.6313 117.72 13.51 117.309 13.51C116.871 13.51 116.53 13.6733 116.287 14C116.045 14.3173 115.914 14.784 115.895 15.4L113.837 14.77C113.856 14.0793 114.019 13.5007 114.327 13.034C114.645 12.5673 115.074 12.2173 115.615 11.984C116.157 11.7413 116.773 11.62 117.463 11.62C118.07 11.62 118.593 11.7087 119.031 11.886C119.479 12.054 119.843 12.2827 120.123 12.572C120.403 12.852 120.609 13.1693 120.739 13.524C120.879 13.8693 120.949 14.224 120.949 14.588C120.949 15.1853 120.795 15.7453 120.487 16.268C120.179 16.7813 119.731 17.2807 119.143 17.766C118.565 18.242 117.86 18.7227 117.029 19.208V19.222C117.188 19.2127 117.375 19.2033 117.589 19.194C117.804 19.1847 118.028 19.18 118.261 19.18C118.495 19.1707 118.705 19.166 118.891 19.166H121.061V21H114.131ZM125.859 21.14C124.599 21.14 123.643 20.7387 122.989 19.936C122.345 19.1333 122.023 17.948 122.023 16.38C122.023 14.812 122.345 13.6267 122.989 12.824C123.643 12.0213 124.599 11.62 125.859 11.62C127.119 11.62 128.071 12.0213 128.715 12.824C129.369 13.6267 129.695 14.812 129.695 16.38C129.695 17.948 129.369 19.1333 128.715 19.936C128.071 20.7387 127.119 21.14 125.859 21.14ZM125.859 19.264C126.205 19.264 126.485 19.1707 126.699 18.984C126.914 18.788 127.068 18.48 127.161 18.06C127.264 17.6307 127.315 17.0707 127.315 16.38C127.315 15.6893 127.264 15.134 127.161 14.714C127.068 14.2847 126.914 13.9767 126.699 13.79C126.485 13.594 126.205 13.496 125.859 13.496C125.523 13.496 125.243 13.594 125.019 13.79C124.805 13.9767 124.646 14.2847 124.543 14.714C124.45 15.134 124.403 15.6893 124.403 16.38C124.403 17.0707 124.45 17.6307 124.543 18.06C124.646 18.48 124.805 18.788 125.019 18.984C125.243 19.1707 125.523 19.264 125.859 19.264ZM134.589 21.14C133.329 21.14 132.372 20.7387 131.719 19.936C131.075 19.1333 130.753 17.948 130.753 16.38C130.753 14.812 131.075 13.6267 131.719 12.824C132.372 12.0213 133.329 11.62 134.589 11.62C135.849 11.62 136.801 12.0213 137.445 12.824C138.098 13.6267 138.425 14.812 138.425 16.38C138.425 17.948 138.098 19.1333 137.445 19.936C136.801 20.7387 135.849 21.14 134.589 21.14ZM134.589 19.264C134.934 19.264 135.214 19.1707 135.429 18.984C135.644 18.788 135.798 18.48 135.891 18.06C135.994 17.6307 136.045 17.0707 136.045 16.38C136.045 15.6893 135.994 15.134 135.891 14.714C135.798 14.2847 135.644 13.9767 135.429 13.79C135.214 13.594 134.934 13.496 134.589 13.496C134.253 13.496 133.973 13.594 133.749 13.79C133.534 13.9767 133.376 14.2847 133.273 14.714C133.18 15.134 133.133 15.6893 133.133 16.38C133.133 17.0707 133.18 17.6307 133.273 18.06C133.376 18.48 133.534 18.788 133.749 18.984C133.973 19.1707 134.253 19.264 134.589 19.264ZM143.319 21.14C142.059 21.14 141.102 20.7387 140.449 19.936C139.805 19.1333 139.483 17.948 139.483 16.38C139.483 14.812 139.805 13.6267 140.449 12.824C141.102 12.0213 142.059 11.62 143.319 11.62C144.579 11.62 145.531 12.0213 146.175 12.824C146.828 13.6267 147.155 14.812 147.155 16.38C147.155 17.948 146.828 19.1333 146.175 19.936C145.531 20.7387 144.579 21.14 143.319 21.14ZM143.319 19.264C143.664 19.264 143.944 19.1707 144.159 18.984C144.373 18.788 144.527 18.48 144.621 18.06C144.723 17.6307 144.775 17.0707 144.775 16.38C144.775 15.6893 144.723 15.134 144.621 14.714C144.527 14.2847 144.373 13.9767 144.159 13.79C143.944 13.594 143.664 13.496 143.319 13.496C142.983 13.496 142.703 13.594 142.479 13.79C142.264 13.9767 142.105 14.2847 142.003 14.714C141.909 15.134 141.863 15.6893 141.863 16.38C141.863 17.0707 141.909 17.6307 142.003 18.06C142.105 18.48 142.264 18.788 142.479 18.984C142.703 19.1707 142.983 19.264 143.319 19.264ZM152.048 21.14C150.788 21.14 149.832 20.7387 149.178 19.936C148.534 19.1333 148.212 17.948 148.212 16.38C148.212 14.812 148.534 13.6267 149.178 12.824C149.832 12.0213 150.788 11.62 152.048 11.62C153.308 11.62 154.26 12.0213 154.904 12.824C155.558 13.6267 155.884 14.812 155.884 16.38C155.884 17.948 155.558 19.1333 154.904 19.936C154.26 20.7387 153.308 21.14 152.048 21.14ZM152.048 19.264C152.394 19.264 152.674 19.1707 152.888 18.984C153.103 18.788 153.257 18.48 153.35 18.06C153.453 17.6307 153.504 17.0707 153.504 16.38C153.504 15.6893 153.453 15.134 153.35 14.714C153.257 14.2847 153.103 13.9767 152.888 13.79C152.674 13.594 152.394 13.496 152.048 13.496C151.712 13.496 151.432 13.594 151.208 13.79C150.994 13.9767 150.835 14.2847 150.732 14.714C150.639 15.134 150.592 15.6893 150.592 16.38C150.592 17.0707 150.639 17.6307 150.732 18.06C150.835 18.48 150.994 18.788 151.208 18.984C151.432 19.1707 151.712 19.264 152.048 19.264ZM160.778 21.14C159.518 21.14 158.562 20.7387 157.908 19.936C157.264 19.1333 156.942 17.948 156.942 16.38C156.942 14.812 157.264 13.6267 157.908 12.824C158.562 12.0213 159.518 11.62 160.778 11.62C162.038 11.62 162.99 12.0213 163.634 12.824C164.288 13.6267 164.614 14.812 164.614 16.38C164.614 17.948 164.288 19.1333 163.634 19.936C162.99 20.7387 162.038 21.14 160.778 21.14ZM160.778 19.264C161.124 19.264 161.404 19.1707 161.618 18.984C161.833 18.788 161.987 18.48 162.08 18.06C162.183 17.6307 162.234 17.0707 162.234 16.38C162.234 15.6893 162.183 15.134 162.08 14.714C161.987 14.2847 161.833 13.9767 161.618 13.79C161.404 13.594 161.124 13.496 160.778 13.496C160.442 13.496 160.162 13.594 159.938 13.79C159.724 13.9767 159.565 14.2847 159.462 14.714C159.369 15.134 159.322 15.6893 159.322 16.38C159.322 17.0707 159.369 17.6307 159.462 18.06C159.565 18.48 159.724 18.788 159.938 18.984C160.162 19.1707 160.442 19.264 160.778 19.264ZM166.12 9.996H177.096V11.662H167.8V22.246H166.12V9.996ZM176.298 9.996H177.992V20.286C177.992 20.734 177.936 21.084 177.824 21.336C177.712 21.5973 177.511 21.798 177.222 21.938C176.933 22.078 176.569 22.162 176.13 22.19C175.701 22.2273 175.173 22.246 174.548 22.246C174.52 22.0873 174.473 21.9053 174.408 21.7C174.343 21.4947 174.268 21.2893 174.184 21.084C174.1 20.888 174.016 20.7153 173.932 20.566C174.203 20.5847 174.473 20.5987 174.744 20.608C175.024 20.608 175.271 20.608 175.486 20.608C175.701 20.608 175.85 20.608 175.934 20.608C176.065 20.5987 176.158 20.5707 176.214 20.524C176.27 20.468 176.298 20.3793 176.298 20.258V9.996ZM167.03 15.204H177.124V16.856H167.03V15.204ZM171.118 10.906H172.798V16.03H171.118V10.906Z" fill="black"/>
</svg>
