<svg width="390" height="844" viewBox="0 0 390 844" fill="none" xmlns="http://www.w3.org/2000/svg">
<g clip-path="url(#clip0_4326_2277)">
<rect width="390" height="844" fill="white"/>
<g opacity="0.5" filter="url(#filter0_d_4326_2277)">
<rect width="390" height="52" fill="#E0E0E0"/>
<path d="M30.6666 32.6667H33.3333V27.3334H38.6666V24.6667H33.3333V19.3334H30.6666V24.6667H25.3333V27.3334H30.6666V32.6667ZM32 39.3334C30.1555 39.3334 28.4222 38.9889 26.8 38.3C25.1777 37.5889 23.7666 36.6334 22.5666 35.4334C21.3666 34.2334 20.4111 32.8222 19.7 31.2C19.0111 29.5778 18.6666 27.8445 18.6666 26C18.6666 24.1556 19.0111 22.4222 19.7 20.8C20.4111 19.1778 21.3666 17.7667 22.5666 16.5667C23.7666 15.3667 25.1777 14.4222 26.8 13.7334C28.4222 13.0222 30.1555 12.6667 32 12.6667C33.8444 12.6667 35.5777 13.0222 37.2 13.7334C38.8222 14.4222 40.2333 15.3667 41.4333 16.5667C42.6333 17.7667 43.5777 19.1778 44.2666 20.8C44.9777 22.4222 45.3333 24.1556 45.3333 26C45.3333 27.8445 44.9777 29.5778 44.2666 31.2C43.5777 32.8222 42.6333 34.2334 41.4333 35.4334C40.2333 36.6334 38.8222 37.5889 37.2 38.3C35.5777 38.9889 33.8444 39.3334 32 39.3334ZM32 36.6667C34.9777 36.6667 37.5 35.6334 39.5666 33.5667C41.6333 31.5 42.6666 28.9778 42.6666 26C42.6666 23.0222 41.6333 20.5 39.5666 18.4334C37.5 16.3667 34.9777 15.3334 32 15.3334C29.0222 15.3334 26.5 16.3667 24.4333 18.4334C22.3666 20.5 21.3333 23.0222 21.3333 26C21.3333 28.9778 22.3666 31.5 24.4333 33.5667C26.5 35.6334 29.0222 36.6667 32 36.6667Z" fill="black"/>
<path d="M330 26C330 13.8497 339.85 4 352 4C364.15 4 374 13.8497 374 26C374 38.1503 364.15 48 352 48C339.85 48 330 38.1503 330 26Z" fill="white" style="mix-blend-mode:multiply"/>
<g filter="url(#filter1_d_4326_2277)">
<path d="M330 26C330 13.8497 339.85 4 352 4C364.15 4 374 13.8497 374 26C374 38.1503 364.15 48 352 48C339.85 48 330 38.1503 330 26Z" fill="white" fill-opacity="0.65" shape-rendering="crispEdges"/>
<path d="M330 26C330 13.8497 339.85 4 352 4C364.15 4 374 13.8497 374 26C374 38.1503 364.15 48 352 48C339.85 48 330 38.1503 330 26Z" fill="#F6F6F6" style="mix-blend-mode:color-burn" shape-rendering="crispEdges"/>
<path d="M330 26C330 13.8497 339.85 4 352 4C364.15 4 374 13.8497 374 26C374 38.1503 364.15 48 352 48C339.85 48 330 38.1503 330 26Z" fill="#F6F6F6" style="mix-blend-mode:darken" shape-rendering="crispEdges"/>
</g>
<path d="M330 26C330 13.8497 339.85 4 352 4C364.15 4 374 13.8497 374 26C374 38.1503 364.15 48 352 48C339.85 48 330 38.1503 330 26Z" fill="black" fill-opacity="0.01"/>
<g style="mix-blend-mode:plus-darker">
<path d="M342.105 21.79V19.4824C342.105 18.3812 342.39 17.5483 342.96 16.9839C343.536 16.4194 344.38 16.1372 345.492 16.1372H347.742V17.9634H345.6C345.058 17.9634 344.646 18.1045 344.363 18.3867C344.081 18.6634 343.94 19.0812 343.94 19.6401V21.79H342.105ZM349.178 17.9634V16.1372H354.814V17.9634H349.178ZM360.06 21.79V19.6401C360.06 19.0812 359.913 18.6634 359.62 18.3867C359.332 18.1045 358.923 17.9634 358.392 17.9634H356.25V16.1372H358.5C359.612 16.1372 360.453 16.4222 361.023 16.9922C361.598 17.5566 361.886 18.3867 361.886 19.4824V21.79H360.06ZM360.06 28.8125V23.2344H361.886V28.8125H360.06ZM356.25 35.9097V34.0835H358.392C358.923 34.0835 359.332 33.9424 359.62 33.6602C359.913 33.3779 360.06 32.9601 360.06 32.4067V30.2485H361.886V32.5562C361.886 33.6574 361.598 34.4902 361.023 35.0547C360.453 35.6247 359.612 35.9097 358.5 35.9097H356.25ZM349.178 35.9097V34.0835H354.814V35.9097H349.178ZM345.492 35.9097C344.38 35.9097 343.536 35.6274 342.96 35.063C342.39 34.4985 342.105 33.6629 342.105 32.5562V30.2485H343.94V32.4067C343.94 32.9601 344.081 33.3779 344.363 33.6602C344.646 33.9424 345.058 34.0835 345.6 34.0835H347.742V35.9097H345.492ZM342.105 28.8125V23.2344H343.94V28.8125H342.105Z" fill="#1A1A1A" style="mix-blend-mode:plus-darker"/>
</g>
<path d="M152.725 15.652H154.391V17.998H152.725V15.652ZM146.469 17.097H160.766V20.667H159.117V18.559H148.05V20.667H146.469V17.097ZM148.832 19.987H158.233V21.381H148.832V19.987ZM150.821 22.758L152.045 22.01C152.816 22.5653 153.439 23.1887 153.915 23.88C154.402 24.56 154.754 25.257 154.969 25.971C155.196 26.6737 155.303 27.348 155.292 27.994C155.292 28.64 155.19 29.2123 154.986 29.711C154.793 30.2097 154.521 30.5837 154.17 30.833C153.864 31.0823 153.564 31.2467 153.269 31.326C152.986 31.4167 152.634 31.462 152.215 31.462C152.011 31.4733 151.784 31.4733 151.535 31.462C151.286 31.4507 151.025 31.4393 150.753 31.428C150.742 31.2127 150.696 30.9577 150.617 30.663C150.549 30.3683 150.441 30.1077 150.294 29.881C150.611 29.915 150.906 29.9377 151.178 29.949C151.461 29.9603 151.705 29.966 151.909 29.966C152.136 29.966 152.34 29.949 152.521 29.915C152.702 29.8697 152.872 29.7733 153.031 29.626C153.246 29.4673 153.411 29.2067 153.524 28.844C153.649 28.4813 153.694 28.0563 153.66 27.569C153.637 27.0703 153.524 26.5433 153.32 25.988C153.127 25.4327 152.827 24.8773 152.419 24.322C152.011 23.7667 151.478 23.2453 150.821 22.758ZM153.422 20.327L154.765 20.888C154.176 21.4773 153.462 22.0157 152.623 22.503C151.784 22.9903 150.895 23.421 149.954 23.795C149.025 24.1577 148.107 24.4693 147.2 24.73C147.143 24.628 147.064 24.4977 146.962 24.339C146.86 24.169 146.752 24.0047 146.639 23.846C146.537 23.6873 146.441 23.557 146.35 23.455C147.234 23.2623 148.124 23.013 149.019 22.707C149.914 22.401 150.747 22.0497 151.518 21.653C152.289 21.245 152.923 20.803 153.422 20.327ZM152.181 23.625L153.218 24.356C152.753 24.7413 152.181 25.1323 151.501 25.529C150.832 25.9143 150.13 26.277 149.393 26.617C148.668 26.957 147.988 27.2403 147.353 27.467C147.262 27.2857 147.138 27.076 146.979 26.838C146.82 26.6 146.667 26.4017 146.52 26.243C146.996 26.1183 147.495 25.9597 148.016 25.767C148.549 25.5743 149.07 25.3647 149.58 25.138C150.101 24.9 150.583 24.6563 151.025 24.407C151.478 24.1463 151.864 23.8857 152.181 23.625ZM153.49 25.325L154.595 26.158C154.142 26.5887 153.609 27.025 152.997 27.467C152.385 27.909 151.722 28.3283 151.008 28.725C150.305 29.1217 149.591 29.4843 148.866 29.813C148.141 30.1417 147.444 30.4193 146.775 30.646C146.673 30.4533 146.543 30.2267 146.384 29.966C146.225 29.7053 146.067 29.49 145.908 29.32C146.588 29.1387 147.285 28.9063 147.999 28.623C148.724 28.3397 149.427 28.0223 150.107 27.671C150.787 27.3083 151.416 26.9287 151.994 26.532C152.583 26.124 153.082 25.7217 153.49 25.325ZM155.479 20.565C155.785 21.789 156.199 22.945 156.72 24.033C157.253 25.1097 157.904 26.056 158.675 26.872C159.457 27.688 160.375 28.317 161.429 28.759C161.304 28.861 161.168 28.997 161.021 29.167C160.885 29.3257 160.749 29.4957 160.613 29.677C160.488 29.847 160.386 30.0057 160.307 30.153C159.208 29.609 158.256 28.8837 157.451 27.977C156.658 27.059 155.989 25.9993 155.445 24.798C154.912 23.5853 154.476 22.265 154.136 20.837L155.479 20.565ZM159.389 21.755L160.647 22.826C160.262 23.132 159.842 23.4437 159.389 23.761C158.936 24.067 158.482 24.3617 158.029 24.645C157.576 24.917 157.156 25.155 156.771 25.359L155.751 24.39C156.125 24.1747 156.533 23.9197 156.975 23.625C157.428 23.319 157.865 23.0017 158.284 22.673C158.715 22.3443 159.083 22.0383 159.389 21.755ZM169.057 21.432H178.22V23.013H169.057V21.432ZM172.865 15.703H174.497V31.428H172.865V15.703ZM163.056 20.82H168.445V22.061H163.056V20.82ZM163.141 16.213H168.462V17.471H163.141V16.213ZM163.056 23.115H168.445V24.356H163.056V23.115ZM162.24 18.474H169.091V19.766H162.24V18.474ZM163.787 25.444H168.394V30.493H163.787V29.201H166.966V26.736H163.787V25.444ZM163.022 25.444H164.433V31.224H163.022V25.444ZM183.638 20.446H194.263V21.551H183.638V20.446ZM183.315 27.484H194.416V28.657H183.315V27.484ZM179.915 21.398L180.629 20.293C180.946 20.395 181.281 20.5253 181.632 20.684C181.995 20.8427 182.335 21.007 182.652 21.177C182.981 21.3357 183.247 21.4943 183.451 21.653L182.703 22.877C182.499 22.7183 182.238 22.5483 181.921 22.367C181.615 22.1857 181.281 22.01 180.918 21.84C180.567 21.67 180.232 21.5227 179.915 21.398ZM191.067 19.766L191.866 18.899C192.206 19.0123 192.574 19.1653 192.971 19.358C193.368 19.5393 193.685 19.715 193.923 19.885L193.09 20.854C192.875 20.684 192.569 20.497 192.172 20.293C191.787 20.0777 191.418 19.902 191.067 19.766ZM178.963 24.543L179.66 23.421C179.989 23.5117 180.334 23.6307 180.697 23.778C181.06 23.9253 181.405 24.0783 181.734 24.237C182.074 24.3843 182.352 24.5317 182.567 24.679L181.853 25.937C181.638 25.7783 181.366 25.6197 181.037 25.461C180.72 25.291 180.38 25.1267 180.017 24.968C179.654 24.798 179.303 24.6563 178.963 24.543ZM184.794 29.218L185.882 28.521C186.245 28.7703 186.596 29.065 186.936 29.405C187.276 29.7337 187.531 30.0453 187.701 30.34L186.545 31.105C186.398 30.8103 186.154 30.4873 185.814 30.136C185.485 29.7847 185.145 29.4787 184.794 29.218ZM185.593 24.866V25.767H192.274V24.866H185.593ZM185.593 23.166V24.033H192.274V23.166H185.593ZM184.25 22.282H193.685V26.634H184.25V22.282ZM179.49 30.221C179.796 29.8697 180.136 29.456 180.51 28.98C180.884 28.504 181.264 27.994 181.649 27.45C182.034 26.906 182.397 26.3733 182.737 25.852L183.723 26.838C183.417 27.3253 183.088 27.8297 182.737 28.351C182.397 28.861 182.051 29.3653 181.7 29.864C181.349 30.3513 181.003 30.816 180.663 31.258L179.49 30.221ZM189.996 26.532H191.526V30.051C191.526 30.391 191.475 30.646 191.373 30.816C191.282 30.9973 191.107 31.139 190.846 31.241C190.585 31.3317 190.257 31.3827 189.86 31.394C189.475 31.4053 188.987 31.411 188.398 31.411C188.364 31.2297 188.302 31.0313 188.211 30.816C188.12 30.6007 188.03 30.408 187.939 30.238C188.324 30.2493 188.687 30.255 189.027 30.255C189.367 30.255 189.594 30.255 189.707 30.255C189.82 30.255 189.894 30.238 189.928 30.204C189.973 30.17 189.996 30.102 189.996 30V26.532ZM188.109 19.681H189.571V26.26H188.109V19.681ZM181.19 17.063H186.426V18.236H181.19V17.063ZM187.82 17.063H194.467V18.236H187.82V17.063ZM181.496 15.635L182.975 16.043C182.76 16.553 182.499 17.063 182.193 17.573C181.898 18.0717 181.581 18.542 181.241 18.984C180.912 19.426 180.578 19.817 180.238 20.157C180.147 20.0663 180.017 19.97 179.847 19.868C179.688 19.7547 179.524 19.647 179.354 19.545C179.195 19.4317 179.054 19.3467 178.929 19.29C179.45 18.8367 179.938 18.287 180.391 17.641C180.844 16.995 181.213 16.3263 181.496 15.635ZM187.99 15.635L189.469 16.009C189.14 16.791 188.704 17.5333 188.16 18.236C187.616 18.9273 187.055 19.5053 186.477 19.97C186.386 19.8907 186.256 19.8057 186.086 19.715C185.916 19.613 185.746 19.5167 185.576 19.426C185.406 19.324 185.253 19.2447 185.117 19.188C185.729 18.7687 186.284 18.2473 186.783 17.624C187.293 17.0007 187.695 16.3377 187.99 15.635ZM182.21 18.1L183.468 17.726C183.683 18.0093 183.899 18.3267 184.114 18.678C184.341 19.0293 184.505 19.3353 184.607 19.596L183.281 20.021C183.19 19.7603 183.043 19.4487 182.839 19.086C182.635 18.712 182.425 18.3833 182.21 18.1ZM188.925 17.981L190.132 17.556C190.393 17.8393 190.648 18.1567 190.897 18.508C191.146 18.848 191.333 19.154 191.458 19.426L190.166 19.902C190.064 19.63 189.894 19.3127 189.656 18.95C189.418 18.5873 189.174 18.2643 188.925 17.981ZM210.799 18.508C210.72 18.5987 210.623 18.7177 210.51 18.865C210.408 19.001 210.317 19.12 210.238 19.222C210 19.6413 209.666 20.1343 209.235 20.701C208.816 21.2677 208.334 21.84 207.79 22.418C207.257 22.9847 206.685 23.4833 206.073 23.914L204.662 22.775C205.036 22.5597 205.399 22.3047 205.75 22.01C206.113 21.704 206.447 21.3867 206.753 21.058C207.07 20.7293 207.348 20.412 207.586 20.106C207.824 19.7887 208.005 19.5053 208.13 19.256C207.971 19.256 207.699 19.256 207.314 19.256C206.94 19.256 206.487 19.256 205.954 19.256C205.433 19.256 204.872 19.256 204.271 19.256C203.682 19.256 203.092 19.256 202.503 19.256C201.914 19.256 201.364 19.256 200.854 19.256C200.344 19.256 199.908 19.256 199.545 19.256C199.182 19.256 198.939 19.256 198.814 19.256C198.474 19.256 198.145 19.2673 197.828 19.29C197.511 19.3013 197.171 19.324 196.808 19.358V17.471C197.125 17.505 197.454 17.539 197.794 17.573C198.134 17.607 198.474 17.624 198.814 17.624C198.939 17.624 199.188 17.624 199.562 17.624C199.936 17.624 200.384 17.624 200.905 17.624C201.438 17.624 202.01 17.624 202.622 17.624C203.234 17.624 203.846 17.624 204.458 17.624C205.07 17.624 205.642 17.624 206.175 17.624C206.708 17.624 207.161 17.624 207.535 17.624C207.909 17.624 208.17 17.624 208.317 17.624C208.442 17.624 208.595 17.624 208.776 17.624C208.969 17.6127 209.15 17.5957 209.32 17.573C209.501 17.5503 209.637 17.5277 209.728 17.505L210.799 18.508ZM203.931 20.769C203.931 21.653 203.908 22.4917 203.863 23.285C203.818 24.0783 203.71 24.832 203.54 25.546C203.381 26.2487 203.132 26.9117 202.792 27.535C202.452 28.147 201.993 28.725 201.415 29.269C200.837 29.813 200.1 30.3117 199.205 30.765L197.641 29.49C197.89 29.4107 198.157 29.303 198.44 29.167C198.735 29.0197 199.012 28.8497 199.273 28.657C199.885 28.2603 200.378 27.8297 200.752 27.365C201.126 26.9003 201.404 26.4017 201.585 25.869C201.778 25.325 201.908 24.7413 201.976 24.118C202.055 23.4947 202.095 22.8317 202.095 22.129C202.095 21.9023 202.089 21.6813 202.078 21.466C202.067 21.2507 202.038 21.0183 201.993 20.769H203.931ZM225.04 17.675C225.04 17.9697 225.142 18.219 225.346 18.423C225.55 18.627 225.799 18.729 226.094 18.729C226.389 18.729 226.638 18.627 226.842 18.423C227.057 18.219 227.165 17.9697 227.165 17.675C227.165 17.3803 227.057 17.131 226.842 16.927C226.638 16.7117 226.389 16.604 226.094 16.604C225.799 16.604 225.55 16.7117 225.346 16.927C225.142 17.131 225.04 17.3803 225.04 17.675ZM224.139 17.675C224.139 17.3123 224.224 16.9837 224.394 16.689C224.575 16.3943 224.813 16.162 225.108 15.992C225.403 15.8107 225.731 15.72 226.094 15.72C226.457 15.72 226.785 15.8107 227.08 15.992C227.375 16.162 227.613 16.3943 227.794 16.689C227.975 16.9837 228.066 17.3123 228.066 17.675C228.066 18.0377 227.975 18.3663 227.794 18.661C227.613 18.9557 227.375 19.1937 227.08 19.375C226.785 19.545 226.457 19.63 226.094 19.63C225.731 19.63 225.403 19.545 225.108 19.375C224.813 19.1937 224.575 18.9557 224.394 18.661C224.224 18.3663 224.139 18.0377 224.139 17.675ZM225.873 18.916C225.805 19.052 225.743 19.205 225.686 19.375C225.641 19.545 225.601 19.7207 225.567 19.902C225.465 20.3327 225.34 20.8143 225.193 21.347C225.057 21.8797 224.881 22.4293 224.666 22.996C224.462 23.5627 224.218 24.118 223.935 24.662C223.663 25.1947 223.357 25.6877 223.017 26.141C222.496 26.7983 221.906 27.4217 221.249 28.011C220.603 28.589 219.866 29.1103 219.039 29.575C218.212 30.0283 217.288 30.4193 216.268 30.748L214.806 29.15C215.917 28.8667 216.88 28.5267 217.696 28.13C218.512 27.7333 219.22 27.28 219.821 26.77C220.433 26.2487 220.977 25.6933 221.453 25.104C221.838 24.6053 222.173 24.05 222.456 23.438C222.751 22.826 222.989 22.214 223.17 21.602C223.363 20.9787 223.499 20.4063 223.578 19.885C223.408 19.885 223.113 19.885 222.694 19.885C222.275 19.885 221.782 19.885 221.215 19.885C220.648 19.885 220.053 19.885 219.43 19.885C218.807 19.885 218.212 19.885 217.645 19.885C217.078 19.885 216.574 19.885 216.132 19.885C215.701 19.885 215.395 19.885 215.214 19.885C214.851 19.885 214.511 19.8907 214.194 19.902C213.877 19.9133 213.605 19.9303 213.378 19.953V18.049C213.548 18.0603 213.735 18.0773 213.939 18.1C214.154 18.1227 214.375 18.1397 214.602 18.151C214.829 18.1623 215.033 18.168 215.214 18.168C215.373 18.168 215.622 18.168 215.962 18.168C216.313 18.168 216.721 18.168 217.186 18.168C217.651 18.168 218.138 18.168 218.648 18.168C219.169 18.168 219.685 18.168 220.195 18.168C220.716 18.168 221.198 18.168 221.64 18.168C222.093 18.168 222.479 18.168 222.796 18.168C223.125 18.168 223.346 18.168 223.459 18.168C223.606 18.168 223.776 18.1623 223.969 18.151C224.173 18.1397 224.366 18.1113 224.547 18.066L225.873 18.916ZM241.321 16.978C241.31 17.1933 241.293 17.4313 241.27 17.692C241.259 17.9527 241.253 18.236 241.253 18.542C241.253 18.8027 241.253 19.1257 241.253 19.511C241.253 19.885 241.253 20.2647 241.253 20.65C241.253 21.024 241.253 21.33 241.253 21.568C241.253 22.5313 241.213 23.3643 241.134 24.067C241.066 24.7697 240.953 25.376 240.794 25.886C240.635 26.3847 240.437 26.8323 240.199 27.229C239.972 27.6143 239.7 27.9827 239.383 28.334C239.02 28.7647 238.601 29.1443 238.125 29.473C237.649 29.7903 237.167 30.0567 236.68 30.272C236.193 30.4873 235.739 30.6687 235.32 30.816L233.909 29.337C234.714 29.133 235.462 28.8553 236.153 28.504C236.856 28.1527 237.468 27.6937 237.989 27.127C238.284 26.7757 238.522 26.4243 238.703 26.073C238.896 25.7217 239.037 25.3307 239.128 24.9C239.23 24.4693 239.298 23.9763 239.332 23.421C239.377 22.8657 239.4 22.214 239.4 21.466C239.4 21.2167 239.4 20.905 239.4 20.531C239.4 20.157 239.4 19.7887 239.4 19.426C239.4 19.0633 239.4 18.7687 239.4 18.542C239.4 18.236 239.389 17.9527 239.366 17.692C239.343 17.4313 239.321 17.1933 239.298 16.978H241.321ZM233.433 17.114C233.422 17.284 233.405 17.4767 233.382 17.692C233.371 17.9073 233.365 18.134 233.365 18.372C233.365 18.474 233.365 18.6667 233.365 18.95C233.365 19.222 233.365 19.5507 233.365 19.936C233.365 20.3213 233.365 20.7237 233.365 21.143C233.365 21.5623 233.365 21.9703 233.365 22.367C233.365 22.7637 233.365 23.115 233.365 23.421C233.365 23.7157 233.365 23.931 233.365 24.067C233.365 24.2823 233.371 24.526 233.382 24.798C233.405 25.0587 233.422 25.274 233.433 25.444H231.478C231.489 25.308 231.501 25.1097 231.512 24.849C231.535 24.577 231.546 24.3163 231.546 24.067C231.546 23.931 231.546 23.71 231.546 23.404C231.546 23.098 231.546 22.7523 231.546 22.367C231.546 21.9703 231.546 21.5623 231.546 21.143C231.546 20.7123 231.546 20.31 231.546 19.936C231.546 19.5507 231.546 19.222 231.546 18.95C231.546 18.6667 231.546 18.474 231.546 18.372C231.546 18.2133 231.54 18.0093 231.529 17.76C231.518 17.4993 231.501 17.284 231.478 17.114H233.433Z" fill="#1A1A1A"/>
</g>
<rect width="390" height="30" transform="translate(0 60)" fill="white"/>
<mask id="path-8-inside-1_4326_2277" fill="white">
<path d="M47 64C47 61.7909 48.7909 60 51 60H115C117.209 60 119 61.7909 119 64V90H47V64Z"/>
</mask>
<path d="M47 60H119H47M119 91H47V89H119V91ZM119 89M47 90V60V90M47 90M119 60V90V60" fill="#303030" mask="url(#path-8-inside-1_4326_2277)"/>
<path d="M67.992 68.456C67.9813 68.5307 67.9653 68.6373 67.944 68.776C67.9333 68.904 67.9227 69.0427 67.912 69.192C67.9013 69.3413 67.896 69.4747 67.896 69.592C67.896 69.8693 67.896 70.1947 67.896 70.568C67.896 70.9307 67.896 71.288 67.896 71.64C67.896 71.992 67.896 72.3013 67.896 72.568C67.896 72.7813 67.896 73.0907 67.896 73.496C67.896 73.9013 67.896 74.36 67.896 74.872C67.896 75.3733 67.896 75.896 67.896 76.44C67.896 76.984 67.896 77.5067 67.896 78.008C67.896 78.4987 67.896 78.9413 67.896 79.336C67.896 79.72 67.896 80.008 67.896 80.2C67.896 80.616 67.7893 80.9307 67.576 81.144C67.3627 81.3573 67.0107 81.464 66.52 81.464C66.296 81.464 66.0453 81.4587 65.768 81.448C65.5013 81.4373 65.2347 81.4213 64.968 81.4C64.7013 81.3893 64.4613 81.3733 64.248 81.352L64.136 80.088C64.488 80.152 64.8293 80.2 65.16 80.232C65.5013 80.2533 65.7733 80.264 65.976 80.264C66.2 80.264 66.36 80.216 66.456 80.12C66.552 80.024 66.6 79.8693 66.6 79.656C66.6 79.5067 66.6 79.2507 66.6 78.888C66.6 78.5253 66.6 78.0987 66.6 77.608C66.6 77.1173 66.6 76.6053 66.6 76.072C66.6 75.5387 66.6 75.032 66.6 74.552C66.6 74.0613 66.6 73.64 66.6 73.288C66.6 72.936 66.6 72.696 66.6 72.568C66.6 72.376 66.6 72.0987 66.6 71.736C66.6 71.3733 66.6 70.9947 66.6 70.6C66.6 70.2053 66.6 69.8693 66.6 69.592C66.6 69.4213 66.5893 69.2187 66.568 68.984C66.5467 68.7493 66.52 68.5733 66.488 68.456H67.992ZM60.792 71.144C61.0267 71.176 61.2453 71.2027 61.448 71.224C61.6613 71.2347 61.896 71.24 62.152 71.24C62.28 71.24 62.5413 71.24 62.936 71.24C63.3307 71.24 63.8053 71.24 64.36 71.24C64.9253 71.24 65.528 71.24 66.168 71.24C66.808 71.24 67.448 71.24 68.088 71.24C68.7387 71.24 69.3413 71.24 69.896 71.24C70.4613 71.24 70.936 71.24 71.32 71.24C71.7147 71.24 71.9813 71.24 72.12 71.24C72.312 71.24 72.5253 71.2347 72.76 71.224C73.0053 71.2027 73.2293 71.1813 73.432 71.16V72.488C73.2187 72.4667 73 72.456 72.776 72.456C72.552 72.4453 72.3387 72.44 72.136 72.44C71.9973 72.44 71.7307 72.44 71.336 72.44C70.952 72.44 70.4773 72.44 69.912 72.44C69.3573 72.44 68.76 72.44 68.12 72.44C67.48 72.44 66.84 72.44 66.2 72.44C65.56 72.44 64.9573 72.44 64.392 72.44C63.8373 72.44 63.3627 72.44 62.968 72.44C62.5733 72.44 62.3067 72.44 62.168 72.44C61.9227 72.44 61.688 72.4453 61.464 72.456C61.24 72.4667 61.016 72.4827 60.792 72.504V71.144ZM64.472 74.92C64.3013 75.2613 64.088 75.6347 63.832 76.04C63.5867 76.4453 63.3147 76.8507 63.016 77.256C62.728 77.6613 62.44 78.0453 62.152 78.408C61.8747 78.76 61.624 79.0587 61.4 79.304L60.296 78.552C60.5627 78.3067 60.84 78.0133 61.128 77.672C61.4267 77.3307 61.7147 76.968 61.992 76.584C62.2693 76.2 62.5253 75.816 62.76 75.432C62.9947 75.048 63.192 74.696 63.352 74.376L64.472 74.92ZM71.16 74.376C71.3733 74.632 71.6027 74.9413 71.848 75.304C72.104 75.656 72.36 76.0293 72.616 76.424C72.8827 76.8187 73.128 77.2027 73.352 77.576C73.576 77.9493 73.768 78.28 73.928 78.568L72.744 79.224C72.5947 78.904 72.408 78.552 72.184 78.168C71.9707 77.784 71.7413 77.3947 71.496 77C71.2507 76.6053 71 76.232 70.744 75.88C70.4987 75.528 70.2747 75.224 70.072 74.968L71.16 74.376ZM76.632 74.072C76.792 74.0827 76.9893 74.0987 77.224 74.12C77.4587 74.1307 77.7147 74.1413 77.992 74.152C78.28 74.152 78.568 74.152 78.856 74.152C79.0267 74.152 79.288 74.152 79.64 74.152C80.0027 74.152 80.424 74.152 80.904 74.152C81.384 74.152 81.8907 74.152 82.424 74.152C82.968 74.152 83.5067 74.152 84.04 74.152C84.584 74.152 85.096 74.152 85.576 74.152C86.0667 74.152 86.488 74.152 86.84 74.152C87.192 74.152 87.4533 74.152 87.624 74.152C88.0293 74.152 88.376 74.1413 88.664 74.12C88.952 74.0987 89.1813 74.0827 89.352 74.072V75.64C89.192 75.6293 88.952 75.6133 88.632 75.592C88.3227 75.5707 87.992 75.56 87.64 75.56C87.4693 75.56 87.2027 75.56 86.84 75.56C86.4773 75.56 86.056 75.56 85.576 75.56C85.1067 75.56 84.6 75.56 84.056 75.56C83.512 75.56 82.968 75.56 82.424 75.56C81.8907 75.56 81.384 75.56 80.904 75.56C80.4347 75.56 80.0187 75.56 79.656 75.56C79.2933 75.56 79.0267 75.56 78.856 75.56C78.4187 75.56 78.0027 75.5707 77.608 75.592C77.2133 75.6027 76.888 75.6187 76.632 75.64V74.072ZM98.8676 69.064C98.793 69.2667 98.7076 69.48 98.6116 69.704C98.5263 69.928 98.4303 70.2107 98.3236 70.552C98.2276 70.8187 98.105 71.192 97.9556 71.672C97.8063 72.152 97.6356 72.6853 97.4436 73.272C97.2623 73.848 97.065 74.4453 96.8516 75.064C96.649 75.6827 96.4463 76.2853 96.2436 76.872C96.041 77.4587 95.8543 77.9867 95.6836 78.456C95.5236 78.9147 95.385 79.2827 95.2676 79.56L93.8116 79.608C93.9503 79.288 94.1103 78.8827 94.2916 78.392C94.473 77.9013 94.6703 77.352 94.8836 76.744C95.097 76.136 95.305 75.5173 95.5076 74.888C95.721 74.248 95.9236 73.6293 96.1156 73.032C96.3076 72.4347 96.473 71.896 96.6116 71.416C96.761 70.936 96.8783 70.5573 96.9636 70.28C97.0596 69.9067 97.129 69.6133 97.1716 69.4C97.2143 69.176 97.2463 68.9573 97.2676 68.744L98.8676 69.064ZM101.908 74.424C102.196 74.84 102.505 75.3307 102.836 75.896C103.177 76.4613 103.513 77.0587 103.844 77.688C104.185 78.3067 104.494 78.8987 104.772 79.464C105.06 80.0293 105.289 80.52 105.46 80.936L104.116 81.544C103.956 81.1067 103.742 80.5947 103.476 80.008C103.209 79.4107 102.916 78.7973 102.596 78.168C102.286 77.5387 101.966 76.9413 101.636 76.376C101.305 75.8107 100.996 75.3413 100.708 74.968L101.908 74.424ZM93.1876 79.224C93.5716 79.2027 94.0356 79.1707 94.5796 79.128C95.1343 79.0747 95.7316 79.0213 96.3716 78.968C97.0116 78.904 97.6623 78.8347 98.3236 78.76C98.9956 78.6853 99.6463 78.616 100.276 78.552C100.905 78.4773 101.481 78.408 102.004 78.344C102.526 78.2693 102.958 78.2107 103.3 78.168L103.652 79.4C103.289 79.4533 102.83 79.512 102.276 79.576C101.721 79.64 101.118 79.7093 100.468 79.784C99.8276 79.848 99.161 79.9227 98.4676 80.008C97.785 80.0827 97.1183 80.1573 96.4676 80.232C95.817 80.3067 95.2143 80.3707 94.6596 80.424C94.105 80.4773 93.641 80.52 93.2676 80.552C93.065 80.5733 92.8516 80.6 92.6276 80.632C92.4036 80.664 92.1743 80.696 91.9396 80.728L91.6996 79.24C91.945 79.2507 92.1956 79.256 92.4516 79.256C92.7183 79.2453 92.9636 79.2347 93.1876 79.224Z" fill="#303030"/>
<mask id="path-11-inside-2_4326_2277" fill="white">
<path d="M119 64C119 61.7909 120.791 60 123 60H251C253.209 60 255 61.7909 255 64V90H119V64Z"/>
</mask>
<path d="M119 60H255H119M255 91H119V89H255V91ZM255 89M119 90V60V90M119 90M255 60V90V60" fill="#B2B2B2" mask="url(#path-11-inside-2_4326_2277)"/>
<path d="M143.24 68.104C143.379 68.2853 143.528 68.5093 143.688 68.776C143.848 69.032 144.003 69.2933 144.152 69.56C144.301 69.8267 144.435 70.072 144.552 70.296L143.688 70.68C143.528 70.36 143.325 69.9867 143.08 69.56C142.835 69.1333 142.605 68.7707 142.392 68.472L143.24 68.104ZM145 67.464C145.139 67.656 145.288 67.8853 145.448 68.152C145.619 68.4187 145.784 68.6853 145.944 68.952C146.104 69.208 146.237 69.4373 146.344 69.64L145.48 70.024C145.309 69.672 145.101 69.2933 144.856 68.888C144.611 68.472 144.376 68.1147 144.152 67.816L145 67.464ZM137.128 74.04C137.651 74.3387 138.189 74.6693 138.744 75.032C139.309 75.3947 139.875 75.7733 140.44 76.168C141.005 76.5627 141.539 76.9467 142.04 77.32C142.552 77.6933 143.005 78.04 143.4 78.36L142.456 79.464C142.093 79.1333 141.661 78.7707 141.16 78.376C140.659 77.9707 140.12 77.5653 139.544 77.16C138.979 76.744 138.413 76.3493 137.848 75.976C137.283 75.592 136.755 75.2453 136.264 74.936L137.128 74.04ZM144.456 71.128C144.381 71.2347 144.312 71.3733 144.248 71.544C144.184 71.704 144.131 71.848 144.088 71.976C143.928 72.52 143.709 73.1067 143.432 73.736C143.165 74.3653 142.84 75 142.456 75.64C142.083 76.28 141.661 76.888 141.192 77.464C140.467 78.36 139.565 79.2133 138.488 80.024C137.421 80.8347 136.131 81.5227 134.616 82.088L133.464 81.08C134.467 80.7813 135.373 80.4027 136.184 79.944C136.995 79.4853 137.725 78.984 138.376 78.44C139.027 77.896 139.592 77.3413 140.072 76.776C140.488 76.2747 140.867 75.736 141.208 75.16C141.56 74.5733 141.864 73.9867 142.12 73.4C142.376 72.8133 142.563 72.2747 142.68 71.784H136.744L137.272 70.632H142.344C142.557 70.632 142.755 70.6213 142.936 70.6C143.117 70.568 143.272 70.5307 143.4 70.488L144.456 71.128ZM139.064 68.808C138.925 69.0213 138.792 69.2507 138.664 69.496C138.536 69.7307 138.429 69.9227 138.344 70.072C138.024 70.648 137.613 71.288 137.112 71.992C136.611 72.696 136.019 73.3947 135.336 74.088C134.653 74.7813 133.885 75.4213 133.032 76.008L131.96 75.192C132.877 74.616 133.672 73.992 134.344 73.32C135.027 72.6373 135.592 71.9707 136.04 71.32C136.499 70.6693 136.851 70.0987 137.096 69.608C137.181 69.4693 137.277 69.2773 137.384 69.032C137.491 68.7867 137.565 68.5573 137.608 68.344L139.064 68.808ZM154.728 71.784C154.803 71.944 154.899 72.184 155.016 72.504C155.133 72.8133 155.256 73.144 155.384 73.496C155.523 73.848 155.645 74.184 155.752 74.504C155.859 74.8133 155.939 75.0587 155.992 75.24L154.808 75.656C154.765 75.4747 154.691 75.2293 154.584 74.92C154.488 74.6107 154.376 74.28 154.248 73.928C154.12 73.5653 153.992 73.2293 153.864 72.92C153.736 72.6107 153.635 72.3653 153.56 72.184L154.728 71.784ZM160.52 72.68C160.467 72.84 160.419 72.9893 160.376 73.128C160.344 73.256 160.312 73.3733 160.28 73.48C160.067 74.3547 159.779 75.2133 159.416 76.056C159.053 76.888 158.584 77.6667 158.008 78.392C157.272 79.3307 156.44 80.1147 155.512 80.744C154.595 81.3733 153.688 81.8587 152.792 82.2L151.736 81.128C152.355 80.936 152.979 80.68 153.608 80.36C154.248 80.04 154.851 79.656 155.416 79.208C155.992 78.76 156.499 78.264 156.936 77.72C157.32 77.2507 157.661 76.7227 157.96 76.136C158.269 75.5493 158.525 74.9253 158.728 74.264C158.931 73.6027 159.069 72.9307 159.144 72.248L160.52 72.68ZM151.016 72.584C151.101 72.7653 151.208 73.0107 151.336 73.32C151.464 73.6293 151.597 73.9707 151.736 74.344C151.885 74.7067 152.024 75.0587 152.152 75.4C152.291 75.7307 152.397 75.9973 152.472 76.2L151.256 76.648C151.192 76.4453 151.096 76.1733 150.968 75.832C150.851 75.48 150.717 75.1173 150.568 74.744C150.419 74.3707 150.275 74.0293 150.136 73.72C150.008 73.4107 149.907 73.1867 149.832 73.048L151.016 72.584ZM167.816 68.712C168.051 68.84 168.328 69.0053 168.648 69.208C168.968 69.4107 169.299 69.624 169.64 69.848C169.981 70.072 170.296 70.2853 170.584 70.488C170.883 70.68 171.117 70.84 171.288 70.968L170.536 72.056C170.344 71.9173 170.104 71.7467 169.816 71.544C169.528 71.3413 169.219 71.1333 168.888 70.92C168.557 70.696 168.232 70.488 167.912 70.296C167.603 70.0933 167.331 69.9227 167.096 69.784L167.816 68.712ZM165.416 80.152C166.003 80.0453 166.605 79.9067 167.224 79.736C167.843 79.5547 168.456 79.3467 169.064 79.112C169.672 78.8667 170.243 78.5893 170.776 78.28C171.661 77.768 172.483 77.2027 173.24 76.584C173.997 75.9653 174.68 75.304 175.288 74.6C175.896 73.896 176.413 73.1707 176.84 72.424L177.608 73.736C176.915 74.8133 176.035 75.848 174.968 76.84C173.912 77.832 172.744 78.7067 171.464 79.464C170.92 79.7733 170.328 80.0613 169.688 80.328C169.059 80.584 168.435 80.808 167.816 81C167.208 81.192 166.653 81.3413 166.152 81.448L165.416 80.152ZM165.4 72.312C165.635 72.4293 165.917 72.5893 166.248 72.792C166.579 72.984 166.915 73.1867 167.256 73.4C167.597 73.6027 167.917 73.8 168.216 73.992C168.515 74.184 168.749 74.344 168.92 74.472L168.184 75.592C167.981 75.4427 167.731 75.272 167.432 75.08C167.144 74.8773 166.835 74.6747 166.504 74.472C166.173 74.2587 165.848 74.056 165.528 73.864C165.208 73.672 164.931 73.5173 164.696 73.4L165.4 72.312ZM190.792 73.384C190.771 73.4587 190.749 73.544 190.728 73.64C190.707 73.736 190.691 73.816 190.68 73.88C190.659 74.1253 190.616 74.456 190.552 74.872C190.499 75.288 190.435 75.7467 190.36 76.248C190.285 76.7493 190.211 77.2507 190.136 77.752C190.061 78.2427 189.992 78.696 189.928 79.112C189.875 79.5173 189.827 79.832 189.784 80.056H188.424C188.467 79.8747 188.515 79.5973 188.568 79.224C188.632 78.84 188.701 78.408 188.776 77.928C188.861 77.448 188.936 76.968 189 76.488C189.064 75.9973 189.117 75.5547 189.16 75.16C189.213 74.7547 189.245 74.4453 189.256 74.232C189.053 74.232 188.765 74.232 188.392 74.232C188.019 74.232 187.608 74.232 187.16 74.232C186.723 74.232 186.291 74.232 185.864 74.232C185.437 74.232 185.069 74.232 184.76 74.232C184.461 74.232 184.264 74.232 184.168 74.232C183.933 74.232 183.709 74.2373 183.496 74.248C183.293 74.2587 183.091 74.2693 182.888 74.28V72.936C183.016 72.9573 183.149 72.9733 183.288 72.984C183.437 72.9947 183.587 73.0053 183.736 73.016C183.885 73.0267 184.024 73.032 184.152 73.032C184.28 73.032 184.499 73.032 184.808 73.032C185.117 73.032 185.469 73.032 185.864 73.032C186.269 73.032 186.68 73.032 187.096 73.032C187.512 73.032 187.891 73.032 188.232 73.032C188.584 73.032 188.845 73.032 189.016 73.032C189.112 73.032 189.208 73.0267 189.304 73.016C189.411 73.0053 189.512 72.9947 189.608 72.984C189.704 72.9627 189.773 72.9413 189.816 72.92L190.792 73.384ZM181.384 79.544C181.576 79.5547 181.784 79.5707 182.008 79.592C182.232 79.6027 182.467 79.608 182.712 79.608C182.851 79.608 183.139 79.608 183.576 79.608C184.024 79.608 184.552 79.608 185.16 79.608C185.768 79.608 186.403 79.608 187.064 79.608C187.736 79.608 188.376 79.608 188.984 79.608C189.603 79.608 190.131 79.608 190.568 79.608C191.005 79.608 191.293 79.608 191.432 79.608C191.603 79.608 191.811 79.6027 192.056 79.592C192.312 79.5813 192.525 79.5707 192.696 79.56V80.856C192.6 80.8453 192.477 80.84 192.328 80.84C192.179 80.84 192.029 80.84 191.88 80.84C191.731 80.8293 191.597 80.824 191.48 80.824C191.331 80.824 191.032 80.824 190.584 80.824C190.136 80.824 189.603 80.824 188.984 80.824C188.365 80.824 187.72 80.824 187.048 80.824C186.376 80.824 185.736 80.824 185.128 80.824C184.52 80.824 183.997 80.824 183.56 80.824C183.123 80.824 182.84 80.824 182.712 80.824C182.467 80.824 182.243 80.8293 182.04 80.84C181.837 80.84 181.619 80.8507 181.384 80.872V79.544ZM207.032 68.36C207.235 68.6373 207.459 68.984 207.704 69.4C207.949 69.8053 208.152 70.1733 208.312 70.504L207.448 70.888C207.288 70.5573 207.091 70.1893 206.856 69.784C206.621 69.3787 206.397 69.0213 206.184 68.712L207.032 68.36ZM208.92 67.896C209.059 68.0987 209.208 68.328 209.368 68.584C209.539 68.84 209.699 69.096 209.848 69.352C210.008 69.5973 210.136 69.8213 210.232 70.024L209.368 70.408C209.197 70.056 208.995 69.688 208.76 69.304C208.525 68.9093 208.296 68.5627 208.072 68.264L208.92 67.896ZM203.672 68.664C203.661 68.7387 203.645 68.8453 203.624 68.984C203.613 69.1227 203.603 69.2667 203.592 69.416C203.581 69.5653 203.576 69.6987 203.576 69.816C203.576 70.0933 203.576 70.4133 203.576 70.776C203.576 71.1387 203.576 71.496 203.576 71.848C203.576 72.2 203.576 72.5093 203.576 72.776C203.576 72.9893 203.576 73.2987 203.576 73.704C203.576 74.1093 203.576 74.568 203.576 75.08C203.576 75.592 203.576 76.12 203.576 76.664C203.576 77.1973 203.576 77.7147 203.576 78.216C203.576 78.7173 203.576 79.16 203.576 79.544C203.576 79.928 203.576 80.216 203.576 80.408C203.576 80.8347 203.469 81.1547 203.256 81.368C203.043 81.5813 202.691 81.688 202.2 81.688C201.976 81.688 201.725 81.6827 201.448 81.672C201.181 81.6613 200.915 81.6453 200.648 81.624C200.381 81.6027 200.141 81.5867 199.928 81.576L199.816 80.296C200.168 80.36 200.509 80.408 200.84 80.44C201.171 80.472 201.443 80.488 201.656 80.488C201.869 80.488 202.024 80.44 202.12 80.344C202.216 80.2373 202.269 80.0827 202.28 79.88C202.28 79.7307 202.28 79.4747 202.28 79.112C202.28 78.7387 202.28 78.312 202.28 77.832C202.28 77.3413 202.28 76.8293 202.28 76.296C202.28 75.752 202.28 75.24 202.28 74.76C202.28 74.2693 202.28 73.848 202.28 73.496C202.28 73.144 202.28 72.904 202.28 72.776C202.28 72.5947 202.28 72.3227 202.28 71.96C202.28 71.5973 202.28 71.2187 202.28 70.824C202.28 70.4187 202.28 70.0773 202.28 69.8C202.28 69.6293 202.264 69.4267 202.232 69.192C202.211 68.9573 202.189 68.7813 202.168 68.664H203.672ZM196.472 71.368C196.696 71.3893 196.915 71.4107 197.128 71.432C197.341 71.4427 197.576 71.448 197.832 71.448C197.96 71.448 198.221 71.448 198.616 71.448C199.011 71.448 199.485 71.448 200.04 71.448C200.605 71.448 201.208 71.448 201.848 71.448C202.488 71.448 203.128 71.448 203.768 71.448C204.419 71.448 205.021 71.448 205.576 71.448C206.141 71.448 206.616 71.448 207 71.448C207.395 71.448 207.661 71.448 207.8 71.448C207.992 71.448 208.205 71.4427 208.44 71.432C208.685 71.4107 208.909 71.3893 209.112 71.368V72.696C208.899 72.6853 208.675 72.68 208.44 72.68C208.216 72.6693 208.008 72.664 207.816 72.664C207.677 72.664 207.411 72.664 207.016 72.664C206.632 72.664 206.157 72.664 205.592 72.664C205.037 72.664 204.44 72.664 203.8 72.664C203.16 72.664 202.52 72.664 201.88 72.664C201.24 72.664 200.637 72.664 200.072 72.664C199.507 72.664 199.027 72.664 198.632 72.664C198.248 72.664 197.981 72.664 197.832 72.664C197.597 72.664 197.363 72.6693 197.128 72.68C196.904 72.68 196.685 72.6907 196.472 72.712V71.368ZM200.152 75.128C199.981 75.4693 199.768 75.8427 199.512 76.248C199.267 76.6533 198.995 77.064 198.696 77.48C198.408 77.8853 198.12 78.264 197.832 78.616C197.555 78.968 197.304 79.2667 197.08 79.512L195.976 78.776C196.243 78.5307 196.52 78.2373 196.808 77.896C197.096 77.544 197.379 77.176 197.656 76.792C197.944 76.408 198.205 76.0293 198.44 75.656C198.675 75.272 198.872 74.9147 199.032 74.584L200.152 75.128ZM206.84 74.6C207.053 74.856 207.283 75.16 207.528 75.512C207.784 75.864 208.04 76.2427 208.296 76.648C208.563 77.0427 208.808 77.4267 209.032 77.8C209.256 78.1627 209.448 78.488 209.608 78.776L208.424 79.432C208.275 79.112 208.088 78.76 207.864 78.376C207.651 77.992 207.421 77.6027 207.176 77.208C206.931 76.8133 206.68 76.44 206.424 76.088C206.179 75.736 205.955 75.432 205.752 75.176L206.84 74.6ZM212.632 74.072C212.792 74.0827 212.989 74.0987 213.224 74.12C213.459 74.1307 213.715 74.1413 213.992 74.152C214.28 74.152 214.568 74.152 214.856 74.152C215.027 74.152 215.288 74.152 215.64 74.152C216.003 74.152 216.424 74.152 216.904 74.152C217.384 74.152 217.891 74.152 218.424 74.152C218.968 74.152 219.507 74.152 220.04 74.152C220.584 74.152 221.096 74.152 221.576 74.152C222.067 74.152 222.488 74.152 222.84 74.152C223.192 74.152 223.453 74.152 223.624 74.152C224.029 74.152 224.376 74.1413 224.664 74.12C224.952 74.0987 225.181 74.0827 225.352 74.072V75.64C225.192 75.6293 224.952 75.6133 224.632 75.592C224.323 75.5707 223.992 75.56 223.64 75.56C223.469 75.56 223.203 75.56 222.84 75.56C222.477 75.56 222.056 75.56 221.576 75.56C221.107 75.56 220.6 75.56 220.056 75.56C219.512 75.56 218.968 75.56 218.424 75.56C217.891 75.56 217.384 75.56 216.904 75.56C216.435 75.56 216.019 75.56 215.656 75.56C215.293 75.56 215.027 75.56 214.856 75.56C214.419 75.56 214.003 75.5707 213.608 75.592C213.213 75.6027 212.888 75.6187 212.632 75.64V74.072ZM237.496 69.48C237.635 69.672 237.795 69.912 237.976 70.2C238.157 70.4773 238.333 70.7653 238.504 71.064C238.685 71.3627 238.835 71.64 238.952 71.896L238.04 72.312C237.912 72.0347 237.768 71.7573 237.608 71.48C237.459 71.192 237.299 70.9147 237.128 70.648C236.968 70.3707 236.797 70.1147 236.616 69.88L237.496 69.48ZM239.432 68.68C239.571 68.8613 239.731 69.0907 239.912 69.368C240.104 69.6453 240.291 69.9333 240.472 70.232C240.653 70.5307 240.808 70.8027 240.936 71.048L240.04 71.496C239.901 71.2187 239.752 70.9413 239.592 70.664C239.432 70.3867 239.261 70.1147 239.08 69.848C238.909 69.5813 238.733 69.3307 238.552 69.096L239.432 68.68ZM231.88 79.8C231.88 79.6507 231.88 79.352 231.88 78.904C231.88 78.456 231.88 77.9227 231.88 77.304C231.88 76.6747 231.88 76.0133 231.88 75.32C231.88 74.6267 231.88 73.9547 231.88 73.304C231.88 72.6533 231.88 72.0773 231.88 71.576C231.88 71.0747 231.88 70.712 231.88 70.488C231.88 70.264 231.869 69.992 231.848 69.672C231.837 69.352 231.805 69.0693 231.752 68.824H233.336C233.304 69.0693 233.277 69.352 233.256 69.672C233.235 69.9813 233.224 70.2533 233.224 70.488C233.224 70.904 233.224 71.4053 233.224 71.992C233.224 72.568 233.224 73.1867 233.224 73.848C233.224 74.4987 233.224 75.1493 233.224 75.8C233.224 76.44 233.224 77.0427 233.224 77.608C233.224 78.1627 233.224 78.6373 233.224 79.032C233.224 79.416 233.224 79.672 233.224 79.8C233.224 79.96 233.224 80.1573 233.224 80.392C233.235 80.6267 233.251 80.856 233.272 81.08C233.293 81.3147 233.309 81.5173 233.32 81.688H231.784C231.816 81.432 231.837 81.128 231.848 80.776C231.869 80.424 231.88 80.0987 231.88 79.8ZM232.936 73.016C233.459 73.176 234.04 73.368 234.68 73.592C235.32 73.8053 235.965 74.0347 236.616 74.28C237.277 74.5253 237.901 74.776 238.488 75.032C239.085 75.2773 239.608 75.512 240.056 75.736L239.496 77.096C239.037 76.8507 238.52 76.6 237.944 76.344C237.379 76.088 236.792 75.8373 236.184 75.592C235.576 75.3467 234.989 75.128 234.424 74.936C233.869 74.744 233.373 74.5787 232.936 74.44V73.016Z" fill="#767676"/>
<mask id="path-14-inside-3_4326_2277" fill="white">
<path d="M255 64C255 61.7909 256.791 60 259 60H339C341.209 60 343 61.7909 343 64V90H255V64Z"/>
</mask>
<path d="M255 60H343H255M343 91H255V89H343V91ZM343 89M255 90V60V90M255 90M343 60V90V60" fill="#B2B2B2" mask="url(#path-14-inside-3_4326_2277)"/>
<path d="M270.376 72.456H279.72V73.608H270.376V72.456ZM274.984 76.28H280.376V77.4H274.984V76.28ZM274.36 73.032H275.608V81.144L274.36 80.968V73.032ZM270.552 74.968L271.8 75.112C271.576 76.7227 271.203 78.136 270.68 79.352C270.157 80.568 269.448 81.5707 268.552 82.36C268.488 82.2853 268.392 82.1947 268.264 82.088C268.147 81.992 268.024 81.8907 267.896 81.784C267.768 81.688 267.656 81.608 267.56 81.544C268.445 80.8507 269.123 79.944 269.592 78.824C270.072 77.704 270.392 76.4187 270.552 74.968ZM271.32 77.032C271.597 77.8533 271.96 78.5147 272.408 79.016C272.856 79.5173 273.373 79.9013 273.96 80.168C274.547 80.4347 275.192 80.616 275.896 80.712C276.611 80.808 277.379 80.856 278.2 80.856C278.317 80.856 278.509 80.856 278.776 80.856C279.043 80.856 279.341 80.856 279.672 80.856C280.013 80.856 280.36 80.856 280.712 80.856C281.064 80.856 281.384 80.856 281.672 80.856C281.96 80.856 282.179 80.8507 282.328 80.84C282.275 80.936 282.216 81.0587 282.152 81.208C282.088 81.3573 282.029 81.5067 281.976 81.656C281.933 81.8053 281.901 81.9387 281.88 82.056H281.08H278.136C277.187 82.056 276.307 81.992 275.496 81.864C274.696 81.7467 273.971 81.5227 273.32 81.192C272.68 80.8613 272.109 80.392 271.608 79.784C271.107 79.176 270.685 78.3867 270.344 77.416L271.32 77.032ZM274.344 67.56H275.608V70.152H274.344V67.56ZM268.312 69.4H281.688V72.888H280.456V70.552H269.496V72.888H268.312V69.4ZM292.776 68.36H297.208V69.448H292.776V68.36ZM292.776 72.024H297.208V73.096H292.776V72.024ZM292.76 75.752H297.24V76.84H292.76V75.752ZM296.68 68.36H297.832V80.744C297.832 81.0853 297.789 81.352 297.704 81.544C297.619 81.7467 297.459 81.896 297.224 81.992C297 82.088 296.691 82.1467 296.296 82.168C295.912 82.2 295.427 82.216 294.84 82.216C294.819 82.056 294.771 81.8587 294.696 81.624C294.621 81.4 294.541 81.208 294.456 81.048C294.883 81.0693 295.277 81.08 295.64 81.08C296.003 81.08 296.243 81.0747 296.36 81.064C296.477 81.0533 296.557 81.0267 296.6 80.984C296.653 80.9413 296.68 80.856 296.68 80.728V68.36ZM292.28 68.36H293.4V74.168C293.4 74.776 293.379 75.4373 293.336 76.152C293.304 76.8667 293.235 77.592 293.128 78.328C293.021 79.064 292.856 79.7787 292.632 80.472C292.419 81.1547 292.131 81.7787 291.768 82.344C291.704 82.28 291.613 82.2 291.496 82.104C291.379 82.008 291.256 81.9173 291.128 81.832C291.011 81.7573 290.904 81.6987 290.808 81.656C291.256 80.9413 291.581 80.152 291.784 79.288C291.997 78.424 292.131 77.5493 292.184 76.664C292.248 75.768 292.28 74.936 292.28 74.168V68.36ZM283.832 69.688H291.496V70.76H283.832V69.688ZM285.704 72.184H289.768V73.144H285.704V72.184ZM285.72 74.712H289.784V75.688H285.72V74.712ZM283.608 77.304H291.496V78.376H283.608V77.304ZM285.192 67.752H286.28V77.736H285.192V67.752ZM289.192 67.752H290.312V77.736H289.192V67.752ZM285.848 78.712L286.984 79.032C286.696 79.64 286.333 80.2373 285.896 80.824C285.469 81.4 285.043 81.8853 284.616 82.28C284.541 82.216 284.445 82.136 284.328 82.04C284.211 81.9547 284.088 81.8693 283.96 81.784C283.843 81.6987 283.731 81.6293 283.624 81.576C284.072 81.2133 284.493 80.7813 284.888 80.28C285.283 79.7787 285.603 79.256 285.848 78.712ZM288.136 79.208L289.064 78.712C289.277 78.9573 289.491 79.224 289.704 79.512C289.928 79.7893 290.136 80.0667 290.328 80.344C290.52 80.6213 290.669 80.872 290.776 81.096L289.784 81.672C289.699 81.448 289.56 81.1973 289.368 80.92C289.187 80.632 288.989 80.3387 288.776 80.04C288.563 79.7307 288.349 79.4533 288.136 79.208ZM307.176 69.768H313.096V70.936H307.176V69.768ZM299.768 68.552H307.576V69.688H299.768V68.552ZM301.64 71.816H305.784V72.904H301.64V71.816ZM301.64 75.144H305.784V76.232H301.64V75.144ZM312.728 69.768H312.952L313.16 69.72L313.928 69.928C313.672 72.0613 313.24 73.912 312.632 75.48C312.024 77.0373 311.267 78.36 310.36 79.448C309.464 80.5253 308.44 81.3947 307.288 82.056C307.192 81.9067 307.069 81.7307 306.92 81.528C306.771 81.336 306.632 81.1813 306.504 81.064C307.56 80.52 308.515 79.7413 309.368 78.728C310.221 77.7147 310.936 76.4827 311.512 75.032C312.099 73.5813 312.504 71.9173 312.728 70.04V69.768ZM308.632 71C308.92 72.536 309.325 73.9653 309.848 75.288C310.371 76.6107 311.021 77.7733 311.8 78.776C312.589 79.768 313.533 80.5467 314.632 81.112C314.547 81.1867 314.451 81.2827 314.344 81.4C314.237 81.5173 314.136 81.6347 314.04 81.752C313.944 81.88 313.864 81.9973 313.8 82.104C312.637 81.4533 311.645 80.6 310.824 79.544C310.013 78.4773 309.336 77.2453 308.792 75.848C308.259 74.44 307.821 72.8987 307.48 71.224L308.632 71ZM301 68.984H302.152V79.368H301V68.984ZM305.288 68.984H306.456V82.248H305.288V68.984ZM299.432 79.032C299.965 78.9573 300.573 78.8773 301.256 78.792C301.939 78.696 302.664 78.5947 303.432 78.488C304.211 78.3707 304.989 78.2533 305.768 78.136L305.832 79.24C304.733 79.4213 303.635 79.6027 302.536 79.784C301.448 79.9547 300.488 80.0987 299.656 80.216L299.432 79.032ZM321.832 75.304H323.064C323.064 75.304 323.059 75.3413 323.048 75.416C323.048 75.48 323.048 75.5547 323.048 75.64C323.048 75.7253 323.043 75.8 323.032 75.864C322.936 77.1227 322.835 78.1467 322.728 78.936C322.632 79.7253 322.515 80.3387 322.376 80.776C322.248 81.2133 322.093 81.528 321.912 81.72C321.741 81.9013 321.555 82.024 321.352 82.088C321.16 82.1627 320.915 82.2107 320.616 82.232C320.36 82.2533 319.997 82.2587 319.528 82.248C319.069 82.248 318.584 82.2373 318.072 82.216C318.061 82.024 318.019 81.8107 317.944 81.576C317.869 81.3413 317.768 81.1387 317.64 80.968C318.173 81.0107 318.68 81.0373 319.16 81.048C319.64 81.0693 319.976 81.08 320.168 81.08C320.339 81.08 320.477 81.0693 320.584 81.048C320.691 81.0267 320.787 80.9787 320.872 80.904C321.021 80.776 321.149 80.5147 321.256 80.12C321.373 79.7253 321.475 79.1547 321.56 78.408C321.656 77.6507 321.747 76.6747 321.832 75.48V75.304ZM317.096 71.912H318.328C318.232 72.488 318.125 73.1013 318.008 73.752C317.901 74.392 317.789 75.0107 317.672 75.608C317.565 76.2053 317.459 76.7333 317.352 77.192L316.152 77C316.259 76.552 316.371 76.04 316.488 75.464C316.616 74.8773 316.728 74.2747 316.824 73.656C316.931 73.0267 317.021 72.4453 317.096 71.912ZM327.384 67.72H328.584V82.28H327.384V67.72ZM317.128 75.304H322.2V76.424H316.952L317.128 75.304ZM317.528 71.912H321.816V69.352H316.552V68.232H322.984V73.032H317.528V71.912Z" fill="#767676"/>
<rect width="390" height="746" transform="translate(0 98)" fill="white" fill-opacity="0.2"/>
</g>
<defs>
<filter id="filter0_d_4326_2277" x="-4" y="0" width="398" height="60" filterUnits="userSpaceOnUse" color-interpolation-filters="sRGB">
<feFlood flood-opacity="0" result="BackgroundImageFix"/>
<feColorMatrix in="SourceAlpha" type="matrix" values="0 0 0 0 0 0 0 0 0 0 0 0 0 0 0 0 0 0 127 0" result="hardAlpha"/>
<feOffset dy="4"/>
<feGaussianBlur stdDeviation="2"/>
<feComposite in2="hardAlpha" operator="out"/>
<feColorMatrix type="matrix" values="0 0 0 0 0 0 0 0 0 0 0 0 0 0 0 0 0 0 0.47 0"/>
<feBlend mode="normal" in2="BackgroundImageFix" result="effect1_dropShadow_4326_2277"/>
<feBlend mode="normal" in="SourceGraphic" in2="effect1_dropShadow_4326_2277" result="shape"/>
</filter>
<filter id="filter1_d_4326_2277" x="290" y="-28" width="124" height="124" filterUnits="userSpaceOnUse" color-interpolation-filters="sRGB">
<feFlood flood-opacity="0" result="BackgroundImageFix"/>
<feColorMatrix in="SourceAlpha" type="matrix" values="0 0 0 0 0 0 0 0 0 0 0 0 0 0 0 0 0 0 127 0" result="hardAlpha"/>
<feOffset dy="8"/>
<feGaussianBlur stdDeviation="20"/>
<feComposite in2="hardAlpha" operator="out"/>
<feColorMatrix type="matrix" values="0 0 0 0 0 0 0 0 0 0 0 0 0 0 0 0 0 0 0.12 0"/>
<feBlend mode="normal" in2="BackgroundImageFix" result="effect1_dropShadow_4326_2277"/>
<feBlend mode="normal" in="SourceGraphic" in2="effect1_dropShadow_4326_2277" result="shape"/>
</filter>
<clipPath id="clip0_4326_2277">
<rect width="390" height="844" fill="white"/>
</clipPath>
</defs>
</svg>
