<svg xmlns="http://www.w3.org/2000/svg" xmlns:xlink="http://www.w3.org/1999/xlink" contentStyleType="text/css" data-diagram-type="CLASS" height="1263px" preserveAspectRatio="none" style="width:1346px;height:1263px;background:#FFFFFF;" version="1.1" viewBox="0 0 1346 1263" width="1346px" zoomAndPan="magnify"><title>Asset Simulator - Database Entity Relationship Diagram</title><defs/><g><g class="title" data-source-line="3"><text fill="#000000" font-family="Verdana" font-size="22" font-weight="bold" lengthAdjust="spacing" textLength="690.6152" x="323.3984" y="37.1182">Asset Simulator - Database Entity Relationship Diagram</text></g><!--cluster Account Categories--><g class="cluster" data-entity="Account Categories" data-source-line="141" data-uid="ent0030" id="cluster_Account Categories"><path d="M13.5,783.2373 L166.4697,783.2373 A3.75,3.75 0 0 1 168.9697,785.7373 L175.9697,806.252 L188.5,806.252 A2.5,2.5 0 0 1 191,808.752 L191,961.7373 A2.5,2.5 0 0 1 188.5,964.2373 L13.5,964.2373 A2.5,2.5 0 0 1 11,961.7373 L11,785.7373 A2.5,2.5 0 0 1 13.5,783.2373" fill="#FFFFFF" style="stroke:#000000;stroke-width:1;"/><line style="stroke:#000000;stroke-width:1;" x1="11" x2="175.9697" y1="806.252" y2="806.252"/><text fill="#000000" font-family="Verdana" font-size="14" font-weight="bold" lengthAdjust="spacing" textLength="151.9697" x="15" y="799.3125">Account Categories</text></g><!--cluster Frequency Types--><g class="cluster" data-entity="Frequency Types" data-source-line="151" data-uid="ent0032" id="cluster_Frequency Types"><path d="M877.5,1092.7373 L1011.0762,1092.7373 A3.75,3.75 0 0 1 1013.5762,1095.2373 L1020.5762,1115.752 L1084.5,1115.752 A2.5,2.5 0 0 1 1087,1118.252 L1087,1254.2373 A2.5,2.5 0 0 1 1084.5,1256.7373 L877.5,1256.7373 A2.5,2.5 0 0 1 875,1254.2373 L875,1095.2373 A2.5,2.5 0 0 1 877.5,1092.7373" fill="#FFFFFF" style="stroke:#000000;stroke-width:1;"/><line style="stroke:#000000;stroke-width:1;" x1="875" x2="1020.5762" y1="1115.752" y2="1115.752"/><text fill="#000000" font-family="Verdana" font-size="14" font-weight="bold" lengthAdjust="spacing" textLength="132.5762" x="879" y="1108.8125">Frequency Types</text></g><!--class AccountCategory--><g class="entity" data-entity="AccountCategory" data-source-line="142" data-uid="ent0031" id="entity_AccountCategory"><rect fill="#FFFFFF" height="129.0732" rx="2.5" ry="2.5" style="stroke:#000000;stroke-width:1;" width="147.4102" x="27.5" y="819.2373"/><ellipse cx="40.5" cy="833.2373" fill="#FFFFFF" rx="9" ry="9" style="stroke:#000000;stroke-width:1;"/><path d="M36.2344,839.2373 L36.2344,827.0654 L45.2656,827.0654 L45.2656,829.1279 L38.6875,829.1279 L38.6875,831.8311 L44.7969,831.8311 L44.7969,833.8779 L38.6875,833.8779 L38.6875,837.1904 L45.5,837.1904 L45.5,839.2373 L36.2344,839.2373 Z " fill="#000000"/><text fill="#000000" font-family="Verdana" font-size="14" lengthAdjust="spacing" textLength="119.4102" x="52.5" y="838.8052">AccountCategory</text><line style="stroke:#000000;stroke-width:1;" x1="28.5" x2="173.9102" y1="847.2373" y2="847.2373"/><text fill="#000000" font-family="Verdana" font-size="14" lengthAdjust="spacing" textLength="38.0146" x="33.5" y="865.3125">Asset</text><text fill="#000000" font-family="Verdana" font-size="14" lengthAdjust="spacing" textLength="54.0928" x="33.5" y="882.3271">Liability</text><text fill="#000000" font-family="Verdana" font-size="14" lengthAdjust="spacing" textLength="44.0781" x="33.5" y="899.3418">Equity</text><text fill="#000000" font-family="Verdana" font-size="14" lengthAdjust="spacing" textLength="60.7578" x="33.5" y="916.3564">Revenue</text><text fill="#000000" font-family="Verdana" font-size="14" lengthAdjust="spacing" textLength="58.6934" x="33.5" y="933.3711">Expense</text><line style="stroke:#000000;stroke-width:1;" x1="28.5" x2="173.9102" y1="940.3105" y2="940.3105"/></g><!--class RecurrenceFrequency--><g class="entity" data-entity="RecurrenceFrequency" data-source-line="152" data-uid="ent0033" id="entity_RecurrenceFrequency"><rect fill="#FFFFFF" height="112.0586" rx="2.5" ry="2.5" style="stroke:#000000;stroke-width:1;" width="179.7305" x="891" y="1128.7373"/><ellipse cx="904" cy="1142.7373" fill="#FFFFFF" rx="9" ry="9" style="stroke:#000000;stroke-width:1;"/><path d="M899.7344,1148.7373 L899.7344,1136.5654 L908.7656,1136.5654 L908.7656,1138.6279 L902.1875,1138.6279 L902.1875,1141.3311 L908.2969,1141.3311 L908.2969,1143.3779 L902.1875,1143.3779 L902.1875,1146.6904 L909,1146.6904 L909,1148.7373 L899.7344,1148.7373 Z " fill="#000000"/><text fill="#000000" font-family="Verdana" font-size="14" lengthAdjust="spacing" textLength="151.7305" x="916" y="1148.3052">RecurrenceFrequency</text><line style="stroke:#000000;stroke-width:1;" x1="892" x2="1069.7305" y1="1156.7373" y2="1156.7373"/><text fill="#000000" font-family="Verdana" font-size="14" lengthAdjust="spacing" textLength="33.0996" x="897" y="1174.8125">daily</text><text fill="#000000" font-family="Verdana" font-size="14" lengthAdjust="spacing" textLength="48.5488" x="897" y="1191.8271">weekly</text><text fill="#000000" font-family="Verdana" font-size="14" lengthAdjust="spacing" textLength="57.4766" x="897" y="1208.8418">monthly</text><text fill="#000000" font-family="Verdana" font-size="14" lengthAdjust="spacing" textLength="43.1348" x="897" y="1225.8564">yearly</text><line style="stroke:#000000;stroke-width:1;" x1="892" x2="1069.7305" y1="1232.7959" y2="1232.7959"/></g><!--class accounts--><g class="entity" data-entity="accounts" data-source-line="6" data-uid="ent0002" id="entity_accounts"><rect fill="#FFFFFF" height="222.1465" rx="2.5" ry="2.5" style="stroke:#000000;stroke-width:1;" width="198.4121" x="1141" y="422.7373"/><ellipse cx="1205.4448" cy="436.7373" fill="#FFFFFF" rx="9" ry="9" style="stroke:#000000;stroke-width:1;"/><path d="M1201.1792,442.7373 L1201.1792,430.5654 L1210.2104,430.5654 L1210.2104,432.6279 L1203.6323,432.6279 L1203.6323,435.3311 L1209.7417,435.3311 L1209.7417,437.3779 L1203.6323,437.3779 L1203.6323,440.6904 L1210.4448,440.6904 L1210.4448,442.7373 L1201.1792,442.7373 Z " fill="#000000"/><text fill="#000000" font-family="Verdana" font-size="14" lengthAdjust="spacing" textLength="62.0225" x="1222.9448" y="442.3052">accounts</text><line style="stroke:#000000;stroke-width:1;" x1="1142" x2="1338.4121" y1="450.7373" y2="450.7373"/><ellipse cx="1152" cy="464.7446" fill="#FFFFFF" rx="3" ry="3" style="stroke:#000000;stroke-width:1;"/><text fill="#000000" font-family="Verdana" font-size="14" lengthAdjust="spacing" textLength="110.0859" x="1159" y="468.8125">id : string &#171;PK&#187;</text><line style="stroke:#000000;stroke-width:1;" x1="1142" x2="1338.4121" y1="475.752" y2="475.752"/><ellipse cx="1152" cy="489.7593" fill="#FFFFFF" rx="3" ry="3" style="stroke:#000000;stroke-width:1;"/><text fill="#000000" font-family="Verdana" font-size="14" lengthAdjust="spacing" textLength="95.6348" x="1159" y="493.8271">name : string</text><ellipse cx="1152" cy="506.7739" fill="#FFFFFF" rx="3" ry="3" style="stroke:#000000;stroke-width:1;"/><text fill="#000000" font-family="Verdana" font-size="14" lengthAdjust="spacing" textLength="126.8545" x="1159" y="510.8418">institution : string</text><ellipse cx="1152" cy="523.7886" fill="#FFFFFF" rx="3" ry="3" style="stroke:#000000;stroke-width:1;"/><text fill="#000000" font-family="Verdana" font-size="14" lengthAdjust="spacing" textLength="167.8018" x="1159" y="527.8564">branch_number : string</text><ellipse cx="1152" cy="540.8032" fill="#FFFFFF" rx="3" ry="3" style="stroke:#000000;stroke-width:1;"/><text fill="#000000" font-family="Verdana" font-size="14" lengthAdjust="spacing" textLength="87.2744" x="1159" y="544.8711">type : string</text><ellipse cx="1152" cy="557.8179" fill="#FFFFFF" rx="3" ry="3" style="stroke:#000000;stroke-width:1;"/><text fill="#000000" font-family="Verdana" font-size="14" lengthAdjust="spacing" textLength="174.4121" x="1159" y="561.8857">account_number : string</text><ellipse cx="1152" cy="574.8325" fill="#FFFFFF" rx="3" ry="3" style="stroke:#000000;stroke-width:1;"/><text fill="#000000" font-family="Verdana" font-size="14" lengthAdjust="spacing" textLength="164.2744" x="1159" y="578.9004">account_holder : string</text><ellipse cx="1152" cy="591.8472" fill="#FFFFFF" rx="3" ry="3" style="stroke:#000000;stroke-width:1;"/><text fill="#000000" font-family="Verdana" font-size="14" lengthAdjust="spacing" textLength="149.0576" x="1159" y="595.915">user_id : string &#171;FK&#187;</text><line style="stroke:#000000;stroke-width:1;" x1="1142" x2="1338.4121" y1="602.8545" y2="602.8545"/><text fill="#000000" font-family="Verdana" font-size="14" lengthAdjust="spacing" textLength="166.4961" x="1147" y="620.9297">created_at : timestamp</text><text fill="#000000" font-family="Verdana" font-size="14" lengthAdjust="spacing" textLength="171.1924" x="1147" y="637.9443">updated_at : timestamp</text></g><!--class credit_cards--><g class="entity" data-entity="credit_cards" data-source-line="21" data-uid="ent0003" id="entity_credit_cards"><rect fill="#FFFFFF" height="188.1172" rx="2.5" ry="2.5" style="stroke:#000000;stroke-width:1;" width="248.1094" x="1018" y="789.7373"/><ellipse cx="1095.1631" cy="803.7373" fill="#FFFFFF" rx="9" ry="9" style="stroke:#000000;stroke-width:1;"/><path d="M1090.8975,809.7373 L1090.8975,797.5654 L1099.9287,797.5654 L1099.9287,799.6279 L1093.3506,799.6279 L1093.3506,802.3311 L1099.46,802.3311 L1099.46,804.3779 L1093.3506,804.3779 L1093.3506,807.6904 L1100.1631,807.6904 L1100.1631,809.7373 L1090.8975,809.7373 Z " fill="#000000"/><text fill="#000000" font-family="Verdana" font-size="14" lengthAdjust="spacing" textLength="86.2832" x="1112.6631" y="809.3052">credit_cards</text><line style="stroke:#000000;stroke-width:1;" x1="1019" x2="1265.1094" y1="817.7373" y2="817.7373"/><ellipse cx="1029" cy="831.7446" fill="#FFFFFF" rx="3" ry="3" style="stroke:#000000;stroke-width:1;"/><text fill="#000000" font-family="Verdana" font-size="14" lengthAdjust="spacing" textLength="110.0859" x="1036" y="835.8125">id : string &#171;PK&#187;</text><line style="stroke:#000000;stroke-width:1;" x1="1019" x2="1265.1094" y1="842.752" y2="842.752"/><ellipse cx="1029" cy="856.7593" fill="#FFFFFF" rx="3" ry="3" style="stroke:#000000;stroke-width:1;"/><text fill="#000000" font-family="Verdana" font-size="14" lengthAdjust="spacing" textLength="95.6348" x="1036" y="860.8271">name : string</text><ellipse cx="1029" cy="873.7739" fill="#FFFFFF" rx="3" ry="3" style="stroke:#000000;stroke-width:1;"/><text fill="#000000" font-family="Verdana" font-size="14" lengthAdjust="spacing" textLength="148.4629" x="1036" y="877.8418">closing_day : integer</text><ellipse cx="1029" cy="890.7886" fill="#FFFFFF" rx="3" ry="3" style="stroke:#000000;stroke-width:1;"/><text fill="#000000" font-family="Verdana" font-size="14" lengthAdjust="spacing" textLength="161.8613" x="1036" y="894.8564">payment_day : integer</text><ellipse cx="1029" cy="907.8032" fill="#FFFFFF" rx="3" ry="3" style="stroke:#000000;stroke-width:1;"/><text fill="#000000" font-family="Verdana" font-size="14" lengthAdjust="spacing" textLength="224.1094" x="1036" y="911.8711">linked_account_id : string &#171;FK&#187;</text><ellipse cx="1029" cy="924.8179" fill="#FFFFFF" rx="3" ry="3" style="stroke:#000000;stroke-width:1;"/><text fill="#000000" font-family="Verdana" font-size="14" lengthAdjust="spacing" textLength="149.0576" x="1036" y="928.8857">user_id : string &#171;FK&#187;</text><line style="stroke:#000000;stroke-width:1;" x1="1019" x2="1265.1094" y1="935.8252" y2="935.8252"/><text fill="#000000" font-family="Verdana" font-size="14" lengthAdjust="spacing" textLength="166.4961" x="1024" y="953.9004">created_at : timestamp</text><text fill="#000000" font-family="Verdana" font-size="14" lengthAdjust="spacing" textLength="171.1924" x="1024" y="970.915">updated_at : timestamp</text></g><!--class journal_accounts--><g class="entity" data-entity="journal_accounts" data-source-line="34" data-uid="ent0004" id="entity_journal_accounts"><rect fill="#FFFFFF" height="171.1025" rx="2.5" ry="2.5" style="stroke:#000000;stroke-width:1;" width="183.1924" x="533.5" y="448.2373"/><ellipse cx="562.2544" cy="462.2373" fill="#FFFFFF" rx="9" ry="9" style="stroke:#000000;stroke-width:1;"/><path d="M557.9888,468.2373 L557.9888,456.0654 L567.02,456.0654 L567.02,458.1279 L560.4419,458.1279 L560.4419,460.8311 L566.5513,460.8311 L566.5513,462.8779 L560.4419,462.8779 L560.4419,466.1904 L567.2544,466.1904 L567.2544,468.2373 L557.9888,468.2373 Z " fill="#000000"/><text fill="#000000" font-family="Verdana" font-size="14" lengthAdjust="spacing" textLength="120.1826" x="577.7554" y="467.8052">journal_accounts</text><line style="stroke:#000000;stroke-width:1;" x1="534.5" x2="715.6924" y1="476.2373" y2="476.2373"/><ellipse cx="544.5" cy="490.2446" fill="#FFFFFF" rx="3" ry="3" style="stroke:#000000;stroke-width:1;"/><text fill="#000000" font-family="Verdana" font-size="14" lengthAdjust="spacing" textLength="110.0859" x="551.5" y="494.3125">id : string &#171;PK&#187;</text><line style="stroke:#000000;stroke-width:1;" x1="534.5" x2="715.6924" y1="501.252" y2="501.252"/><ellipse cx="544.5" cy="515.2593" fill="#FFFFFF" rx="3" ry="3" style="stroke:#000000;stroke-width:1;"/><text fill="#000000" font-family="Verdana" font-size="14" lengthAdjust="spacing" textLength="95.6348" x="551.5" y="519.3271">name : string</text><ellipse cx="544.5" cy="532.2739" fill="#FFFFFF" rx="3" ry="3" style="stroke:#000000;stroke-width:1;"/><text fill="#000000" font-family="Verdana" font-size="14" lengthAdjust="spacing" textLength="117.4482" x="551.5" y="536.3418">category : string</text><ellipse cx="544.5" cy="549.2886" fill="#FFFFFF" rx="3" ry="3" style="stroke:#000000;stroke-width:1;"/><text fill="#000000" font-family="Verdana" font-size="14" lengthAdjust="spacing" textLength="126.8613" x="551.5" y="553.3564">balance : numeric</text><ellipse cx="544.5" cy="566.3032" fill="#FFFFFF" rx="3" ry="3" style="stroke:#000000;stroke-width:1;"/><text fill="#000000" font-family="Verdana" font-size="14" lengthAdjust="spacing" textLength="149.0576" x="551.5" y="570.3711">user_id : string &#171;FK&#187;</text><line style="stroke:#000000;stroke-width:1;" x1="534.5" x2="715.6924" y1="577.3105" y2="577.3105"/><text fill="#000000" font-family="Verdana" font-size="14" lengthAdjust="spacing" textLength="166.4961" x="539.5" y="595.3857">created_at : timestamp</text><text fill="#000000" font-family="Verdana" font-size="14" lengthAdjust="spacing" textLength="171.1924" x="539.5" y="612.4004">updated_at : timestamp</text></g><!--class journal_entries--><g class="entity" data-entity="journal_entries" data-source-line="46" data-uid="ent0005" id="entity_journal_entries"><rect fill="#FFFFFF" height="205.1318" rx="2.5" ry="2.5" style="stroke:#000000;stroke-width:1;" width="245.9082" x="210" y="781.2373"/><ellipse cx="276.041" cy="795.2373" fill="#FFFFFF" rx="9" ry="9" style="stroke:#000000;stroke-width:1;"/><path d="M271.7754,801.2373 L271.7754,789.0654 L280.8066,789.0654 L280.8066,791.1279 L274.2285,791.1279 L274.2285,793.8311 L280.3379,793.8311 L280.3379,795.8779 L274.2285,795.8779 L274.2285,799.1904 L281.041,799.1904 L281.041,801.2373 L271.7754,801.2373 Z " fill="#000000"/><text fill="#000000" font-family="Verdana" font-size="14" lengthAdjust="spacing" textLength="106.3262" x="293.541" y="800.8052">journal_entries</text><line style="stroke:#000000;stroke-width:1;" x1="211" x2="454.9082" y1="809.2373" y2="809.2373"/><ellipse cx="221" cy="823.2446" fill="#FFFFFF" rx="3" ry="3" style="stroke:#000000;stroke-width:1;"/><text fill="#000000" font-family="Verdana" font-size="14" lengthAdjust="spacing" textLength="110.0859" x="228" y="827.3125">id : string &#171;PK&#187;</text><line style="stroke:#000000;stroke-width:1;" x1="211" x2="454.9082" y1="834.252" y2="834.252"/><ellipse cx="221" cy="848.2593" fill="#FFFFFF" rx="3" ry="3" style="stroke:#000000;stroke-width:1;"/><text fill="#000000" font-family="Verdana" font-size="14" lengthAdjust="spacing" textLength="78.1758" x="228" y="852.3271">date : date</text><ellipse cx="221" cy="865.2739" fill="#FFFFFF" rx="3" ry="3" style="stroke:#000000;stroke-width:1;"/><text fill="#000000" font-family="Verdana" font-size="14" lengthAdjust="spacing" textLength="133.3145" x="228" y="869.3418">description : string</text><ellipse cx="221" cy="882.2886" fill="#FFFFFF" rx="3" ry="3" style="stroke:#000000;stroke-width:1;"/><text fill="#000000" font-family="Verdana" font-size="14" lengthAdjust="spacing" textLength="217.3623" x="228" y="886.3564">debit_account_id : string &#171;FK&#187;</text><ellipse cx="221" cy="899.3032" fill="#FFFFFF" rx="3" ry="3" style="stroke:#000000;stroke-width:1;"/><text fill="#000000" font-family="Verdana" font-size="14" lengthAdjust="spacing" textLength="221.9082" x="228" y="903.3711">credit_account_id : string &#171;FK&#187;</text><ellipse cx="221" cy="916.3179" fill="#FFFFFF" rx="3" ry="3" style="stroke:#000000;stroke-width:1;"/><text fill="#000000" font-family="Verdana" font-size="14" lengthAdjust="spacing" textLength="126.7451" x="228" y="920.3857">amount : numeric</text><ellipse cx="221" cy="933.3325" fill="#FFFFFF" rx="3" ry="3" style="stroke:#000000;stroke-width:1;"/><text fill="#000000" font-family="Verdana" font-size="14" lengthAdjust="spacing" textLength="149.0576" x="228" y="937.4004">user_id : string &#171;FK&#187;</text><line style="stroke:#000000;stroke-width:1;" x1="211" x2="454.9082" y1="944.3398" y2="944.3398"/><text fill="#000000" font-family="Verdana" font-size="14" lengthAdjust="spacing" textLength="166.4961" x="216" y="962.415">created_at : timestamp</text><text fill="#000000" font-family="Verdana" font-size="14" lengthAdjust="spacing" textLength="171.1924" x="216" y="979.4297">updated_at : timestamp</text></g><!--class regular_journal_entries--><g class="entity" data-entity="regular_journal_entries" data-source-line="60" data-uid="ent0006" id="entity_regular_journal_entries"><rect fill="#FFFFFF" height="324.2344" rx="2.5" ry="2.5" style="stroke:#000000;stroke-width:1;" width="245.9082" x="702" y="721.7373"/><ellipse cx="738.6522" cy="735.7373" fill="#FFFFFF" rx="9" ry="9" style="stroke:#000000;stroke-width:1;"/><path d="M734.3866,741.7373 L734.3866,729.5654 L743.4179,729.5654 L743.4179,731.6279 L736.8397,731.6279 L736.8397,734.3311 L742.9491,734.3311 L742.9491,736.3779 L736.8397,736.3779 L736.8397,739.6904 L743.6522,739.6904 L743.6522,741.7373 L734.3866,741.7373 Z " fill="#000000"/><text fill="#000000" font-family="Verdana" font-size="14" lengthAdjust="spacing" textLength="165.3477" x="755.9083" y="741.3052">regular_journal_entries</text><line style="stroke:#000000;stroke-width:1;" x1="703" x2="946.9082" y1="749.7373" y2="749.7373"/><ellipse cx="713" cy="763.7446" fill="#FFFFFF" rx="3" ry="3" style="stroke:#000000;stroke-width:1;"/><text fill="#000000" font-family="Verdana" font-size="14" lengthAdjust="spacing" textLength="109.3818" x="720" y="767.8125">id : bigint &#171;PK&#187;</text><line style="stroke:#000000;stroke-width:1;" x1="703" x2="946.9082" y1="774.752" y2="774.752"/><ellipse cx="713" cy="788.7593" fill="#FFFFFF" rx="3" ry="3" style="stroke:#000000;stroke-width:1;"/><text fill="#000000" font-family="Verdana" font-size="14" lengthAdjust="spacing" textLength="95.6348" x="720" y="792.8271">name : string</text><text fill="#000000" font-family="Verdana" font-size="14" lengthAdjust="spacing" textLength="133.3145" x="720" y="809.8418">description : string</text><ellipse cx="713" cy="822.7886" fill="#FFFFFF" rx="3" ry="3" style="stroke:#000000;stroke-width:1;"/><text fill="#000000" font-family="Verdana" font-size="14" lengthAdjust="spacing" textLength="217.3623" x="720" y="826.8564">debit_account_id : string &#171;FK&#187;</text><ellipse cx="713" cy="839.8032" fill="#FFFFFF" rx="3" ry="3" style="stroke:#000000;stroke-width:1;"/><text fill="#000000" font-family="Verdana" font-size="14" lengthAdjust="spacing" textLength="221.9082" x="720" y="843.8711">credit_account_id : string &#171;FK&#187;</text><text fill="#000000" font-family="Verdana" font-size="14" lengthAdjust="spacing" textLength="126.7451" x="720" y="860.8857">amount : numeric</text><ellipse cx="713" cy="873.8325" fill="#FFFFFF" rx="3" ry="3" style="stroke:#000000;stroke-width:1;"/><text fill="#000000" font-family="Verdana" font-size="14" lengthAdjust="spacing" textLength="126.0068" x="720" y="877.9004">frequency : string</text><text fill="#000000" font-family="Verdana" font-size="14" lengthAdjust="spacing" textLength="119.7861" x="720" y="894.915">start_date : date</text><text fill="#000000" font-family="Verdana" font-size="14" lengthAdjust="spacing" textLength="112.998" x="720" y="911.9297">end_date : date</text><text fill="#000000" font-family="Verdana" font-size="14" lengthAdjust="spacing" textLength="167.7813" x="720" y="928.9443">day_of_month : integer</text><text fill="#000000" font-family="Verdana" font-size="14" lengthAdjust="spacing" textLength="158.8535" x="720" y="945.959">day_of_week : integer</text><text fill="#000000" font-family="Verdana" font-size="14" lengthAdjust="spacing" textLength="139.4395" x="720" y="962.9736">active_flg : boolean</text><text fill="#000000" font-family="Verdana" font-size="14" lengthAdjust="spacing" textLength="153.2959" x="720" y="979.9883">last_exec_date : date</text><ellipse cx="713" cy="992.9351" fill="#FFFFFF" rx="3" ry="3" style="stroke:#000000;stroke-width:1;"/><text fill="#000000" font-family="Verdana" font-size="14" lengthAdjust="spacing" textLength="149.0576" x="720" y="997.0029">user_id : string &#171;FK&#187;</text><line style="stroke:#000000;stroke-width:1;" x1="703" x2="946.9082" y1="1003.9424" y2="1003.9424"/><text fill="#000000" font-family="Verdana" font-size="14" lengthAdjust="spacing" textLength="166.4961" x="708" y="1022.0176">created_at : timestamp</text><text fill="#000000" font-family="Verdana" font-size="14" lengthAdjust="spacing" textLength="171.1924" x="708" y="1039.0322">updated_at : timestamp</text></g><!--class users--><g class="entity" data-entity="users" data-source-line="81" data-uid="ent0007" id="entity_users"><rect fill="#FFFFFF" height="137.0732" rx="2.5" ry="2.5" style="stroke:#000000;stroke-width:1;" width="183.1924" x="844.5" y="208.7373"/><ellipse cx="913.4653" cy="222.7373" fill="#FFFFFF" rx="9" ry="9" style="stroke:#000000;stroke-width:1;"/><path d="M909.1997,228.7373 L909.1997,216.5654 L918.231,216.5654 L918.231,218.6279 L911.6528,218.6279 L911.6528,221.3311 L917.7622,221.3311 L917.7622,223.3779 L911.6528,223.3779 L911.6528,226.6904 L918.4653,226.6904 L918.4653,228.7373 L909.1997,228.7373 Z " fill="#000000"/><text fill="#000000" font-family="Verdana" font-size="14" lengthAdjust="spacing" textLength="37.7617" x="930.9653" y="228.3052">users</text><line style="stroke:#000000;stroke-width:1;" x1="845.5" x2="1026.6924" y1="236.7373" y2="236.7373"/><ellipse cx="855.5" cy="250.7446" fill="#FFFFFF" rx="3" ry="3" style="stroke:#000000;stroke-width:1;"/><text fill="#000000" font-family="Verdana" font-size="14" lengthAdjust="spacing" textLength="110.0859" x="862.5" y="254.8125">id : string &#171;PK&#187;</text><line style="stroke:#000000;stroke-width:1;" x1="845.5" x2="1026.6924" y1="261.752" y2="261.752"/><ellipse cx="855.5" cy="275.7593" fill="#FFFFFF" rx="3" ry="3" style="stroke:#000000;stroke-width:1;"/><text fill="#000000" font-family="Verdana" font-size="14" lengthAdjust="spacing" textLength="94.459" x="862.5" y="279.8271">email : string</text><ellipse cx="855.5" cy="292.7739" fill="#FFFFFF" rx="3" ry="3" style="stroke:#000000;stroke-width:1;"/><text fill="#000000" font-family="Verdana" font-size="14" lengthAdjust="spacing" textLength="95.6348" x="862.5" y="296.8418">name : string</text><line style="stroke:#000000;stroke-width:1;" x1="845.5" x2="1026.6924" y1="303.7813" y2="303.7813"/><text fill="#000000" font-family="Verdana" font-size="14" lengthAdjust="spacing" textLength="166.4961" x="850.5" y="321.8564">created_at : timestamp</text><text fill="#000000" font-family="Verdana" font-size="14" lengthAdjust="spacing" textLength="171.1924" x="850.5" y="338.8711">updated_at : timestamp</text></g><g class="entity" data-entity="GMN18" data-source-line="108" data-uid="ent0019" id="entity_GMN18"><path d="M860.5,58.7373 L860.5,147.7339 A0,0 0 0 0 860.5,147.7339 L932,147.7339 L936,208.7173 L940,147.7339 L1011.665,147.7339 A0,0 0 0 0 1011.665,147.7339 L1011.665,68.7373 L1001.665,58.7373 L860.5,58.7373 A0,0 0 0 0 860.5,58.7373" fill="#FFFFFF" style="stroke:#000000;stroke-width:1;"/><path d="M1001.665,58.7373 L1001.665,68.7373 L1011.665,68.7373 L1001.665,58.7373" fill="#FFFFFF" style="stroke:#000000;stroke-width:1;"/><text fill="#000000" font-family="Verdana" font-size="13" lengthAdjust="spacing" textLength="130.165" x="866.5" y="76.8071">User table manages</text><text fill="#000000" font-family="Verdana" font-size="13" lengthAdjust="spacing" textLength="95.3545" x="866.5" y="92.6064">multi-tenancy.</text><text fill="#000000" font-family="Verdana" font-size="13" lengthAdjust="spacing" textLength="98.8076" x="866.5" y="108.4058">All other tables</text><text fill="#000000" font-family="Verdana" font-size="13" lengthAdjust="spacing" textLength="121.5767" x="866.5" y="124.2051">include user_id for</text><text fill="#000000" font-family="Verdana" font-size="13" lengthAdjust="spacing" textLength="121.0435" x="866.5" y="140.0044">row-level security.</text></g><g class="entity" data-entity="GMN21" data-source-line="116" data-uid="ent0022" id="entity_GMN21"><path d="M491.5,839.2373 L491.5,879.7373 L456.48,883.7373 L491.5,887.7373 L491.5,928.2339 A0,0 0 0 0 491.5,928.2339 L666.5132,928.2339 A0,0 0 0 0 666.5132,928.2339 L666.5132,849.2373 L656.5132,839.2373 L491.5,839.2373 A0,0 0 0 0 491.5,839.2373" fill="#FFFFFF" style="stroke:#000000;stroke-width:1;"/><path d="M656.5132,839.2373 L656.5132,849.2373 L666.5132,849.2373 L656.5132,839.2373" fill="#FFFFFF" style="stroke:#000000;stroke-width:1;"/><text fill="#000000" font-family="Verdana" font-size="13" lengthAdjust="spacing" textLength="149.335" x="497.5" y="857.3071">Core transaction table.</text><text fill="#000000" font-family="Verdana" font-size="13" lengthAdjust="spacing" textLength="131.2188" x="497.5" y="873.1064">Each entry has both</text><text fill="#000000" font-family="Verdana" font-size="13" lengthAdjust="spacing" textLength="140.2896" x="497.5" y="888.9058">debit and credit sides</text><text fill="#000000" font-family="Verdana" font-size="13" lengthAdjust="spacing" textLength="146.4531" x="497.5" y="904.7051">following double-entry</text><text fill="#000000" font-family="Verdana" font-size="13" lengthAdjust="spacing" textLength="154.0132" x="497.5" y="920.5044">bookkeeping principles.</text></g><g class="entity" data-entity="GMN24" data-source-line="124" data-uid="ent0025" id="entity_GMN24"><path d="M662.5,1140.2373 L662.5,1229.2339 A0,0 0 0 0 662.5,1229.2339 L855.6357,1229.2339 A0,0 0 0 0 855.6357,1229.2339 L855.6357,1150.2373 L845.6357,1140.2373 L772.62,1140.2373 L789.39,1046.0473 L764.62,1140.2373 L662.5,1140.2373 A0,0 0 0 0 662.5,1140.2373" fill="#FFFFFF" style="stroke:#000000;stroke-width:1;"/><path d="M845.6357,1140.2373 L845.6357,1150.2373 L855.6357,1150.2373 L845.6357,1140.2373" fill="#FFFFFF" style="stroke:#000000;stroke-width:1;"/><text fill="#000000" font-family="Verdana" font-size="13" lengthAdjust="spacing" textLength="147.1704" x="668.5" y="1158.3071">Template for recurring</text><text fill="#000000" font-family="Verdana" font-size="13" lengthAdjust="spacing" textLength="142.7207" x="668.5" y="1174.1064">transactions like rent,</text><text fill="#000000" font-family="Verdana" font-size="13" lengthAdjust="spacing" textLength="138.6646" x="668.5" y="1189.9058">salary, subscriptions.</text><text fill="#000000" font-family="Verdana" font-size="13" lengthAdjust="spacing" textLength="172.1357" x="668.5" y="1205.7051">Can be executed to create</text><text fill="#000000" font-family="Verdana" font-size="13" lengthAdjust="spacing" textLength="103.4604" x="668.5" y="1221.5044">journal_entries.</text></g><g class="entity" data-entity="GMN27" data-source-line="132" data-uid="ent0028" id="entity_GMN27"><path d="M338,481.2373 L338,586.0332 A0,0 0 0 0 338,586.0332 L497.6836,586.0332 A0,0 0 0 0 497.6836,586.0332 L497.6836,537.7373 L533.26,533.7373 L497.6836,529.7373 L497.6836,491.2373 L487.6836,481.2373 L338,481.2373 A0,0 0 0 0 338,481.2373" fill="#FFFFFF" style="stroke:#000000;stroke-width:1;"/><path d="M487.6836,481.2373 L487.6836,491.2373 L497.6836,491.2373 L487.6836,481.2373" fill="#FFFFFF" style="stroke:#000000;stroke-width:1;"/><text fill="#000000" font-family="Verdana" font-size="13" lengthAdjust="spacing" textLength="119.7041" x="344" y="499.3071">Chart of accounts.</text><text fill="#000000" font-family="Verdana" font-size="13" lengthAdjust="spacing" textLength="119.8755" x="344" y="515.1064">Categories: Asset,</text><text fill="#000000" font-family="Verdana" font-size="13" lengthAdjust="spacing" textLength="105.187" x="344" y="530.9058">Liability, Equity,</text><text fill="#000000" font-family="Verdana" font-size="13" lengthAdjust="spacing" textLength="124.9473" x="344" y="546.7051">Revenue, Expense.</text><text fill="#000000" font-family="Verdana" font-size="13" lengthAdjust="spacing" textLength="135.8081" x="344" y="562.5044">Balance is calculated</text><text fill="#000000" font-family="Verdana" font-size="13" lengthAdjust="spacing" textLength="138.6836" x="344" y="578.3037">from journal_entries.</text></g><!--link users to accounts--><g class="link" data-entity-1="users" data-entity-2="accounts" data-source-line="92" data-uid="lnk8" id="link_users_accounts"><path codeLine="92" d="M1034.1249,339.9212 C1052.6349,352.5712 1065.01,361.8473 1082,375.7373 C1101.76,391.8973 1108.8644,397.6716 1127.7744,415.8816" fill="none" id="users-accounts" style="stroke:#000000;stroke-width:1;"/><line style="stroke:#000000;stroke-width:1;" x1="1028.5655" x2="1033.0794" y1="340.9667" y2="334.3618"/><line style="stroke:#000000;stroke-width:1;" x1="1031.0423" x2="1035.5562" y1="342.6594" y2="336.0545"/><line style="stroke:#000000;stroke-width:1;" x1="1034.1249" x2="1027.52" y1="339.9212" y2="335.4073"/><line style="stroke:#000000;stroke-width:1;" x1="1134.9775" x2="1144.9019" y1="422.8181" y2="424.0454"/><line style="stroke:#000000;stroke-width:1;" x1="1134.9775" x2="1136.5781" y1="422.8181" y2="432.6892"/><line style="stroke:#000000;stroke-width:1;" x1="1134.9775" x2="1140.74" y1="422.8181" y2="428.3673"/><ellipse cx="1130.6556" cy="418.6562" fill="none" rx="4" ry="4" style="stroke:#000000;stroke-width:1;"/><text fill="#000000" font-family="Verdana" font-size="13" lengthAdjust="spacing" textLength="48.2231" x="1102" y="389.8071">user_id</text></g><!--link users to credit_cards--><g class="link" data-entity-1="users" data-entity-2="credit_cards" data-source-line="93" data-uid="lnk9" id="link_users_credit_cards"><path codeLine="93" d="M962.7394,353.3388 C971.3194,377.5788 978.33,397.5873 987,422.7373 C1030.76,549.6073 1074.3673,679.5612 1105.3773,772.5812" fill="none" id="users-credit_cards" style="stroke:#000000;stroke-width:1;"/><line style="stroke:#000000;stroke-width:1;" x1="957.6339" x2="965.1755" y1="350.9028" y2="348.2334"/><line style="stroke:#000000;stroke-width:1;" x1="958.635" x2="966.1765" y1="353.7308" y2="351.0614"/><line style="stroke:#000000;stroke-width:1;" x1="962.7394" x2="960.07" y1="353.3388" y2="345.7973"/><line style="stroke:#000000;stroke-width:1;" x1="1108.5399" x2="1116.762" y1="782.0679" y2="787.7598"/><line style="stroke:#000000;stroke-width:1;" x1="1108.5399" x2="1105.378" y1="782.0679" y2="791.5549"/><line style="stroke:#000000;stroke-width:1;" x1="1108.5399" x2="1111.07" y1="782.0679" y2="789.6573"/><ellipse cx="1106.6424" cy="776.3759" fill="none" rx="4" ry="4" style="stroke:#000000;stroke-width:1;"/><text fill="#000000" font-family="Verdana" font-size="13" lengthAdjust="spacing" textLength="48.2231" x="1062" y="539.3071">user_id</text></g><!--link users to journal_accounts--><g class="link" data-entity-1="users" data-entity-2="journal_accounts" data-source-line="94" data-uid="lnk10" id="link_users_journal_accounts"><path codeLine="94" d="M847.2794,350.8345 C805.1794,385.2945 773.9512,410.849 730.6112,446.309" fill="none" id="users-journal_accounts" style="stroke:#000000;stroke-width:1;"/><line style="stroke:#000000;stroke-width:1;" x1="847.8411" x2="852.9083" y1="345.2056" y2="351.3962"/><line style="stroke:#000000;stroke-width:1;" x1="845.5196" x2="850.5868" y1="347.1058" y2="353.2964"/><line style="stroke:#000000;stroke-width:1;" x1="847.2794" x2="853.47" y1="350.8345" y2="345.7673"/><line style="stroke:#000000;stroke-width:1;" x1="722.8717" x2="720.4794" y1="452.6414" y2="462.351"/><line style="stroke:#000000;stroke-width:1;" x1="722.8717" x2="712.8806" y1="452.6414" y2="453.0636"/><line style="stroke:#000000;stroke-width:1;" x1="722.8717" x2="716.68" y1="452.6414" y2="457.7073"/><ellipse cx="727.5154" cy="448.842" fill="none" rx="4" ry="4" style="stroke:#000000;stroke-width:1;"/><text fill="#000000" font-family="Verdana" font-size="13" lengthAdjust="spacing" textLength="48.2231" x="810" y="389.8071">user_id</text></g><!--link users to journal_entries--><g class="link" data-entity-1="users" data-entity-2="journal_entries" data-source-line="95" data-uid="lnk11" id="link_users_journal_entries"><path codeLine="95" d="M836.3649,284.9475 C670.9749,298.0175 341.15,334.4873 270,422.7373 C188.67,523.6073 227.0115,662.7278 272.2415,764.5278" fill="none" id="users-journal_entries" style="stroke:#000000;stroke-width:1;"/><line style="stroke:#000000;stroke-width:1;" x1="840.0373" x2="840.6676" y1="280.6449" y2="288.62"/><line style="stroke:#000000;stroke-width:1;" x1="837.0466" x2="837.6769" y1="280.8812" y2="288.8563"/><line style="stroke:#000000;stroke-width:1;" x1="836.3649" x2="844.34" y1="284.9475" y2="284.3173"/><line style="stroke:#000000;stroke-width:1;" x1="276.3018" x2="285.0332" y1="773.6664" y2="778.5411"/><line style="stroke:#000000;stroke-width:1;" x1="276.3018" x2="274.0668" y1="773.6664" y2="783.4135"/><line style="stroke:#000000;stroke-width:1;" x1="276.3018" x2="279.55" y1="773.6664" y2="780.9773"/><ellipse cx="273.8656" cy="768.1833" fill="none" rx="4" ry="4" style="stroke:#000000;stroke-width:1;"/><text fill="#000000" font-family="Verdana" font-size="13" lengthAdjust="spacing" textLength="48.2231" x="271" y="539.3071">user_id</text></g><!--link users to regular_journal_entries--><g class="link" data-entity-1="users" data-entity-2="regular_journal_entries" data-source-line="96" data-uid="lnk12" id="link_users_regular_journal_entries"><path codeLine="96" d="M932.867,353.9461 C928.497,436.4761 917.9,571.7773 891,691.7373 C888.79,701.5773 891.04,694.2664 888.26,704.3364" fill="none" id="users-regular_journal_entries" style="stroke:#000000;stroke-width:1;"/><line style="stroke:#000000;stroke-width:1;" x1="929.0841" x2="937.0729" y1="349.7402" y2="350.1632"/><line style="stroke:#000000;stroke-width:1;" x1="928.9255" x2="936.9143" y1="352.736" y2="353.159"/><line style="stroke:#000000;stroke-width:1;" x1="932.867" x2="933.29" y1="353.9461" y2="345.9573"/><line style="stroke:#000000;stroke-width:1;" x1="885.5989" x2="889.2537" y1="713.9758" y2="723.284"/><line style="stroke:#000000;stroke-width:1;" x1="885.5989" x2="877.6863" y1="713.9758" y2="720.0906"/><line style="stroke:#000000;stroke-width:1;" x1="885.5989" x2="883.47" y1="713.9758" y2="721.6873"/><ellipse cx="887.1956" cy="708.1921" fill="none" rx="4" ry="4" style="stroke:#000000;stroke-width:1;"/><text fill="#000000" font-family="Verdana" font-size="13" lengthAdjust="spacing" textLength="48.2231" x="930" y="539.3071">user_id</text></g><!--link accounts to credit_cards--><g class="link" data-entity-1="accounts" data-entity-2="credit_cards" data-source-line="98" data-uid="lnk13" id="link_accounts_credit_cards"><path codeLine="98" d="M1206.8219,652.5479 C1193.7019,699.1479 1184.8156,730.6988 1172.2656,775.2688" fill="none" id="accounts-credit_cards" style="stroke:#000000;stroke-width:1;"/><line style="stroke:#000000;stroke-width:1;" x1="1204.0557" x2="1211.7563" y1="647.6136" y2="649.7816"/><line style="stroke:#000000;stroke-width:1;" x1="1203.2426" x2="1210.9432" y1="650.5013" y2="652.6694"/><line style="stroke:#000000;stroke-width:1;" x1="1206.8219" x2="1208.99" y1="652.5479" y2="644.8473"/><line style="stroke:#000000;stroke-width:1;" x1="1171.1814" x2="1168.2" y1="779.1191" y2="789.7073"/><ellipse cx="1171.1814" cy="779.1191" fill="none" rx="4" ry="4" style="stroke:#000000;stroke-width:1;"/><line style="stroke:#000000;stroke-width:1;" x1="1173.1344" x2="1165.4339" y1="786.9412" y2="784.7729"/><text fill="#000000" font-family="Verdana" font-size="13" lengthAdjust="spacing" textLength="117.9141" x="1200" y="688.8071">linked_account_id</text></g><!--link journal_accounts to journal_entries--><g class="link" data-entity-1="journal_accounts" data-entity-2="journal_entries" data-source-line="100" data-uid="lnk14" id="link_journal_accounts_journal_entries"><path codeLine="100" d="M546.0729,624.593 C534.4929,634.353 528.1,638.0273 515,644.7373 C440.85,682.6873 383.98,611.2973 330,674.7373 C305.43,703.6173 299.6217,725.8966 303.5617,763.2466" fill="none" id="journal_accounts-journal_entries" style="stroke:#000000;stroke-width:1;"/><line style="stroke:#000000;stroke-width:1;" x1="546.5536" x2="551.7093" y1="618.9566" y2="625.0737"/><line style="stroke:#000000;stroke-width:1;" x1="544.2597" x2="549.4154" y1="620.89" y2="627.0071"/><line style="stroke:#000000;stroke-width:1;" x1="546.0729" x2="552.19" y1="624.593" y2="619.4373"/><line style="stroke:#000000;stroke-width:1;" x1="304.6107" x2="311.4169" y1="773.1914" y2="780.5179"/><line style="stroke:#000000;stroke-width:1;" x1="304.6107" x2="299.4831" y1="773.1914" y2="781.7767"/><line style="stroke:#000000;stroke-width:1;" x1="304.6107" x2="305.45" y1="773.1914" y2="781.1473"/><ellipse cx="303.9813" cy="767.2246" fill="none" rx="4" ry="4" style="stroke:#000000;stroke-width:1;"/><text fill="#000000" font-family="Verdana" font-size="13" lengthAdjust="spacing" textLength="111.6489" x="331" y="688.8071">debit_account_id</text></g><!--link journal_accounts to journal_entries--><g class="link" data-entity-1="journal_accounts" data-entity-2="journal_entries" data-source-line="101" data-uid="lnk15" id="link_journal_accounts_journal_entries"><path codeLine="101" d="M545.8564,625.6465 C530.2264,643.7765 519.12,656.8073 504,674.7373 C475,709.1373 455.0461,733.1607 427.1961,767.1107" fill="none" id="journal_accounts-journal_entries-1" style="stroke:#000000;stroke-width:1;"/><line style="stroke:#000000;stroke-width:1;" x1="545.4386" x2="551.4978" y1="620.0051" y2="625.2287"/><line style="stroke:#000000;stroke-width:1;" x1="543.4797" x2="549.5389" y1="622.2773" y2="627.5009"/><line style="stroke:#000000;stroke-width:1;" x1="545.8564" x2="551.08" y1="625.6465" y2="619.5873"/><line style="stroke:#000000;stroke-width:1;" x1="420.8538" x2="420.4189" y1="774.8421" y2="784.8327"/><line style="stroke:#000000;stroke-width:1;" x1="420.8538" x2="411.1411" y1="774.8421" y2="777.2219"/><line style="stroke:#000000;stroke-width:1;" x1="420.8538" x2="415.78" y1="774.8421" y2="781.0273"/><ellipse cx="424.6592" cy="770.2033" fill="none" rx="4" ry="4" style="stroke:#000000;stroke-width:1;"/><text fill="#000000" font-family="Verdana" font-size="13" lengthAdjust="spacing" textLength="115.8701" x="505" y="688.8071">credit_account_id</text></g><!--link journal_accounts to regular_journal_entries--><g class="link" data-entity-1="journal_accounts" data-entity-2="regular_journal_entries" data-source-line="103" data-uid="lnk16" id="link_journal_accounts_regular_journal_entries"><path codeLine="103" d="M721.9671,622.2533 C738.4471,640.2233 748.83,654.1873 761,674.7373 C769.66,689.3673 770.4745,688.6053 777.1045,704.8953" fill="none" id="journal_accounts-regular_journal_entries" style="stroke:#000000;stroke-width:1;"/><line style="stroke:#000000;stroke-width:1;" x1="716.3156" x2="722.2116" y1="622.0089" y2="616.6017"/><line style="stroke:#000000;stroke-width:1;" x1="718.3432" x2="724.2392" y1="624.2199" y2="618.8127"/><line style="stroke:#000000;stroke-width:1;" x1="721.9671" x2="716.56" y1="622.2533" y2="616.3573"/><line style="stroke:#000000;stroke-width:1;" x1="780.8742" x2="789.4473" y1="714.1575" y2="719.3055"/><line style="stroke:#000000;stroke-width:1;" x1="780.8742" x2="778.3327" y1="714.1575" y2="723.8291"/><line style="stroke:#000000;stroke-width:1;" x1="780.8742" x2="783.89" y1="714.1575" y2="721.5673"/><ellipse cx="778.6124" cy="708.6002" fill="none" rx="4" ry="4" style="stroke:#000000;stroke-width:1;"/><text fill="#000000" font-family="Verdana" font-size="13" lengthAdjust="spacing" textLength="111.6489" x="771" y="688.8071">debit_account_id</text></g><!--link journal_accounts to regular_journal_entries--><g class="link" data-entity-1="journal_accounts" data-entity-2="regular_journal_entries" data-source-line="104" data-uid="lnk17" id="link_journal_accounts_regular_journal_entries"><path codeLine="104" d="M617.2302,627.3478 C618.4402,652.1278 623.12,670.3073 636,691.7373 C648.96,713.2973 664.84,705.4373 684,721.7373 C689.94,726.7973 682.7346,719.7896 688.5846,725.2796" fill="none" id="journal_accounts-regular_journal_entries-1" style="stroke:#000000;stroke-width:1;"/><line style="stroke:#000000;stroke-width:1;" x1="613.0398" x2="621.0303" y1="623.5476" y2="623.1575"/><line style="stroke:#000000;stroke-width:1;" x1="613.1862" x2="621.1766" y1="626.5441" y2="626.1539"/><line style="stroke:#000000;stroke-width:1;" x1="617.2302" x2="616.84" y1="627.3478" y2="619.3573"/><line style="stroke:#000000;stroke-width:1;" x1="695.8765" x2="705.8159" y1="732.1228" y2="733.2222"/><line style="stroke:#000000;stroke-width:1;" x1="695.8765" x2="697.6041" y1="732.1228" y2="741.9724"/><line style="stroke:#000000;stroke-width:1;" x1="695.8765" x2="701.71" y1="732.1228" y2="737.5973"/><ellipse cx="691.5014" cy="728.0169" fill="none" rx="4" ry="4" style="stroke:#000000;stroke-width:1;"/><text fill="#000000" font-family="Verdana" font-size="13" lengthAdjust="spacing" textLength="115.8701" x="637" y="688.8071">credit_account_id</text></g><!--link journal_accounts to AccountCategory--><g class="link" data-entity-1="journal_accounts" data-entity-2="AccountCategory" data-source-line="160" data-uid="lnk34" id="link_journal_accounts_AccountCategory"><path codeLine="160" d="M552.59,619.3373 C540.91,629.1673 528.27,638.0573 515,644.7373 C383.19,711.0973 303.59,625.1573 192,721.7373 C162.02,747.6873 142.2852,780.6108 127.2952,813.3908" fill="none" id="journal_accounts-to-AccountCategory" style="stroke:#000000;stroke-width:1;"/><polygon fill="#000000" points="124.8,818.8473,132.1805,812.326,126.8794,814.3002,124.9051,808.999,124.8,818.8473" style="stroke:#000000;stroke-width:1;"/></g><!--link regular_journal_entries to RecurrenceFrequency--><g class="link" data-entity-1="regular_journal_entries" data-entity-2="RecurrenceFrequency" data-source-line="161" data-uid="lnk35" id="link_regular_journal_entries_RecurrenceFrequency"><path codeLine="161" d="M909.16,1046.0473 C924.63,1075.7073 937.0055,1099.4073 949.3655,1123.1073" fill="none" id="regular_journal_entries-to-RecurrenceFrequency" style="stroke:#000000;stroke-width:1;"/><polygon fill="#000000" points="952.14,1128.4273,951.5249,1118.5977,949.8279,1123.994,944.4316,1122.297,952.14,1128.4273" style="stroke:#000000;stroke-width:1;"/></g><!--SRC=[lLPDRzms4BthLx1xAL1O-G56OC1rd4kBed3Jiq19inAx5AcGL9n5dF_UDwHshOzTsp7Wd4JD6tBU36U6yqjegIFHQwbCbWKLD8bhxoc8VrGtQ1ci4xdu88CifITnQw2o5tS4H5dZMzMB3qesJdPPzgl8ypofAFByar7ItyYgieC9VYEa5uSVyIqJuZUXQd4fV73ADEBz-x__kBg267iPCnBa3cZIDXv73cnz3fHEcgejpD2LvEPGsFUBKqOA9xKFM6jrlSG6JwwO4_uu8Lmvae7gGWPe1DMH3xBh0GnzVGhudXqZXAsr2aKbNPsYD1MyAbALjXxhefPx0Ce4QiX5f9Vx3dPF85gP7TCSGt3IqxUCmdzsS4RgOfOlI-7heW7BZNNxHT98ZQnXLMG2ELNz9F_mxr0ZC_T6sGkyOoj0-PF-oLTEzUkQgAb42ZrpcsEYFQCbEqP_Mg0SDUW-hZWLi3FOD72bQf3MpwR5smVkPDYsZZuFPAfPCY84ZajoUhLaweK49LlORT5P4zfPxOx0FT5k9fTLK5-esEg6msAj9caWrjA7WhvILIoJwUtkb4zEDnXNBqXqwgJIyvjPNk5hIQN7QlgGfHShKNjuo7FxxV6bkapi4PVDN6FMfSzghJhOivg7d3whUAu8fXkoexsuwM75TjNkiMV5zJopPPLiVcJpgdgUiFs4io_dyCGXfxYa1FdBXd6KCLY9O7jXjob_aLx_uYim6c5ewgIH3R4GOrDGUI23bsN_3e9hhON5d3MgieuobHvgEXRRrdAjEdkVQ_f2MdYg1eUYUOVYgGMRpX81fvesC8M55zXzOnq8OWhoNFFeQD4Q4xYLLIjOSIzQL5y9Ch7v8N92ulpall2gZWTjhTRsdkknjWEEoEDM06WVknrHpr2F-gjK3tTM775-i1sJF1Do7FM9EioSK8RdK8EtOprF7F0OHtPm6Rikk47YhNRx2-67yjYrFRjt8uqeIN0t6r3ikAIn8G1RM5vnrRITXVEGD7niYuRCs46MRCKn0aTTfZcPcVsfPAaqhkj2t7uU-0lX7IxI30JHrvwCZnVn-pXkA8ntKbSyNrFD4NU8rnDKKou-seu9sSjgXvGJc-l4Ru9lOc-5-KwCuCrX_6509EfnTUGU_nBzk1pv9t5o0Ullt3kFbZyU7x9F6B6dPk_YbGAYHvrakaPBJnRuhHgNyJqRrtkIBYwZhLKrv_dLqgdiN6cpxWacsVy0]--></g></svg>